<svg xmlns="http://www.w3.org/2000/svg" width="30" height="31" viewBox="0 0 30 31"><defs><style>.a{fill:none;}.b{fill:#fff;}.c{fill:rgba(0,0,0,0);}.d{fill:#3773e4;}</style></defs><g transform="translate(-0.435 0.335)"><rect class="a" width="30" height="31" transform="translate(0.435 -0.335)"/><g transform="translate(3.374 2.25)"><rect class="b" width="24" height="23" rx="11.5" transform="translate(0.061 0.416)"/><g transform="translate(5.624 4.499)"><rect class="c" width="13" height="15" transform="translate(0.437 -0.083)"/><path class="d" d="M181.549,1227.345v1.014a1.162,1.162,0,0,1-1.213,1.171,9.953,9.953,0,0,1-9.308-9.307,1.162,1.162,0,0,1,1.172-1.213h1.013a1.172,1.172,0,0,1,1.166,1.037l.17,1.476a1.167,1.167,0,0,1-.334.961l-1.084,1.084a8.814,8.814,0,0,0,3.86,3.86l1.078-1.078a1.166,1.166,0,0,1,.961-.334l1.488.17A1.161,1.161,0,0,1,181.549,1227.345Z" transform="translate(-169.49 -1216.761)"/></g></g></g></svg>