<svg xmlns="http://www.w3.org/2000/svg" xmlns:xlink="http://www.w3.org/1999/xlink" width="557.169" height="513.601" viewBox="0 0 557.169 513.601">
  <defs>
    <clipPath id="clip-path">
      <rect id="Rectangle_264" data-name="Rectangle 264" width="293.702" height="289.7" transform="translate(1203.122 392.987)" fill="none"/>
    </clipPath>
  </defs>
  <g id="Group_215" data-name="Group 215" transform="translate(-1041.454 -274.086)">
    <g id="Group_139" data-name="Group 139">
      <ellipse id="Ellipse_26" data-name="Ellipse 26" cx="249.502" cy="34.885" rx="249.502" ry="34.885" transform="translate(1099.618 717.917)" fill="#96b3ff"/>
    </g>
    <g id="Group_186" data-name="Group 186">
      <g id="Group_143" data-name="Group 143">
        <g id="Group_140" data-name="Group 140">
          <path id="Rectangle_257" data-name="Rectangle 257" d="M14.617,0h266.37a14.617,14.617,0,0,1,14.617,14.617V185.982a0,0,0,0,1,0,0H0a0,0,0,0,1,0,0V14.617A14.617,14.617,0,0,1,14.617,0Z" transform="translate(1206.543 512.635)" fill="#0f1d8f"/>
          <rect id="Rectangle_258" data-name="Rectangle 258" width="267.543" height="156.306" transform="translate(1220.575 526.254)" fill="#2175fb"/>
        </g>
        <g id="Group_142" data-name="Group 142">
          <path id="Path_182" data-name="Path 182" d="M1556.385,744.485H1152.307l54.236-45.868h295.605Z" fill="#628aec"/>
          <path id="Rectangle_259" data-name="Rectangle 259" d="M0,0H404.077a0,0,0,0,1,0,0V3.009a14.43,14.43,0,0,1-14.43,14.43H14.43A14.43,14.43,0,0,1,0,3.009V0A0,0,0,0,1,0,0Z" transform="translate(1152.307 744.485)" fill="#0f1d8f"/>
          <g id="Group_141" data-name="Group 141">
            <path id="Path_183" data-name="Path 183" d="M1245.037,711.023h-16.362a.562.562,0,0,1-.387-.971l5.106-4.834a.563.563,0,0,1,.387-.154h15.631a.562.562,0,0,1,.417.94l-4.375,4.834A.562.562,0,0,1,1245.037,711.023Z" fill="#96b3ff"/>
            <path id="Path_184" data-name="Path 184" d="M1270.944,711.023h-16.522a.563.563,0,0,1-.432-.924l4.054-4.834a.56.56,0,0,1,.431-.2h15.791a.563.563,0,0,1,.464.881l-3.322,4.834A.562.562,0,0,1,1270.944,711.023Z" fill="#96b3ff"/>
            <path id="Path_185" data-name="Path 185" d="M1296.837,711.023h-16.656a.563.563,0,0,1-.479-.859l3-4.834a.562.562,0,0,1,.478-.266H1299.1a.562.562,0,0,1,.509.8l-2.268,4.833A.561.561,0,0,1,1296.837,711.023Z" fill="#96b3ff"/>
            <path id="Path_186" data-name="Path 186" d="M1322.709,711.023h-16.753a.563.563,0,0,1-.522-.773l1.946-4.834a.563.563,0,0,1,.522-.352h16.022a.563.563,0,0,1,.546.7l-1.215,4.834A.563.563,0,0,1,1322.709,711.023Z" fill="#96b3ff"/>
            <path id="Path_187" data-name="Path 187" d="M1348.558,711.023h-16.8a.562.562,0,0,1-.553-.665l.892-4.834a.562.562,0,0,1,.554-.46h16.073a.562.562,0,0,1,.562.581l-.161,4.834A.562.562,0,0,1,1348.558,711.023Z" fill="#96b3ff"/>
            <path id="Path_188" data-name="Path 188" d="M1374.38,711.023h-16.805a.562.562,0,0,1-.562-.544l-.161-4.834a.562.562,0,0,1,.562-.581h16.073a.563.563,0,0,1,.554.46l.892,4.834A.562.562,0,0,1,1374.38,711.023Z" fill="#96b3ff"/>
            <path id="Path_189" data-name="Path 189" d="M1400.177,711.023h-16.753a.563.563,0,0,1-.546-.425l-1.215-4.834a.563.563,0,0,1,.546-.7h16.021a.564.564,0,0,1,.523.352l1.946,4.834A.563.563,0,0,1,1400.177,711.023Z" fill="#96b3ff"/>
            <path id="Path_190" data-name="Path 190" d="M1425.952,711.023H1409.3a.561.561,0,0,1-.509-.324l-2.268-4.833a.562.562,0,0,1,.509-.8h15.924a.563.563,0,0,1,.479.266l3,4.834A.563.563,0,0,1,1425.952,711.023Z" fill="#96b3ff"/>
            <path id="Path_191" data-name="Path 191" d="M1451.711,711.023h-16.522a.562.562,0,0,1-.464-.244l-3.322-4.834a.563.563,0,0,1,.464-.881h15.791a.561.561,0,0,1,.431.2l4.054,4.834A.563.563,0,0,1,1451.711,711.023Z" fill="#96b3ff"/>
            <path id="Path_192" data-name="Path 192" d="M1477.458,711.023H1461.1a.562.562,0,0,1-.417-.185L1456.3,706a.562.562,0,0,1,.417-.94h15.631a.565.565,0,0,1,.387.154l5.106,4.834A.562.562,0,0,1,1477.458,711.023Z" fill="#96b3ff"/>
            <path id="Path_193" data-name="Path 193" d="M1236.862,720.055h-17.729a.563.563,0,0,1-.387-.972l6.071-5.746a.562.562,0,0,1,.387-.154h16.859a.563.563,0,0,1,.417.941l-5.2,5.745A.565.565,0,0,1,1236.862,720.055Z" fill="#96b3ff"/>
            <path id="Path_194" data-name="Path 194" d="M1264.738,720.055h-17.89a.563.563,0,0,1-.431-.925l4.818-5.746a.565.565,0,0,1,.432-.2h17.02a.563.563,0,0,1,.464.882l-3.949,5.746A.564.564,0,0,1,1264.738,720.055Z" fill="#96b3ff"/>
            <path id="Path_195" data-name="Path 195" d="M1292.6,720.055h-18.023a.563.563,0,0,1-.478-.86l3.566-5.746a.56.56,0,0,1,.478-.266H1295.3a.563.563,0,0,1,.51.8l-2.7,5.746A.565.565,0,0,1,1292.6,720.055Z" fill="#96b3ff"/>
            <path id="Path_196" data-name="Path 196" d="M1227.346,730.568h-19.321a.563.563,0,0,1-.387-.971l7.274-6.885a.563.563,0,0,1,.387-.154h18.279a.562.562,0,0,1,.417.94l-6.232,6.885A.56.56,0,0,1,1227.346,730.568Z" fill="#96b3ff"/>
            <path id="Path_197" data-name="Path 197" d="M1257.514,730.568h-19.482a.562.562,0,0,1-.431-.924l5.773-6.885a.561.561,0,0,1,.431-.2h18.44a.563.563,0,0,1,.464.881l-4.732,6.885A.561.561,0,0,1,1257.514,730.568Z" fill="#96b3ff"/>
            <path id="Path_198" data-name="Path 198" d="M1287.666,730.568h-19.615a.562.562,0,0,1-.478-.859l4.273-6.885a.56.56,0,0,1,.478-.266H1290.9a.563.563,0,0,1,.51.8l-3.23,6.885A.564.564,0,0,1,1287.666,730.568Z" fill="#96b3ff"/>
            <path id="Path_199" data-name="Path 199" d="M1320.44,720.055h-18.12a.563.563,0,0,1-.522-.773l2.313-5.746a.563.563,0,0,1,.522-.353h17.251a.563.563,0,0,1,.546.7l-1.444,5.746A.564.564,0,0,1,1320.44,720.055Z" fill="#96b3ff"/>
            <path id="Path_200" data-name="Path 200" d="M1408.046,730.568H1298.087a.563.563,0,0,1-.522-.773l2.772-6.885a.562.562,0,0,1,.522-.352h104.415a.562.562,0,0,1,.522.352l2.772,6.885A.563.563,0,0,1,1408.046,730.568Z" fill="#96b3ff"/>
            <path id="Path_201" data-name="Path 201" d="M1348.257,720.055h-18.172a.563.563,0,0,1-.553-.666l1.061-5.745a.563.563,0,0,1,.553-.461h17.3a.562.562,0,0,1,.563.582l-.191,5.746A.563.563,0,0,1,1348.257,720.055Z" fill="#96b3ff"/>
            <path id="Path_202" data-name="Path 202" d="M1376.048,720.055h-18.172a.563.563,0,0,1-.563-.544l-.191-5.746a.562.562,0,0,1,.563-.582h17.3a.563.563,0,0,1,.554.461l1.061,5.745A.563.563,0,0,1,1376.048,720.055Z" fill="#96b3ff"/>
            <path id="Path_203" data-name="Path 203" d="M1403.813,720.055h-18.12a.564.564,0,0,1-.546-.426l-1.444-5.746a.563.563,0,0,1,.546-.7H1401.5a.562.562,0,0,1,.522.353l2.313,5.746A.563.563,0,0,1,1403.813,720.055Z" fill="#96b3ff"/>
            <path id="Path_204" data-name="Path 204" d="M1431.557,720.055h-18.023a.565.565,0,0,1-.51-.324l-2.7-5.746a.563.563,0,0,1,.51-.8h17.153a.56.56,0,0,1,.478.266l3.566,5.746A.563.563,0,0,1,1431.557,720.055Z" fill="#96b3ff"/>
            <path id="Path_205" data-name="Path 205" d="M1459.285,720.055H1441.4a.564.564,0,0,1-.464-.244l-3.949-5.746a.563.563,0,0,1,.464-.882h17.02a.565.565,0,0,1,.432.2l4.818,5.746A.563.563,0,0,1,1459.285,720.055Z" fill="#96b3ff"/>
            <path id="Path_206" data-name="Path 206" d="M1464.339,726.082h-18.8a.561.561,0,0,1-.463-.244l-1.649-2.4a.563.563,0,0,1,.464-.881h18.44a.561.561,0,0,1,.431.2l2.011,2.4A.563.563,0,0,1,1464.339,726.082Z" fill="#96b3ff"/>
            <path id="Path_207" data-name="Path 207" d="M1468.1,730.568h-19.482a.561.561,0,0,1-.463-.244l-1.842-2.679a.563.563,0,0,1,.464-.882h19.076a.565.565,0,0,1,.431.2l2.247,2.68A.562.562,0,0,1,1468.1,730.568Z" fill="#96b3ff"/>
            <path id="Path_208" data-name="Path 208" d="M1498.108,730.568h-19.321a.561.561,0,0,1-.417-.185l-2.426-2.679a.563.563,0,0,1,.417-.941h18.916a.563.563,0,0,1,.387.154l2.831,2.68A.563.563,0,0,1,1498.108,730.568Z" fill="#96b3ff"/>
            <path id="Path_209" data-name="Path 209" d="M1438.082,730.568h-19.615a.564.564,0,0,1-.51-.323l-1.257-2.68a.563.563,0,0,1,.51-.8h19.209a.562.562,0,0,1,.478.266l1.663,2.68A.562.562,0,0,1,1438.082,730.568Z" fill="#96b3ff"/>
            <path id="Path_210" data-name="Path 210" d="M1487,720.055h-17.729a.565.565,0,0,1-.418-.186l-5.2-5.745a.563.563,0,0,1,.417-.941h16.859a.562.562,0,0,1,.387.154l6.071,5.746A.563.563,0,0,1,1487,720.055Z" fill="#96b3ff"/>
          </g>
        </g>
      </g>
      <g id="Group_150" data-name="Group 150">
        <g id="Group_148" data-name="Group 148">
          <g id="Group_144" data-name="Group 144">
            <path id="Path_211" data-name="Path 211" d="M1598.221,407.655l-36.277,24.811,9.531,12.919Z" fill="#0f1d8f"/>
          </g>
          <g id="Group_145" data-name="Group 145">
            <path id="Path_212" data-name="Path 212" d="M1598.221,407.655l-28.26,25.584,1.514,12.147Z" fill="#628aec"/>
          </g>
          <g id="Group_146" data-name="Group 146">
            <path id="Path_213" data-name="Path 213" d="M1598.221,407.655l-49.563,21.024,13.286,3.788Z" fill="#2175fb"/>
          </g>
          <g id="Group_147" data-name="Group 147">
            <path id="Path_214" data-name="Path 214" d="M1598.221,407.655l-28.26,25.584,16.218,3.37Z" fill="#2175fb"/>
          </g>
        </g>
        <g id="Group_149" data-name="Group 149">
          <path id="Path_215" data-name="Path 215" d="M1439.221,508.243a.685.685,0,0,1,.3-.921c1.077-.546,2.151-1.15,3.19-1.795a.686.686,0,0,1,.723,1.166c-1.074.665-2.181,1.288-3.293,1.852a.674.674,0,0,1-.2.065A.685.685,0,0,1,1439.221,508.243Zm7.519-4.658a.686.686,0,0,1,.115-.963,49.421,49.421,0,0,0,3.813-3.338.685.685,0,1,1,.954.984,50.4,50.4,0,0,1-3.92,3.432.685.685,0,0,1-.962-.115Zm7.476-7.036a.686.686,0,0,1-.074-.967c1.076-1.258,2.132-2.6,3.136-4a.686.686,0,0,1,1.113.8c-1.027,1.427-2.106,2.8-3.208,4.091a.686.686,0,0,1-.967.075Zm6.1-8.266a.687.687,0,0,1-.227-.943c.865-1.415,1.708-2.908,2.5-4.437a.686.686,0,1,1,1.217.633c-.811,1.557-1.669,3.077-2.55,4.519a.688.688,0,0,1-.943.228Zm54.271-17.028a.685.685,0,0,1,.554-.8c1.69-.3,3.377-.641,5.015-1.008a.686.686,0,0,1,.3,1.338c-1.657.371-3.364.714-5.074,1.019l-.012,0A.685.685,0,0,1,1514.587,471.255Zm-4.312,1.356c-1.685.23-3.412.431-5.134.6a.685.685,0,1,1-.132-1.364c1.7-.165,3.414-.364,5.081-.591a.685.685,0,0,1,.2,1.356Zm-45.125,6.6a.685.685,0,0,1-.349-.9c.68-1.533,1.329-3.121,1.931-4.722a.685.685,0,0,1,1.283.483c-.611,1.625-1.271,3.238-1.96,4.794a.684.684,0,0,1-.905.349Zm59.487-10.154a.685.685,0,0,1,.478-.843c1.66-.457,3.3-.957,4.885-1.484a.686.686,0,0,1,.434,1.3c-1.6.534-3.271,1.041-4.954,1.5a.712.712,0,0,1-.075.016A.685.685,0,0,1,1524.637,469.058Zm-24.649,4.549q-1.017.06-2.02.1c-1.053.046-2.114.07-3.156.07a.686.686,0,0,1,0-1.371c1.021,0,2.063-.023,3.1-.069q.992-.042,2-.1a.685.685,0,0,1,.15,1.361A.522.522,0,0,1,1499.988,473.607Zm-10.363-.01c-1.725-.126-3.461-.317-5.159-.569a.685.685,0,1,1,.2-1.356c1.665.247,3.366.434,5.058.557a.686.686,0,0,1,.059,1.361A.764.764,0,0,1,1489.625,473.6Zm44.783-7.727a.684.684,0,0,1,.381-.891c1.6-.642,3.171-1.33,4.665-2.046a.686.686,0,1,1,.592,1.237c-1.521.728-3.118,1.429-4.747,2.081a.672.672,0,0,1-.147.041A.685.685,0,0,1,1534.408,465.87Zm9.3-4.365a.686.686,0,0,1,.254-.936c1.489-.855,2.936-1.765,4.3-2.707a.685.685,0,1,1,.779,1.128c-1.393.963-2.872,1.9-4.4,2.768a.683.683,0,0,1-.936-.253Zm-64.339,10.564c-1.689-.385-3.376-.84-5.015-1.353a.686.686,0,1,1,.411-1.308c1.6.5,3.255.948,4.909,1.325a.685.685,0,0,1-.044,1.345A.678.678,0,0,1,1479.364,472.069Zm-10.521-2.446a.686.686,0,0,1-.449-.859c.021-.069.043-.138.064-.207-1.261-.533-2.514-1.11-3.737-1.721a.685.685,0,0,1,.613-1.226c1.153.576,2.333,1.121,3.523,1.627.333-1.142.639-2.275.911-3.383a.686.686,0,0,1,1.332.327c-.29,1.181-.617,2.388-.976,3.6a.686.686,0,0,1,.225.8.676.676,0,0,1-.6.429c-.015.051-.031.1-.048.154a.685.685,0,0,1-.546.473A.7.7,0,0,1,1468.843,469.623Zm83.363-13.868a.686.686,0,0,1,.084-.966,48.942,48.942,0,0,0,3.707-3.452.686.686,0,0,1,.986.953,50.5,50.5,0,0,1-3.811,3.549.677.677,0,0,1-.331.152A.687.687,0,0,1,1552.206,455.755Zm7.225-7.284a.686.686,0,0,1-.125-.962,42.78,42.78,0,0,0,2.845-4.182.685.685,0,0,1,1.177.7,44.079,44.079,0,0,1-2.936,4.316.686.686,0,0,1-.961.125Zm-99.258,15.853c-1.473-.9-2.929-1.861-4.326-2.873a.686.686,0,0,1,.8-1.111c1.367.991,2.792,1.936,4.234,2.812a.686.686,0,0,1-.712,1.172Zm11.2-4.662a.685.685,0,0,1-.56-.791c.289-1.7.509-3.395.65-5.041a.685.685,0,1,1,1.366.117c-.145,1.684-.369,3.418-.665,5.155a.685.685,0,0,1-.567.561A.674.674,0,0,1,1471.368,459.662Zm-19.6-1.428c-1.3-1.118-2.584-2.308-3.8-3.535a.685.685,0,1,1,.972-.966c1.194,1.2,2.447,2.365,3.723,3.46a.685.685,0,0,1-.892,1.041Zm20.578-8.8a.686.686,0,0,1-.692-.679,47.535,47.535,0,0,0-.309-5.055.663.663,0,0,1,.6-.761.686.686,0,0,1,.759.6,48.946,48.946,0,0,1,.319,5.2.686.686,0,0,1-.576.683A.693.693,0,0,1,1472.348,449.438Zm-27.89,1.432c-1.109-1.31-2.184-2.687-3.2-4.091a.686.686,0,0,1,1.112-.8c.992,1.376,2.045,2.725,3.13,4.008a.684.684,0,0,1-.081.966.674.674,0,0,1-.333.154A.682.682,0,0,1,1444.458,450.87Zm26.012-12.148-.048-.2a34.763,34.763,0,0,0-1.474-4.607.686.686,0,0,1,1.275-.506,36.328,36.328,0,0,1,1.531,4.785l.05.209a.686.686,0,0,1-.509.825l-.05.009A.685.685,0,0,1,1470.47,438.722Zm-32.081,3.732c-.9-1.465-1.749-2.987-2.539-4.526a.686.686,0,1,1,1.22-.626c.774,1.508,1.612,3,2.489,4.437a.686.686,0,1,1-1.17.715Zm28.39-13.094a37.909,37.909,0,0,0-2.752-4.232.685.685,0,1,1,1.1-.823,39.2,39.2,0,0,1,2.852,4.386.686.686,0,0,1-.263.933.709.709,0,0,1-.226.079A.686.686,0,0,1,1466.779,429.36Zm-33.131,3.869-.335-.8a20.658,20.658,0,0,1-1.239-4.247.686.686,0,0,1,.555-.8h.011a.685.685,0,0,1,.784.556,19.232,19.232,0,0,0,1.156,3.963l.329.785a.685.685,0,1,1-1.261.535Zm27.074-11.9a30.082,30.082,0,0,0-3.84-3.234.685.685,0,0,1,.79-1.12,31.446,31.446,0,0,1,4.016,3.38.686.686,0,0,1-.966.974Zm-28.225,2.3a.686.686,0,0,1-.594-.766,12.577,12.577,0,0,1,1.742-5.1.686.686,0,0,1,1.165.723,11.223,11.223,0,0,0-1.547,4.553.685.685,0,0,1-.571.591A.706.706,0,0,1,1432.5,423.627Zm20.044-8.008a21.906,21.906,0,0,0-4.743-1.488.686.686,0,0,1,.257-1.347,23.3,23.3,0,0,1,5.039,1.581.685.685,0,0,1-.168,1.3A.671.671,0,0,1,1452.541,415.619Zm-15.218-.66a.686.686,0,0,1,.269-.932,13.379,13.379,0,0,1,5.154-1.554.684.684,0,0,1,.749.614.692.692,0,0,1-.615.75,12.018,12.018,0,0,0-4.625,1.39.686.686,0,0,1-.932-.268Z" fill="#2175fb"/>
        </g>
      </g>
      <g id="Group_161" data-name="Group 161">
        <g id="Group_159" data-name="Group 159">
          <g id="Group_158" data-name="Group 158">
            <path id="Path_216" data-name="Path 216" d="M1542.567,387.863h-6.686a.831.831,0,0,1,0-1.663h6.686a.831.831,0,0,1,0,1.663Zm-13.267,0h-6.582a.831.831,0,0,1,0-1.663h6.582a.831.831,0,0,1,0,1.663Zm-13.163,0h-6.58a.831.831,0,1,1,0-1.663h6.58a.831.831,0,0,1,0,1.663Zm-13.162,0h-6.581a.831.831,0,0,1,0-1.663h6.581a.831.831,0,1,1,0,1.663Zm-13.162,0h-6.581a.831.831,0,1,1,0-1.663h6.581a.831.831,0,0,1,0,1.663Zm-13.163,0h-6.581a.831.831,0,0,1,0-1.663h6.581a.831.831,0,1,1,0,1.663Zm-13.162,0h-6.58a.831.831,0,1,1,0-1.663h6.58a.831.831,0,0,1,0,1.663Zm-13.162,0h-6.581a.831.831,0,0,1,0-1.663h6.581a.831.831,0,1,1,0,1.663Zm-13.162,0h-3.633a27.4,27.4,0,0,1-3.034-.169.831.831,0,1,1,.185-1.652,25.753,25.753,0,0,0,2.849.158h3.633a.831.831,0,0,1,0,1.663Zm111.909-.843a.831.831,0,0,1-.208-1.635,25.226,25.226,0,0,0,5.9-2.364.831.831,0,1,1,.808,1.453,26.863,26.863,0,0,1-6.285,2.52A.853.853,0,0,1,1549.073,387.02Zm-124.863-.865a.834.834,0,0,1-.3-.055,26.99,26.99,0,0,1-5.974-3.191.831.831,0,1,1,.961-1.356,25.33,25.33,0,0,0,5.6,2.993.832.832,0,0,1-.3,1.609Zm136.245-5.459a.832.832,0,0,1-.572-1.435,25.474,25.474,0,0,0,4.033-4.911.831.831,0,0,1,1.406.886,27.064,27.064,0,0,1-4.3,5.232A.828.828,0,0,1,1560.455,380.7ZM1413.58,378.63a.826.826,0,0,1-.634-.293,27.1,27.1,0,0,1-3.7-5.665.831.831,0,1,1,1.5-.728,25.377,25.377,0,0,0,3.476,5.317.83.83,0,0,1-.633,1.369Zm153.811-8.955a.865.865,0,0,1-.253-.039.832.832,0,0,1-.538-1.046,25.344,25.344,0,0,0,1.158-6.245.84.84,0,0,1,.877-.783.831.831,0,0,1,.782.878,26.942,26.942,0,0,1-1.234,6.657A.831.831,0,0,1,1567.391,369.675Zm-159.508-2.751a.832.832,0,0,1-.814-.666,27.3,27.3,0,0,1-.539-5.4v-1.312a.831.831,0,1,1,1.662,0v1.312a25.566,25.566,0,0,0,.507,5.067.832.832,0,0,1-.65.98A.846.846,0,0,1,1407.883,366.924Zm160.749-10.28a.83.83,0,0,1-.831-.831v-6.581a.831.831,0,1,1,1.662,0v6.581A.831.831,0,0,1,1568.632,356.644Zm0-13.162a.83.83,0,0,1-.831-.831v-6.582a.831.831,0,1,1,1.662,0v6.582A.831.831,0,0,1,1568.632,343.482Zm0-13.162a.831.831,0,0,1-.831-.832v-6.581a.831.831,0,1,1,1.662,0v6.581A.832.832,0,0,1,1568.632,330.32Zm-161.271-2.845a.832.832,0,0,1-.831-.832v-5c0-.548.017-1.093.049-1.632a.831.831,0,0,1,1.659.1q-.045.762-.046,1.535v5A.831.831,0,0,1,1407.361,327.475ZM1568.1,317.2a.832.832,0,0,1-.814-.665,25.233,25.233,0,0,0-2.051-6.011.832.832,0,0,1,1.494-.731,26.839,26.839,0,0,1,2.186,6.409.831.831,0,0,1-.647.981A.888.888,0,0,1,1568.1,317.2Zm-159.481-2.749a.813.813,0,0,1-.255-.041.832.832,0,0,1-.537-1.046,26.952,26.952,0,0,1,2.874-6.133.831.831,0,0,1,1.405.889,25.287,25.287,0,0,0-2.7,5.754A.831.831,0,0,1,1408.617,314.446Zm153.762-8.945a.83.83,0,0,1-.633-.292,25.555,25.555,0,0,0-4.695-4.283.831.831,0,1,1,.958-1.358,27.116,27.116,0,0,1,5,4.563.831.831,0,0,1-.632,1.37Zm-146.8-2.063a.832.832,0,0,1-.57-1.436,27.092,27.092,0,0,1,5.466-3.994.831.831,0,1,1,.8,1.455,25.439,25.439,0,0,0-5.13,3.749A.832.832,0,0,1,1415.576,303.438ZM1551.734,298a.823.823,0,0,1-.294-.055,25.232,25.232,0,0,0-6.18-1.483.831.831,0,0,1,.182-1.653,26.87,26.87,0,0,1,6.587,1.582.831.831,0,0,1-.3,1.609Zm-124.766-.861a.831.831,0,0,1-.207-1.636,27.046,27.046,0,0,1,6.716-.856h0a.831.831,0,1,1,0,1.662,25.4,25.4,0,0,0-6.3.8A.838.838,0,0,1,1426.968,297.138Zm111.809-.83H1532.2a.831.831,0,1,1,0-1.662h6.581a.831.831,0,1,1,0,1.662Zm-13.162,0h-6.581a.831.831,0,1,1,0-1.662h6.581a.831.831,0,1,1,0,1.662Zm-13.163,0h-6.581a.831.831,0,0,1,0-1.662h6.581a.831.831,0,1,1,0,1.662Zm-13.162,0h-6.581a.831.831,0,1,1,0-1.662h6.581a.831.831,0,0,1,0,1.662Zm-13.163,0h-6.58a.831.831,0,1,1,0-1.662h6.58a.831.831,0,1,1,0,1.662Zm-13.161,0h-6.582a.831.831,0,1,1,0-1.662h6.582a.831.831,0,1,1,0,1.662Zm-13.163,0h-6.581a.831.831,0,1,1,0-1.662h6.581a.831.831,0,1,1,0,1.662Zm-13.162,0h-6.581a.831.831,0,1,1,0-1.662h6.581a.831.831,0,1,1,0,1.662Z" fill="#ed1c24"/>
            <g id="Group_157" data-name="Group 157">
              <g id="Group_156" data-name="Group 156">
                <g id="Group_151" data-name="Group 151">
                  <path id="Path_217" data-name="Path 217" d="M1401.968,334.264a.91.91,0,0,1-.77-1.392l1.932-3.084a.91.91,0,0,1,1.542.965l-1.932,3.084A.909.909,0,0,1,1401.968,334.264Z" fill="#ed1c24"/>
                </g>
                <g id="Group_152" data-name="Group 152">
                  <path id="Path_218" data-name="Path 218" d="M1380.642,368.308a.909.909,0,0,1-.77-1.392l3.554-5.674a.91.91,0,1,1,1.542.965l-3.554,5.674A.909.909,0,0,1,1380.642,368.308Zm7.108-11.348a.908.908,0,0,1-.769-1.392l3.555-5.675a.91.91,0,1,1,1.542.966l-3.555,5.675A.911.911,0,0,1,1387.75,356.96Zm7.11-11.348a.91.91,0,0,1-.77-1.392l3.554-5.675a.91.91,0,0,1,1.542.966l-3.554,5.674A.909.909,0,0,1,1394.86,345.612Z" fill="#ed1c24"/>
                </g>
                <g id="Group_153" data-name="Group 153">
                  <path id="Path_219" data-name="Path 219" d="M1372.154,379.24l4.163-6.649a180.724,180.724,0,0,0,2.63,1.053.908.908,0,0,1-.255,1.26Z" fill="#ed1c24"/>
                </g>
                <g id="Group_154" data-name="Group 154">
                  <path id="Path_220" data-name="Path 220" d="M1383.252,371.7a.909.909,0,0,1-.5-1.667l5.062-3.356a.909.909,0,1,1,1,1.516l-5.062,3.356A.907.907,0,0,1,1383.252,371.7Zm10.124-6.711a.91.91,0,0,1-.5-1.668l5.061-3.356a.909.909,0,0,1,1.005,1.516l-5.062,3.356A.9.9,0,0,1,1393.376,364.989Z" fill="#ed1c24"/>
                </g>
                <g id="Group_155" data-name="Group 155">
                  <path id="Path_221" data-name="Path 221" d="M1403.5,358.277a.91.91,0,0,1-.5-1.668l3.033-2.01a.909.909,0,1,1,1,1.516l-3.033,2.01A.9.9,0,0,1,1403.5,358.277Z" fill="#ed1c24"/>
                </g>
              </g>
            </g>
          </g>
          <path id="Path_222" data-name="Path 222" d="M1560.858,309.266H1453.93a25.69,25.69,0,0,0-25.69,25.689v38.494a25.689,25.689,0,0,0,25.69,25.689h69.556L1512.1,419l32.957-19.859h15.8a25.689,25.689,0,0,0,25.69-25.689V334.955A25.69,25.69,0,0,0,1560.858,309.266Z" fill="#ed1c24"/>
        </g>
        <g id="Group_160" data-name="Group 160">
          <path id="Path_223" data-name="Path 223" d="M1473.986,343.229a11.4,11.4,0,0,1-.933,4.539,20.955,20.955,0,0,1-2.424,4.2,34.412,34.412,0,0,1-3.357,3.885q-1.866,1.866-3.669,3.544-.933.871-2.02,1.959t-2.083,2.207q-.994,1.119-1.772,2.083a5.148,5.148,0,0,0-.963,1.585h18.526V375h-28.722a9.9,9.9,0,0,1-.125-1.741v-1.492a14.992,14.992,0,0,1,.964-5.471,20.425,20.425,0,0,1,2.518-4.631,29.091,29.091,0,0,1,3.512-4.01q1.959-1.866,3.886-3.731,1.492-1.428,2.8-2.7a30.618,30.618,0,0,0,2.3-2.487,11.363,11.363,0,0,0,1.554-2.425,5.8,5.8,0,0,0,.56-2.455,4.433,4.433,0,0,0-1.555-3.855,6.424,6.424,0,0,0-3.854-1.119,9.166,9.166,0,0,0-3.14.529,15.9,15.9,0,0,0-2.673,1.243,16.5,16.5,0,0,0-2.083,1.43q-.871.715-1.3,1.15l-4.6-6.466a23.447,23.447,0,0,1,6.373-4.2,18.688,18.688,0,0,1,7.8-1.648,21.669,21.669,0,0,1,6.528.871,12.231,12.231,0,0,1,4.507,2.455,9.539,9.539,0,0,1,2.612,3.855A14.754,14.754,0,0,1,1473.986,343.229Z" fill="#fff"/>
          <path id="Path_224" data-name="Path 224" d="M1507.371,331.914v25.863h4.6v7.585h-4.6V375h-9.078v-9.636H1479.7v-6.777q1.368-2.734,3.42-6.186t4.569-7.087q2.518-3.638,5.317-7.119a77.866,77.866,0,0,1,5.594-6.279Zm-9.078,11.315q-2.422,3.171-5.16,6.9a47.341,47.341,0,0,0-4.6,7.647h9.76Z" fill="#fff"/>
          <path id="Path_225" data-name="Path 225" d="M1519.1,380.317h-6.815l18.586-53.2h6.7Z" fill="#fff"/>
          <path id="Path_226" data-name="Path 226" d="M1545.466,375a62.165,62.165,0,0,1,1.554-9.45,90.4,90.4,0,0,1,2.891-9.636,81.238,81.238,0,0,1,3.823-8.922,55.272,55.272,0,0,1,4.29-7.243h-18.713v-7.9h30.152v6.714a41.6,41.6,0,0,0-4.382,6.031,69.853,69.853,0,0,0-4.539,8.735,80.671,80.671,0,0,0-3.73,10.476,54.2,54.2,0,0,0-1.959,11.19Z" fill="#fff"/>
        </g>
      </g>
      <g id="Group_163" data-name="Group 163">
        <rect id="Rectangle_260" data-name="Rectangle 260" width="53.422" height="44.318" rx="11.18" transform="translate(1185.688 434.705)" fill="#ed1c24"/>
        <g id="Group_162" data-name="Group 162">
          <path id="Path_227" data-name="Path 227" d="M1236.732,439,1222.2,453.534c-.25.25-.513.488-.776.713a13.855,13.855,0,0,1-18.051,0c-.262-.225-.525-.463-.776-.713l-1.026-1.027L1188.075,439a11.183,11.183,0,0,1,1.74-1.791l13.531,13.52,1.027,1.026a8.112,8.112,0,0,0,.788.7,11.336,11.336,0,0,0,14.484.013,10.462,10.462,0,0,0,.788-.714l1.027-1.014,13.519-13.532A11.3,11.3,0,0,1,1236.732,439Z" fill="#fff"/>
          <path id="Path_228" data-name="Path 228" d="M1204.373,451.756a8.112,8.112,0,0,0,.788.7l-1.79,1.79-17.112,17.112a11.32,11.32,0,0,1-.55-2.991l15.86-15.861,1.777-1.777Z" fill="#fff"/>
          <path id="Path_229" data-name="Path 229" d="M1239.085,468.368a11.276,11.276,0,0,1-.551,2.991l-17.112-17.112-1.777-1.777a10.462,10.462,0,0,0,.788-.714l1.027-1.014,1.765,1.765Z" fill="#fff"/>
        </g>
      </g>
      <g id="Group_169" data-name="Group 169">
        <g id="Group_167" data-name="Group 167">
          <g id="Group_164" data-name="Group 164">
            <path id="Path_230" data-name="Path 230" d="M1312.892,339.936a37.814,37.814,0,1,0-62.46,28.658,26.98,26.98,0,0,1,9.506,20.434h30.28a27.1,27.1,0,0,1,9.561-20.482A37.686,37.686,0,0,0,1312.892,339.936Z" fill="#96b3ff"/>
            <rect id="Rectangle_261" data-name="Rectangle 261" width="30.591" height="4.752" transform="translate(1259.783 391.573)" fill="#2175fb"/>
            <path id="Path_231" data-name="Path 231" d="M1282.083,407.524h-14.01a8.289,8.289,0,0,1-8.29-8.29h30.591A8.29,8.29,0,0,1,1282.083,407.524Z" fill="#2175fb"/>
          </g>
          <g id="Group_166" data-name="Group 166">
            <g id="Group_165" data-name="Group 165">
              <path id="Path_232" data-name="Path 232" d="M1268.312,327.82c-6.789,0-9.473,2.8-9.473,8.84,0,.555-1.055.555-1.055,0,0-6.035-2.148-8.84-9.473-8.84-.547,0-.547-1.057,0-1.057,7.551,0,9.472-3.5,9.472-8.829,0-.555,1.055-.555,1.055,0,0,6.352,2.571,8.829,9.473,8.829C1268.859,326.763,1268.859,327.82,1268.312,327.82Z" fill="#2175fb"/>
            </g>
          </g>
        </g>
        <g id="Group_168" data-name="Group 168">
          <path id="Path_233" data-name="Path 233" d="M1214.068,363.7c-.5-1.27-.971-2.579-1.394-3.89l16.455-5.314c.311.962.655,1.921,1.022,2.851Zm123.323-3.611-16.432-5.384c.315-.962.6-1.939.851-2.9l16.741,4.33C1338.211,357.448,1337.821,358.779,1337.391,360.087ZM1228.329,327.57l-16.748-4.306c.339-1.319.728-2.651,1.153-3.958l16.441,5.359C1228.862,325.626,1228.577,326.6,1228.329,327.57Zm92.676-2.833c-.312-.962-.657-1.92-1.026-2.848l16.073-6.38c.5,1.269.975,2.577,1.4,3.889Zm-76.66-22.314-11.012-13.333c1.055-.871,2.149-1.719,3.25-2.519l10.164,13.989C1245.933,301.152,1245.125,301.778,1244.345,302.423Zm59.117-1.824c-.813-.591-1.655-1.166-2.505-1.706l9.284-14.588c1.154.734,2.3,1.513,3.4,2.317Zm-31.384-9.129-1.058-17.26c1.344-.083,2.709-.124,4.058-.124l.271,0-.229,7.307v9.981h-.043C1274.081,291.378,1273.072,291.409,1272.078,291.47Z" fill="#2175fb"/>
        </g>
      </g>
      <g id="Group_185" data-name="Group 185">
        <g id="Group_184" data-name="Group 184" clip-path="url(#clip-path)">
          <g id="Group_183" data-name="Group 183">
            <g id="Group_182" data-name="Group 182">
              <path id="Path_234" data-name="Path 234" d="M1346.734,409.716c14.792-14.079,51.7-18.855,64.9,28.242,8.635,30.8,21.256,20.979,30.219,37.792,6.271,11.766.123,26.773,3.843,39.336,5.548,18.73,29.961,17.883,29.117,51.989-1.036,41.87-197.172,56.352-240.307,8.455-17.421-19.345,5.632-32.928,14.171-45.593,7.144-10.6-5.093-21.05-4.667-38.3s30.779-32.24,34.787-41.78c5.539-13.183,6.418-40.556,36.817-48.441C1333.86,396.685,1346.734,409.716,1346.734,409.716Z" fill="#24223c"/>
              <g id="Group_176" data-name="Group 176">
                <g id="Group_171" data-name="Group 171">
                  <path id="Path_235" data-name="Path 235" d="M1345.3,440.819c27.2,0,39.827,11.345,39.827,45.571,0,28.311-13.909,41.771-21.523,45.071l3.326,19.07,27.694,14.8,7.98,18.33-48.457,38.826-47.689-35.334,5.784-24.846,17.632-15.667.916-15.454s-19.389-14.388-18.783-38.888C1312.706,464.027,1316.495,440.819,1345.3,440.819Z" fill="#f4d37e"/>
                  <g id="Group_170" data-name="Group 170">
                    <path id="Path_236" data-name="Path 236" d="M1367.253,480.13c-.068,2.727-1.68,4.9-3.6,4.851s-3.425-2.3-3.358-5.023,1.68-4.9,3.6-4.852S1367.32,477.4,1367.253,480.13Z" fill="#2d2d2d"/>
                    <path id="Path_237" data-name="Path 237" d="M1337.443,479.454c-.067,2.727-1.68,4.9-3.6,4.852s-3.425-2.3-3.357-5.024,1.68-4.9,3.6-4.852S1337.511,476.727,1337.443,479.454Z" fill="#2d2d2d"/>
                    <path id="Path_238" data-name="Path 238" d="M1341.675,509.136s2.649-3.049,4.36-3.049a2.793,2.793,0,0,1,2.492,1.7s.975-1.421,2.207-1.421c1.688,0,4.385,3.179,4.385,3.179a7.863,7.863,0,0,1-7.005,4.29A7.315,7.315,0,0,1,1341.675,509.136Z" fill="#fc5b53"/>
                  </g>
                </g>
                <path id="Path_239" data-name="Path 239" d="M1347.2,441.246s-3.142,25.178,41.4,25.178l1.505-4.51a15.269,15.269,0,0,0,.8-4.2,26.627,26.627,0,0,0-19.04-26.572l-27.8-8.17L1317,431.389a26.255,26.255,0,0,0-19.478,29.537h0S1341.445,476.081,1347.2,441.246Z" fill="#24223c"/>
                <g id="Group_175" data-name="Group 175">
                  <path id="Path_240" data-name="Path 240" d="M1308.8,481.421a36.19,36.19,0,0,1-.533-6.162c0-20.714,17.432-34.013,38.936-34.013s38.935,13.3,38.935,34.013a36.411,36.411,0,0,1-.533,6.162h4.467c1.062-3.67,2.028-7.553,1.642-11.532-1.886-19.43-17.294-38.214-44.511-38.214-24.583,0-44.029,20.266-44.029,40.745a25.2,25.2,0,0,0,1.162,9Z" fill="#808285"/>
                  <g id="Group_174" data-name="Group 174">
                    <g id="Group_173" data-name="Group 173">
                      <g id="Group_172" data-name="Group 172">
                        <path id="Path_241" data-name="Path 241" d="M1340.213,525.207h-14.677c-9.807,0-17.785-6.273-17.785-25.4h2.052c0,15.639,7.058,23.349,15.733,23.349h14.677Z" fill="#808285"/>
                      </g>
                      <path id="Path_242" data-name="Path 242" d="M1348.972,524.181c0,1.795-2.711,3.249-6.054,3.249s-6.054-1.454-6.054-3.249,2.71-3.25,6.054-3.25S1348.972,522.386,1348.972,524.181Z" fill="#ed1c24"/>
                    </g>
                    <path id="Rectangle_262" data-name="Rectangle 262" d="M8.31,0h4.017a4.447,4.447,0,0,1,4.447,4.447V32.359a4.447,4.447,0,0,1-4.447,4.447H8.31A8.31,8.31,0,0,1,0,28.5V8.31A8.31,8.31,0,0,1,8.31,0Z" transform="translate(1295.434 476.162) rotate(-6.346)" fill="#ed1c24"/>
                    <path id="Rectangle_263" data-name="Rectangle 263" d="M8.31,0h4.017a4.447,4.447,0,0,1,4.447,4.447V32.359a4.447,4.447,0,0,1-4.447,4.447H8.31A8.31,8.31,0,0,1,0,28.5V8.31A8.31,8.31,0,0,1,8.31,0Z" transform="translate(1398.103 512.742) rotate(-173.654)" fill="#ed1c24"/>
                  </g>
                </g>
              </g>
              <g id="Group_181" data-name="Group 181">
                <g id="Group_178" data-name="Group 178">
                  <path id="Path_243" data-name="Path 243" d="M1350.068,596.529s25.081-19.835,23.7-29.609a36.017,36.017,0,0,0-6.838-16.389l39.9,22.173s15.67,110.234-1.4,143.9l-9.027,14.928s-40.932,21.173-93.468-2.313l-11.938-24.1-5.882-112.156s4.793-21.626,7.2-23.19,37.554-23.135,37.554-23.135-4.418,12.691-.913,24.141S1350.068,596.529,1350.068,596.529Z" fill="#628aec"/>
                  <g id="Group_177" data-name="Group 177">
                    <path id="Path_244" data-name="Path 244" d="M1313.673,642.1s18.344,15.627,29.863,12.187a31.99,31.99,0,0,1-27.678-.1C1301.134,647.026,1313.673,642.1,1313.673,642.1Z" fill="#2175fb"/>
                    <path id="Path_245" data-name="Path 245" d="M1322.044,658.224l3.322,22.837,2.145,36.89,1.784,19.843s-14.913-1.749-17.555-4.834S1322.044,658.224,1322.044,658.224Z" fill="#2175fb"/>
                    <path id="Path_246" data-name="Path 246" d="M1379.061,657.938l-1.055,17.719L1377.4,700.2l9.35,35.087s5.7-.477,8.257-3.632S1379.061,657.938,1379.061,657.938Z" fill="#2175fb"/>
                    <path id="Path_247" data-name="Path 247" d="M1390,643.986s-19.094,14.7-30.429,10.7a31.991,31.991,0,0,0,27.649,1.273C1402.282,649.529,1390,643.986,1390,643.986Z" fill="#2175fb"/>
                  </g>
                </g>
                <g id="Group_179" data-name="Group 179">
                  <path id="Path_248" data-name="Path 248" d="M1454.11,778.617c-2.433-.061-32.209,10.631-43.739,9.128,0,0-26.776-81.1-28.225-96.36s-11.664-130.875-15.216-140.854c0,0,61.568,23.288,67.785,33.791s15.457,56.631,15.457,56.631l13.857,53.3s-27.518,14.3-35.382,12.279-11.4-4.51-11.4-4.51Z" fill="#ec1c23"/>
                  <path id="Path_249" data-name="Path 249" d="M1329.874,546.636s-8.174,225.682-24.01,243.158l-51.929-17.921,16.5-19.308,11.862-45.3s-5.9,3.551-12.012,1.552-26.637-12.629-26.637-12.629l14.447-52.043s7.982-43.9,13.96-62.6C1288.082,568.507,1307.184,557.812,1329.874,546.636Z" fill="#ec1c23"/>
                </g>
                <g id="Group_180" data-name="Group 180">
                  <path id="Path_250" data-name="Path 250" d="M1403.636,612.017s6.3,87.19,13.614,90.01c1.482,3.507,3.465,7.2,3.465,7.2l-10.239-7.419-7.06-31.475Z" fill="#be1e2d"/>
                  <path id="Path_251" data-name="Path 251" d="M1290.535,609.218s3.062,87.11-4.388,89.565c-1.654,3.43-3.816,7.019-3.816,7.019l10.593-6.9,1.628-24.951Z" fill="#be1e2d"/>
                </g>
              </g>
            </g>
          </g>
        </g>
      </g>
    </g>
    <g id="Group_214" data-name="Group 214">
      <g id="Group_187" data-name="Group 187">
        <path id="Path_252" data-name="Path 252" d="M1128.7,760.449c0,3.753-17.012,6.8-38,6.8s-38-3.042-38-6.8,17.011-6.794,38-6.794S1128.7,756.7,1128.7,760.449Z" fill="#96b3ff"/>
      </g>
      <g id="Group_213" data-name="Group 213">
        <g id="Group_191" data-name="Group 191">
          <g id="Group_188" data-name="Group 188">
            <path id="Path_253" data-name="Path 253" d="M1126.211,762.325c-8.085,2.448-20.6,2.276-29.377,0-2.081-.539-4-1.518-4.42-3.626l-8.352-41.9h54.921l-8.353,41.9C1130.21,760.807,1128.268,761.7,1126.211,762.325Z" fill="#2175fb"/>
          </g>
          <g id="Group_189" data-name="Group 189">
            <ellipse id="Ellipse_27" data-name="Ellipse 27" cx="27.375" cy="4.011" rx="27.375" ry="4.011" transform="translate(1084.233 712.79)" fill="#0f1d8f"/>
          </g>
          <g id="Group_190" data-name="Group 190">
            <path id="Path_254" data-name="Path 254" d="M1137.838,722.541a94,94,0,0,1-18.674,11.958c-1.891.914-3.9,1.836-5.129,3.539s-1.274,4.465.487,5.609c.745.484,1.854.834,1.852,1.721a1.667,1.667,0,0,1-.507,1.034c-1.857,2.122-4.669,3.134-6.832,4.943s-3.558,5.292-1.651,7.369a8.31,8.31,0,0,0,3.1,2.176c1.553.591,1.894,3.2,2.5,3.2a43.053,43.053,0,0,0,13.219-1.765,4.506,4.506,0,0,0,4.419-3.626Z" fill="#0f1d8f"/>
          </g>
        </g>
        <g id="Group_198" data-name="Group 198">
          <g id="Group_192" data-name="Group 192">
            <path id="Path_255" data-name="Path 255" d="M1102.041,507.887c-1.76-7.249-1.386-13.917-.173-21.277s4.456-14.3,11.79-12.932c7.019,1.307,9.545,9.846,9.948,16,.559,8.542-2.186,16.749-3.118,25.153-1.413,12.73,1.505,26.644,4.843,39.009,2.676,9.918,6.018,17.938,8.619,29.522a60.868,60.868,0,0,1-.292,26.6c-2.354,9.675-17.735,44.29-20.723,79.791-1.421-45.4-10.437-58.13-13.436-73.619-1.238-6.393-2.594-12.729-2.018-19.215,1.469-16.537,6.053-32.624,8.807-49S1106.2,525.027,1102.041,507.887Z" fill="#2175fb"/>
          </g>
          <g id="Group_197" data-name="Group 197">
            <g id="Group_193" data-name="Group 193">
              <path id="Path_256" data-name="Path 256" d="M1111.3,717.763a.78.78,0,0,1-.083,0,.962.962,0,0,1-.877-1.042c7.009-81.513,1.405-221.32,1.348-222.723a.962.962,0,1,1,1.923-.079c.058,1.4,5.666,141.333-1.353,222.967A.962.962,0,0,1,1111.3,717.763Z" fill="#08104e"/>
            </g>
            <g id="Group_194" data-name="Group 194">
              <path id="Path_257" data-name="Path 257" d="M1114.691,634.018h-.044a.961.961,0,0,1-.919-1.005c1.076-23.967,12.021-31.4,12.487-31.708a.963.963,0,0,1,1.057,1.609h0c-.106.071-10.593,7.3-11.62,30.186A.964.964,0,0,1,1114.691,634.018Z" fill="#08104e"/>
            </g>
            <g id="Group_195" data-name="Group 195">
              <path id="Path_258" data-name="Path 258" d="M1114.835,616.648a.964.964,0,0,1-.96-.907c-1.439-24.329-10.468-27.743-10.559-27.775a.968.968,0,0,1-.6-1.218.956.956,0,0,1,1.2-.611c.421.135,10.351,3.632,11.879,29.492a.961.961,0,0,1-.9,1.017Z" fill="#08104e"/>
            </g>
            <g id="Group_196" data-name="Group 196">
              <path id="Path_259" data-name="Path 259" d="M1114.75,586.747c-.031,0-.062,0-.093,0a.962.962,0,0,1-.866-1.051c1.812-18.866,7.792-24.341,8.045-24.565a.963.963,0,0,1,1.279,1.44c-.082.075-5.685,5.381-7.408,23.31A.962.962,0,0,1,1114.75,586.747Z" fill="#08104e"/>
            </g>
          </g>
        </g>
        <g id="Group_205" data-name="Group 205">
          <g id="Group_199" data-name="Group 199">
            <path id="Path_260" data-name="Path 260" d="M1051.351,574.815c-2.114-5.233-11.218-25.027-9.734-31.783,3.916,1.561,14.815,18.451,18.4,26.015,4.353,8.794,12.838,21.849,18.657,29.847,4.676,6.4,7.332,8.082,10.831,15.277,2.584,5.1,6.6,26.3,6.888,33.928.614,14.235-3.076,17.056,1.086,43.937-8.883-33.806-27.812-53.941-30.874-63.956-3.516-11.423-3.617-16.063-6.325-28.275C1057.416,587.627,1058.038,590.707,1051.351,574.815Z" fill="#2175fb"/>
          </g>
          <g id="Group_204" data-name="Group 204">
            <g id="Group_200" data-name="Group 200">
              <path id="Path_261" data-name="Path 261" d="M1101.126,718.726a.964.964,0,0,1-.959-.886c-4.78-60.578-44.274-144.951-47.948-149.626a.934.934,0,0,1-.233-.194.963.963,0,0,1,.089-1.359,1.038,1.038,0,0,1,1.035-.17c1.623.66,13.278,25.321,23.5,52.181,10.167,26.715,22.84,65.58,25.478,99.015a.963.963,0,0,1-.884,1.036C1101.177,718.725,1101.152,718.726,1101.126,718.726ZM1053.34,568.113a1.007,1.007,0,0,1-.145.1A.914.914,0,0,0,1053.34,568.113Zm0,0h0Z" fill="#08104e"/>
            </g>
            <g id="Group_201" data-name="Group 201">
              <path id="Path_262" data-name="Path 262" d="M1088.029,656.073a.964.964,0,0,1-.931-.721c-4.468-17.213.809-25.917,1.682-26.468a.963.963,0,0,1,1.257,1.426c-.254.355-5.406,7.873-1.075,24.559a.961.961,0,0,1-.69,1.173A.924.924,0,0,1,1088.029,656.073Z" fill="#08104e"/>
            </g>
            <g id="Group_202" data-name="Group 202">
              <path id="Path_263" data-name="Path 263" d="M1084.161,643.383a.963.963,0,0,1-.9-.608c-6.506-16.413-13.336-17.168-14.094-17.2a1,1,0,0,1-.935-.8l.948-.167.06-.96c1.452.061,9,1.235,15.812,18.415a.961.961,0,0,1-.9,1.317Z" fill="#08104e"/>
            </g>
            <g id="Group_203" data-name="Group 203">
              <path id="Path_264" data-name="Path 264" d="M1076.671,621.829a.961.961,0,0,1-.93-.718c-3.626-13.735-1.426-19.979-.537-20.335a.962.962,0,0,1,1.2,1.356c-.137.314-2.234,5.488,1.2,18.488a.963.963,0,0,1-.685,1.177A1,1,0,0,1,1076.671,621.829Z" fill="#08104e"/>
            </g>
          </g>
        </g>
        <g id="Group_212" data-name="Group 212">
          <g id="Group_206" data-name="Group 206">
            <path id="Path_265" data-name="Path 265" d="M1161.783,617.818c2.74-3.181,15.051-14.233,20.529-13.7-.64,3.092-9.99,13.978-13.7,18.48-4.682,5.154-9.792,14.871-11.784,21.325-1.635,5.177-1.274,7.381-3.454,12.149-1.662,3.264-10.254,14.448-13.436,18.536-5.946,7.43-12.479,10.124-18.773,28.655,4.2-24.205,7.583-47.776,12.19-54.781,5.042-7.618,7.945-9.781,14.708-16.292C1155.044,625.9,1152.969,627.256,1161.783,617.818Z" fill="#628aec"/>
          </g>
          <g id="Group_211" data-name="Group 211">
            <g id="Group_207" data-name="Group 207">
              <path id="Path_266" data-name="Path 266" d="M1117.615,718.726a.987.987,0,0,1-.193-.019.963.963,0,0,1-.752-1.135c4.652-22.934,14.772-49.267,26.408-68.724a186.035,186.035,0,0,1,22.193-30.78c.561-.642,1.095-1.252,1.286-1.5a.966.966,0,0,1,1.154-.578.983.983,0,0,1,.673.659c.175.584.14.623-1.664,2.685a184.174,184.174,0,0,0-21.978,30.483c-11.543,19.3-21.572,45.4-26.184,68.136A.964.964,0,0,1,1117.615,718.726Z" fill="#08104e"/>
            </g>
            <g id="Group_208" data-name="Group 208">
              <path id="Path_267" data-name="Path 267" d="M1131.38,675.092a.963.963,0,0,1-.866-1.382c5.4-11.154,12.833-12.234,14.269-12.337l.1.957.963.034a1,1,0,0,1-.925.93c-.766.054-7.634.838-12.673,11.255A.962.962,0,0,1,1131.38,675.092Z" fill="#08104e"/>
            </g>
            <g id="Group_209" data-name="Group 209">
              <path id="Path_268" data-name="Path 268" d="M1135.278,666.512a.963.963,0,0,1-.89-1.33c4.756-11.516,1.932-15.795,1.711-16.1a.963.963,0,0,1,1.043-1.582c.057.024,4.931,4.116-.975,18.416A.961.961,0,0,1,1135.278,666.512Z" fill="#08104e"/>
            </g>
            <g id="Group_210" data-name="Group 210">
              <path id="Path_269" data-name="Path 269" d="M1142.859,652.159a.963.963,0,0,1-.766-1.545c5.591-7.369,10.163-8.486,11.431-8.653l.18.946.944.187a1.037,1.037,0,0,1-.872.777c-.77.1-4.876.958-10.149,7.907A.961.961,0,0,1,1142.859,652.159Z" fill="#08104e"/>
            </g>
          </g>
        </g>
      </g>
    </g>
  </g>
</svg>
