<svg xmlns="http://www.w3.org/2000/svg" xmlns:xlink="http://www.w3.org/1999/xlink" width="78.857" height="82.876" viewBox="0 0 78.857 82.876">
  <defs>
    <clipPath id="clip-path">
      <path id="path150" d="M356.478-211.35h4.939v2.591h-4.939Z"/>
    </clipPath>
    <clipPath id="clip-path-2">
      <path id="path190" d="M358.366-223.629a5.048,5.048,0,0,1-1.476,2.5c-1.139.825-1.552,4.092.647,5.437h2.555a4.712,4.712,0,0,1-2.76-5.791c.693-.409,1.035-2.147,1.035-2.147"/>
    </clipPath>
    <clipPath id="clip-path-3">
      <path id="path210" d="M362.938-223.565s.788,2.179-.264,3.436a2.781,2.781,0,0,0,.529,4.408,2.512,2.512,0,0,1,.471-3s2.487-3.155-.588-4.841h-.148"/>
    </clipPath>
    <clipPath id="clip-path-4">
      <path id="path230" d="M351.311-214.55H366.09a5.555,5.555,0,0,1-3.673,2.325H354.9a7.619,7.619,0,0,1-3.584-2.325"/>
    </clipPath>
    <clipPath id="clip-path-5">
      <path id="path254" d="M355.219-212.242h7.543a1.746,1.746,0,0,1-1.495.892h-4.495a1.8,1.8,0,0,1-1.553-.892"/>
    </clipPath>
    <clipPath id="clip-path-6">
      <path id="path278" d="M353.454-222.278a2.069,2.069,0,0,1-.8,1.884,2.887,2.887,0,0,0,2.527,4.655c-.676-.913-2.065-1.647-1.227-4.583.567-1.979-.5-1.956-.5-1.956"/>
    </clipPath>
  </defs>
  <g id="g10" transform="translate(-319.345 231.018)">
    <g id="g136" transform="translate(397.655 -181.206)">
      <path id="path138" d="M0,0V-49.265H-77.764V.145s3.467,23.132,38.6,32.372h.581C-3.449,23.277,0,0,0,0" fill="#ed1c24"/>
    </g>
    <g id="g140" transform="translate(397.655 -181.206)">
      <path id="path142" d="M0,0V-49.265H-77.764V.145s3.467,23.132,38.6,32.372h.581C-3.449,23.277,0,0,0,0Z" fill="none" stroke="#926c36" stroke-miterlimit="3.864" stroke-width="1.093"/>
    </g>
    <path id="path144" d="M356.478-208.759h4.939v-2.591h-4.939Z" fill="#926c36"/>
    <g id="g146">
      <g id="g148" clip-path="url(#clip-path)">
        <g id="g154" transform="translate(356.247 -212.275)">
          <path id="path156" d="M0,0S-.164.72.9,1.005a2.109,2.109,0,0,0,0,1.956L.815,4.211-1.047,2.961-1.249,0H0" fill="#231f20"/>
        </g>
        <g id="g158" transform="translate(356.247 -212.275)">
          <path id="path160" d="M0,0S-.164.72.9,1.005a2.109,2.109,0,0,0,0,1.956L.815,4.211-1.047,2.961-1.249,0Z" fill="none" stroke="#231f20" stroke-miterlimit="3.864" stroke-width="0.251"/>
        </g>
      </g>
    </g>
    <g id="g162" transform="translate(356.478 -211.35)">
      <path id="path164" d="M0,0H4.939V2.591H0Z" fill="none" stroke="#231f20" stroke-miterlimit="3.864" stroke-width="0.251"/>
    </g>
    <g id="g166" transform="translate(354.202 -220.951)">
      <path id="path168" d="M0,0A1.23,1.23,0,0,0-.728-1.359,1.692,1.692,0,0,1-1.5.34,3.863,3.863,0,0,0-2.836,5.312H.923L0,0" fill="#926c36"/>
    </g>
    <g id="g170" transform="translate(354.202 -220.951)">
      <path id="path172" d="M0,0A1.23,1.23,0,0,0-.728-1.359,1.692,1.692,0,0,1-1.5.34,3.863,3.863,0,0,0-2.836,5.312H.923Z" fill="none" stroke="#231f20" stroke-miterlimit="3.864" stroke-width="0.355"/>
    </g>
    <g id="g174" transform="translate(359.087 -227.515)">
      <path id="path176" d="M0,0A8.272,8.272,0,0,1-3.72,5.012s-4.055,3.151-.388,6.767H5.469s2.789-2.867,0-5.6c0,0-.949-2.011-1.844-2.4C1.9.892.015-.067,0,0" fill="#926c36"/>
    </g>
    <g id="g178" transform="translate(359.087 -227.515)">
      <path id="path180" d="M0,0A8.272,8.272,0,0,1-3.72,5.012s-4.055,3.151-.388,6.767H5.469s2.789-2.867,0-5.6c0,0-.949-2.011-1.844-2.4C1.9.892.015-.067,0,0Z" fill="none" stroke="#231f20" stroke-miterlimit="3.864" stroke-width="0.355"/>
    </g>
    <g id="g182" transform="translate(358.366 -223.629)">
      <path id="path184" d="M0,0A5.041,5.041,0,0,1-1.476,2.5c-1.139.827-1.552,4.093.648,5.439H1.725a4.714,4.714,0,0,1-2.76-5.792C-.34,1.737,0,0,0,0" fill="#ed1c24"/>
    </g>
    <g id="g186">
      <g id="g188" clip-path="url(#clip-path-2)">
        <g id="g194" transform="translate(356.362 -216.914)">
          <path id="path196" d="M0,0C-.171-.64,1.321,1.609,2.26.683l-.044-.3,1.227.811H1.152S.169.64,0,0" fill="#231f20"/>
        </g>
      </g>
    </g>
    <g id="g198" transform="translate(358.366 -223.629)">
      <path id="path200" d="M0,0A5.041,5.041,0,0,1-1.476,2.5c-1.139.827-1.552,4.093.648,5.439H1.725a4.714,4.714,0,0,1-2.76-5.792C-.34,1.737,0,0,0,0Z" fill="none" stroke="#231f20" stroke-miterlimit="3.864" stroke-width="0.251"/>
    </g>
    <g id="g202" transform="translate(362.938 -223.565)">
      <path id="path204" d="M0,0S.788,2.179-.264,3.436A2.782,2.782,0,0,0,.265,7.844a2.512,2.512,0,0,1,.471-3S3.223,1.685.148,0H0" fill="#ed1c24"/>
    </g>
    <g id="g206">
      <g id="g208" clip-path="url(#clip-path-3)">
        <g id="g214" transform="translate(363.162 -218.065)">
          <path id="path216" d="M0,0S-1.481,1.279-.085,2.216L-.256,1.023,0,0" fill="#231f20"/>
        </g>
      </g>
    </g>
    <g id="g218" transform="translate(362.938 -223.565)">
      <path id="path220" d="M0,0S.788,2.179-.264,3.436A2.782,2.782,0,0,0,.265,7.844a2.512,2.512,0,0,1,.471-3S3.223,1.685.148,0Z" fill="none" stroke="#231f20" stroke-miterlimit="3.864" stroke-width="0.251"/>
    </g>
    <g id="g222" transform="translate(351.311 -214.55)">
      <path id="path224" d="M0,0H14.777a5.554,5.554,0,0,1-3.672,2.327H3.584A7.61,7.61,0,0,1,0,0" fill="#926c36"/>
    </g>
    <g id="g226">
      <g id="g228" clip-path="url(#clip-path-4)">
        <g id="g234" transform="translate(354.711 -214.802)">
          <path id="path236" d="M0,0A1.712,1.712,0,0,0,.965,2.568l-1.943.719L-4.061,0H0" fill="#231f20"/>
        </g>
        <g id="g238" transform="translate(354.711 -214.802)">
          <path id="path240" d="M0,0A1.712,1.712,0,0,0,.965,2.568l-1.943.719L-4.061,0Z" fill="none" stroke="#231f20" stroke-miterlimit="3.864" stroke-width="0.251"/>
        </g>
      </g>
    </g>
    <g id="g242" transform="translate(351.311 -214.55)">
      <path id="path244" d="M0,0H14.777a5.554,5.554,0,0,1-3.672,2.327H3.584A7.61,7.61,0,0,1,0,0Z" fill="none" stroke="#231f20" stroke-miterlimit="3.864" stroke-width="0.251"/>
    </g>
    <g id="g246" transform="translate(355.219 -212.242)">
      <path id="path248" d="M0,0H7.543A1.746,1.746,0,0,1,6.048.892H1.553A1.8,1.8,0,0,1,0,0" fill="#926c36"/>
    </g>
    <g id="g250">
      <g id="g252" clip-path="url(#clip-path-5)">
        <g id="g258" transform="translate(356.247 -212.275)">
          <path id="path260" d="M0,0S-.164.72.9,1.005a2.109,2.109,0,0,0,0,1.956L.815,4.211-1.047,2.961-1.249,0H0" fill="#231f20"/>
        </g>
        <g id="g262" transform="translate(356.247 -212.275)">
          <path id="path264" d="M0,0S-.164.72.9,1.005a2.109,2.109,0,0,0,0,1.956L.815,4.211-1.047,2.961-1.249,0Z" fill="none" stroke="#231f20" stroke-miterlimit="3.864" stroke-width="0.251"/>
        </g>
      </g>
    </g>
    <g id="g266" transform="translate(355.219 -212.242)">
      <path id="path268" d="M0,0H7.543A1.746,1.746,0,0,1,6.048.892H1.553A1.8,1.8,0,0,1,0,0Z" fill="none" stroke="#231f20" stroke-miterlimit="3.864" stroke-width="0.251"/>
    </g>
    <g id="g270" transform="translate(353.454 -222.278)">
      <path id="path272" d="M0,0A2.069,2.069,0,0,1-.8,1.884,2.888,2.888,0,0,0,1.731,6.539C1.055,5.625-.333,4.892.5,1.956,1.071-.023,0,0,0,0" fill="#ed1c24"/>
    </g>
    <g id="g274">
      <g id="g276" clip-path="url(#clip-path-6)">
        <g id="g282" transform="translate(352.919 -216.573)">
          <path id="path284" d="M0,0C-.291-.247,1.577,1.1,1.663.171l.681.64S1.449,1.225,0,0" fill="#231f20"/>
        </g>
      </g>
    </g>
    <g id="g286" transform="translate(353.454 -222.278)">
      <path id="path288" d="M0,0A2.069,2.069,0,0,1-.8,1.884,2.888,2.888,0,0,0,1.731,6.539C1.055,5.625-.333,4.892.5,1.956,1.071-.023,0,0,0,0Z" fill="none" stroke="#231f20" stroke-miterlimit="3.864" stroke-width="0.251"/>
    </g>
    <g id="g290" transform="translate(350.443 -215.285)">
      <path id="path292" d="M0,0A.451.451,0,0,1,.452-.451h15.6A.45.45,0,0,1,16.505,0V.283a.451.451,0,0,1-.451.452H.452A.452.452,0,0,1,0,.283V0" fill="#926c36"/>
    </g>
    <g id="g294" transform="translate(350.443 -215.285)">
      <path id="path296" d="M0,0A.451.451,0,0,1,.452-.451h15.6A.45.45,0,0,1,16.505,0V.283a.451.451,0,0,1-.451.452H.452A.452.452,0,0,1,0,.283Z" fill="none" stroke="#231f20" stroke-miterlimit="3.864" stroke-width="0.251"/>
    </g>
    <g id="g298" transform="translate(329.432 -172.845)">
      <path id="path300" d="M0,0S7.872,7.94,5.413,11.06c0,0,3.187-.288,2.417-5.539,0,0,3.567.76,4.016,3.852,0,0,2.168-4.805-2.765-5.484L0,0" fill="#fff"/>
    </g>
    <g id="g302" transform="translate(388.899 -172.845)">
      <path id="path304" d="M0,0S-7.872,7.94-5.412,11.06c0,0-3.188-.288-2.419-5.539,0,0-3.567.76-4.016,3.852,0,0-2.167-4.805,2.767-5.484L0,0" fill="#fff"/>
    </g>
    <g id="g306" transform="translate(355.776 -199.478)">
      <path id="path308" d="M0,0,1.465,15.481l-1.48.981s-2.98.007-11.213,1.911a4.116,4.116,0,0,1-2.036.351L-11.511.044a.947.947,0,0,0,.852-.219L0,0" fill="#fff"/>
    </g>
    <g id="g310" transform="translate(355.776 -199.478)">
      <path id="path312" d="M0,0,1.465,15.481l-1.48.981s-2.98.007-11.213,1.911a4.116,4.116,0,0,1-2.036.351L-11.511.044a.947.947,0,0,0,.852-.219Z" fill="none" stroke="#231f20" stroke-miterlimit="3.864" stroke-width="0.355"/>
    </g>
    <g id="g314" transform="translate(356.419 -205.695)">
      <path id="path316" d="M0,0,1.725,20.232,0,21.723s-3-1.233-10.6,1.807c-.493.2-.749.053-1.427.053l1.072-23.1a1.3,1.3,0,0,1,.395-.613C-9.317-.207-7.833,1.6-6.681.832A7.491,7.491,0,0,1,0,0" fill="#fff"/>
    </g>
    <g id="g318" transform="translate(356.419 -205.695)">
      <path id="path320" d="M0,0,1.725,20.232,0,21.723s-3-1.233-10.6,1.807c-.493.2-.749.053-1.427.053l1.072-23.1a1.3,1.3,0,0,1,.395-.613C-9.317-.207-7.833,1.6-6.681.832A7.491,7.491,0,0,1,0,0Z" fill="none" stroke="#231f20" stroke-miterlimit="3.864" stroke-width="0.355"/>
    </g>
    <g id="g322" transform="translate(357.646 -207.274)">
      <path id="path324" d="M0,0,1.289,20.568.272,21.809S-3.4,20.324-12.133,24.177L-11.52,1.14s.132-.483.527-.525C-9.755.539-7.833,1.6-6.68.833A7.491,7.491,0,0,1,0,0" fill="#fff"/>
    </g>
    <g id="g326" transform="translate(357.646 -207.274)">
      <path id="path328" d="M0,0,1.289,20.568.272,21.809S-3.4,20.324-12.133,24.177L-11.52,1.14s.132-.483.527-.525C-9.755.539-7.833,1.6-6.68.833A7.491,7.491,0,0,1,0,0Z" fill="none" stroke="#231f20" stroke-miterlimit="3.864" stroke-width="0.355"/>
    </g>
    <g id="g330" transform="translate(358.892 -209.046)">
      <path id="path332" d="M0,0V22.293s-7.031-1.579-12.2,1.9V1.948S-8.52,2.06-6.68.833A7.486,7.486,0,0,1,0,0" fill="#fff"/>
    </g>
    <g id="g334" transform="translate(358.892 -209.046)">
      <path id="path336" d="M0,0V22.293s-7.031-1.579-12.2,1.9V1.948S-8.52,2.06-6.68.833A7.486,7.486,0,0,1,0,0Z" fill="none" stroke="#231f20" stroke-miterlimit="3.864" stroke-width="0.355"/>
    </g>
    <g id="g338" transform="translate(360.303 -182.529)">
      <path id="path340" d="M0,0-.013,2.259c0,2.495-.569,4.516-1.271,4.516S-2.555,4.753-2.555,2.259V0H0" fill="#926c36"/>
    </g>
    <g id="g342" transform="translate(360.303 -182.529)">
      <path id="path344" d="M0,0-.013,2.259c0,2.495-.569,4.516-1.271,4.516S-2.555,4.753-2.555,2.259V0Z" fill="none" stroke="#231f20" stroke-miterlimit="3.864" stroke-width="0.355"/>
    </g>
    <g id="g346" transform="translate(362.027 -199.478)">
      <path id="path348" d="M0,0-.723,15.537l.737.925s2.979.007,11.213,1.911a4.116,4.116,0,0,0,2.035.351L11.511.044a.95.95,0,0,1-.853-.219L0,0" fill="#fff"/>
    </g>
    <g id="g350" transform="translate(362.027 -199.478)">
      <path id="path352" d="M0,0-.723,15.537l.737.925s2.979.007,11.213,1.911a4.116,4.116,0,0,0,2.035.351L11.511.044a.95.95,0,0,1-.853-.219Z" fill="none" stroke="#231f20" stroke-miterlimit="3.864" stroke-width="0.355"/>
    </g>
    <g id="g354" transform="translate(361.383 -205.695)">
      <path id="path356" d="M0,0-1.433,20.232,0,21.723s3-1.233,10.6,1.807c.495.2.749.053,1.427.053L10.951.481a1.286,1.286,0,0,0-.395-.613C9.317-.207,7.833,1.6,6.681.832A7.491,7.491,0,0,0,0,0" fill="#fff"/>
    </g>
    <g id="g358" transform="translate(361.383 -205.695)">
      <path id="path360" d="M0,0-1.433,20.232,0,21.723s3-1.233,10.6,1.807c.495.2.749.053,1.427.053L10.951.481a1.286,1.286,0,0,0-.395-.613C9.317-.207,7.833,1.6,6.681.832A7.491,7.491,0,0,0,0,0Z" fill="none" stroke="#231f20" stroke-miterlimit="3.864" stroke-width="0.355"/>
    </g>
    <g id="g362" transform="translate(360.156 -207.274)">
      <path id="path364" d="M0,0-1.392,20.624,0,21.724s3.4-1.4,12.135,2.453L11.52,1.14s-.131-.483-.525-.525C9.755.539,7.833,1.6,6.68.833A7.491,7.491,0,0,0,0,0" fill="#fff"/>
    </g>
    <g id="g366" transform="translate(360.156 -207.274)">
      <path id="path368" d="M0,0-1.392,20.624,0,21.724s3.4-1.4,12.135,2.453L11.52,1.14s-.131-.483-.525-.525C9.755.539,7.833,1.6,6.68.833A7.491,7.491,0,0,0,0,0Z" fill="none" stroke="#231f20" stroke-miterlimit="3.864" stroke-width="0.355"/>
    </g>
    <g id="g370" transform="translate(358.91 -209.046)">
      <path id="path372" d="M0,0V22.293s7.031-1.579,12.2,1.9V1.948S8.52,2.06,6.68.833A7.486,7.486,0,0,0,0,0" fill="#fff"/>
    </g>
    <g id="g374" transform="translate(358.91 -209.046)">
      <path id="path376" d="M0,0V22.293s7.031-1.579,12.2,1.9V1.948S8.52,2.06,6.68.833A7.486,7.486,0,0,0,0,0Z" fill="none" stroke="#231f20" stroke-miterlimit="3.864" stroke-width="0.355"/>
    </g>
    <g id="g378" transform="translate(357.41 -182.246)">
      <path id="path380" d="M0,0H3.105A3.011,3.011,0,0,0,4.743-.791L1.483-4.464s-3.289,3.5-3.155,3.7A2.222,2.222,0,0,0,0,0" fill="#fff"/>
    </g>
    <g id="g382" transform="translate(357.41 -182.246)">
      <path id="path384" d="M0,0H3.105A3.011,3.011,0,0,0,4.743-.791L1.483-4.464s-3.289,3.5-3.155,3.7A2.222,2.222,0,0,0,0,0Z" fill="none" stroke="#231f20" stroke-miterlimit="3.864" stroke-width="0.355"/>
    </g>
    <g id="g386" transform="translate(346.872 -160.621)">
      <path id="path388" d="M0,0C.083-.385.155-1.136-1.048-1.459a1.091,1.091,0,0,0-1.469.748A.852.852,0,0,0-2,.293l.661.355c.531.285.667.445.571.805-.133.493-.721.428-1.057.339-.44-.119-.9-.436-.733-1.061L-3,.613a1.1,1.1,0,0,0,.116.968,1.411,1.411,0,0,0,.952.608c.589.16,1.408.137,1.625-.679A.926.926,0,0,0-.837.38L-1.76-.108a.45.45,0,0,1-.291-.545c.14-.523.656-.471.949-.395a.781.781,0,0,1,.665.931L0,0" fill="#fff"/>
    </g>
    <g id="g390" transform="translate(348.27 -161.357)">
      <path id="path392" d="M0,0-.471-.1l-.741,3.485.471.1Z" fill="#fff"/>
    </g>
    <g id="g394" transform="translate(350.846 -157.992)">
      <path id="path396" d="M0,0-.011,0-1.32-3.125l-.563-.088L-2.441.305-1.98.38l.451-2.844h.009L-.18.665.353.748l.559-3.52L.451-2.847Z" fill="#fff"/>
    </g>
    <g id="g398" transform="translate(353.754 -158.512)">
      <path id="path400" d="M0,0,1.108.1a1.1,1.1,0,0,1-.473.911,1.117,1.117,0,0,1-.747.163C-1.057,1.088-1.229.325-1.165-.4c.08-.931.649-1.393,1.287-1.337a1,1,0,0,1,1,.84l.464.04a1.437,1.437,0,0,0-1.4-1.305A1.719,1.719,0,0,0-1.66-.465a1.909,1.909,0,0,0,.429,1.548,1.436,1.436,0,0,0,1.052.5,1.459,1.459,0,0,0,1.221-.451l.073.471.312.025.165-1.9L.036-.411,0,0" fill="#fff"/>
    </g>
    <g id="g402" transform="translate(358.032 -157.801)">
      <path id="path404" d="M0,0,.335,1.041l.527.009L-.368-2.535l-.545-.009L-2.316,1l.5.009.391-1.031ZM-1.273-.451l.6-1.559h.009l.5,1.579Z" fill="#fff"/>
    </g>
    <g id="g406" transform="translate(359.819 -159.966)">
      <path id="path408" d="M0,0,.977-.035c.4-.015.709.12.725.571.017.48-.269.652-.7.665l-.959.035ZM.059,1.647l1.12-.04A.993.993,0,0,0,2.2.513.973.973,0,0,0,1.108-.451L-.5-.4l.125,3.563.48-.017-.051-1.5" fill="#fff"/>
    </g>
    <g id="g410" transform="translate(365.418 -159.085)">
      <path id="path412" d="M0,0A1.282,1.282,0,0,1-1.056,1.591C-1.824,1.685-2.363,1.136-2.464.3A1.282,1.282,0,0,1-1.409-1.288,1.285,1.285,0,0,1,0,0M.492-.06A1.725,1.725,0,0,0-1.461-1.709,1.725,1.725,0,0,0-2.957.363,1.727,1.727,0,0,0-1,2.016,1.726,1.726,0,0,0,.492-.06" fill="#fff"/>
    </g>
    <g id="g414" transform="translate(367.055 -159.062)">
      <path id="path416" d="M0,0,1.144-.223c.565-.108.691.215.745.5a4.48,4.48,0,0,0,.253.863l.58-.115L2.708.951C2.545.9,2.507.828,2.463.633L2.312.005C2.2-.476,1.981-.525,1.764-.571A.878.878,0,0,0,2.089-1.5c-.144-.74-.757-.828-1.333-.717l-1.619.315.681,3.5L.291,1.5ZM-.309-1.593.869-1.821a.547.547,0,0,1,.741.463c.1.517-.248.673-.593.743l-1.1.211L-.309-1.593" fill="#fff"/>
    </g>
    <g id="g418" transform="translate(372.9 -159.18)">
      <path id="path420" d="M0,0-2.085.519-2.373-.637l1.892-.471-.1-.413-1.892.471-.264-1.059,2.052-.512-.1-.413-2.517.628.861,3.457L.1.413Z" fill="#fff"/>
    </g>
    <g id="g422" transform="translate(349.048 -205.307)">
      <path id="path424" d="M0,0C-.249.041-.541.5.375.665A.585.585,0,0,0,.5.125.8.8,0,0,0,0,0" fill="#231f20"/>
    </g>
    <g id="g426" transform="translate(351.122 -205.598)">
      <path id="path428" d="M0,0S-.3-.333-.457-.084A1.544,1.544,0,0,1-.784.291s-.089.459.368.333S-.249.332-.249.332L0,0" fill="#231f20"/>
    </g>
    <g id="g430" transform="translate(351.454 -206.055)">
      <path id="path432" d="M0,0C-.373.124.168.5.543.373S.375-.125,0,0" fill="#231f20"/>
    </g>
    <g id="g434" transform="translate(352.454 -206.202)">
      <path id="path436" d="M0,0,.165-.188.332,0,.165.187Z" fill="#231f20"/>
    </g>
    <g id="g438" transform="translate(353.535 -206.639)">
      <path id="path440" d="M0,0S.048.416.333.292A1.34,1.34,0,0,1,.825.167h.208s0-.457-.167-.416S.616,0,.616,0H0" fill="#231f20"/>
    </g>
    <g id="g442" transform="translate(355.151 -206.847)">
      <path id="path444" d="M0,0,.187-.124.375,0,.187.125Z" fill="#231f20"/>
    </g>
    <g id="g446" transform="translate(356.026 -207.422)">
      <path id="path448" d="M0,0C.208-.125-.5.492.124.659L.249.492S-.208.125,0,0" fill="#231f20"/>
    </g>
    <g id="g450" transform="translate(355.567 -205.474)">
      <path id="path452" d="M0,0C.207-.124-.5.492.124.659L.249.492S-.209.125,0,0" fill="#231f20"/>
    </g>
    <g id="g454" transform="translate(348.882 -203.317)">
      <path id="path456" d="M0,0C-.249.041-.54.5.375.667A.585.585,0,0,0,.5.125.8.8,0,0,0,0,0" fill="#231f20"/>
    </g>
    <g id="g458" transform="translate(350.955 -203.607)">
      <path id="path460" d="M0,0S-.3-.333-.457-.084A1.511,1.511,0,0,1-.784.291s-.089.459.368.333S-.249.332-.249.332L0,0" fill="#231f20"/>
    </g>
    <g id="g462" transform="translate(351.288 -204.066)">
      <path id="path464" d="M0,0C-.375.125.165.5.54.375S.375-.124,0,0" fill="#231f20"/>
    </g>
    <g id="g466" transform="translate(352.287 -204.211)">
      <path id="path468" d="M0,0,.167-.188.332,0,.167.187Z" fill="#231f20"/>
    </g>
    <g id="g470" transform="translate(353.494 -204.558)">
      <path id="path472" d="M0,0S.007.373.291.249a1.759,1.759,0,0,0,.492-.34H.991s0-.457-.165-.416S.575-.257.575-.257L0,0" fill="#231f20"/>
    </g>
    <g id="g474" transform="translate(354.986 -204.981)">
      <path id="path476" d="M0,0,.187-.124.373,0,.187.125Z" fill="#231f20"/>
    </g>
    <g id="g478" transform="translate(355.859 -205.433)">
      <path id="path480" d="M0,0C.208-.124-.5.492.125.659L.249.492S-.208.125,0,0" fill="#231f20"/>
    </g>
    <g id="g482" transform="translate(351.912 -204.129)">
      <path id="path484" d="M0,0,.167-.188.332,0,.167.188Z" fill="#231f20"/>
    </g>
    <g id="g486" transform="translate(349.464 -203.525)">
      <path id="path488" d="M0,0C.207-.125-.5.492.124.659L.248.492S-.209.124,0,0" fill="#231f20"/>
    </g>
    <g id="g490" transform="translate(350.123 -201.659)">
      <path id="path492" d="M0,0C-.249.041-.54.5.375.667A.589.589,0,0,0,.5.124.8.8,0,0,0,0,0" fill="#231f20"/>
    </g>
    <g id="g494" transform="translate(351.371 -201.527)">
      <path id="path496" d="M0,0S-.388-.672-.548-.424a1.517,1.517,0,0,1-.325.376s-.091.457.367.332S-.34-.008-.34-.008L0,0" fill="#231f20"/>
    </g>
    <g id="g498" transform="translate(352.53 -202.409)">
      <path id="path500" d="M0,0C-.373.125.167.5.541.375S.376-.124,0,0" fill="#231f20"/>
    </g>
    <g id="g502" transform="translate(353.528 -202.554)">
      <path id="path504" d="M0,0,.167-.187.333,0,.167.187Z" fill="#231f20"/>
    </g>
    <g id="g506" transform="translate(354.319 -203.067)">
      <path id="path508" d="M0,0S.007.375.292.249a1.759,1.759,0,0,0,.492-.34H.992s0-.457-.167-.416S.576-.257.576-.257L0,0" fill="#231f20"/>
    </g>
    <g id="g510" transform="translate(356.102 -203.566)">
      <path id="path512" d="M0,0,.187-.125.375,0,.187.125Z" fill="#231f20"/>
    </g>
    <g id="g514" transform="translate(356.351 -203.691)">
      <path id="path516" d="M0,0C.208-.124-.5.492.125.66L.249.492S-.208.125,0,0" fill="#231f20"/>
    </g>
    <g id="g518" transform="translate(352.904 -202.658)">
      <path id="path520" d="M0,0C-.376.125.165.5.541.375S.373-.125,0,0" fill="#231f20"/>
    </g>
    <g id="g522" transform="translate(355.435 -203.365)">
      <path id="path524" d="M0,0,.188-.125.375,0,.188.124Z" fill="#231f20"/>
    </g>
    <g id="g526" transform="translate(355.768 -203.442)">
      <path id="path528" d="M0,0,.187-.125.375,0,.187.124Z" fill="#231f20"/>
    </g>
    <g id="g530" transform="translate(352.571 -200.411)">
      <path id="path532" d="M0,0C-.375.125.165.5.54.375S.375-.124,0,0" fill="#231f20"/>
    </g>
    <g id="g534" transform="translate(353.571 -200.557)">
      <path id="path536" d="M0,0,.167-.188.332,0,.167.187Z" fill="#231f20"/>
    </g>
    <g id="g538" transform="translate(354.776 -201.153)">
      <path id="path540" d="M0,0S.007.375.291.249a1.723,1.723,0,0,0,.493-.34H.992s0-.457-.167-.416S.576-.257.576-.257L0,0" fill="#231f20"/>
    </g>
    <g id="g542" transform="translate(356.143 -201.569)">
      <path id="path544" d="M0,0,.187-.125.375,0,.187.125Z" fill="#231f20"/>
    </g>
    <g id="g546" transform="translate(356.6 -201.527)">
      <path id="path548" d="M0,0C.208-.125-.743.208-.117.375l.5-.125S-.208.125,0,0" fill="#231f20"/>
    </g>
    <g id="g550" transform="translate(352.323 -200.535)">
      <path id="path552" d="M0,0C-.376.124.089.381.464.256S.373-.125,0,0" fill="#231f20"/>
    </g>
    <g id="g554" transform="translate(355.443 -201.218)">
      <path id="path556" d="M0,0C0-.152.092-.273.2-.273S.409-.152.409,0,.317.273.2.273,0,.151,0,0" fill="#231f20"/>
    </g>
    <g id="g558" transform="translate(355.727 -201.32)">
      <path id="path560" d="M0,0,.187-.124.375,0,.187.125Z" fill="#231f20"/>
    </g>
    <g id="g562" transform="translate(350.45 -199.793)">
      <path id="path564" d="M0,0C-.375.124.167.5.541.375S.375-.125,0,0" fill="#231f20"/>
    </g>
    <g id="g566" transform="translate(350.824 -200.044)">
      <path id="path568" d="M0,0C-.375.124.165.5.54.373S.375-.125,0,0" fill="#231f20"/>
    </g>
    <g id="g570" transform="translate(352.072 -200.411)">
      <path id="path572" d="M0,0C-.375.125-.035.465.339.34S.375-.124,0,0" fill="#231f20"/>
    </g>
    <g id="g574" transform="translate(353.446 -200.806)">
      <path id="path576" d="M0,0,.167-.187.333,0,.167.187Z" fill="#231f20"/>
    </g>
    <g id="g578" transform="translate(353.944 -201.153)">
      <path id="path580" d="M0,0C.208-.125-.5.492.125.659L.008.375S-.208.125,0,0" fill="#231f20"/>
    </g>
    <g id="g582" transform="translate(356.143 -201.694)">
      <path id="path584" d="M0,0C.208-.124-.5.492.125.659L.249.492S-.208.125,0,0" fill="#231f20"/>
    </g>
    <g id="g586" transform="translate(352.696 -195.882)">
      <path id="path588" d="M0,0C-.373.125.167.5.541.375S.375-.125,0,0" fill="#231f20"/>
    </g>
    <g id="g590" transform="translate(353.571 -195.778)">
      <path id="path592" d="M0,0,.167-.187.332,0,.167.188Z" fill="#231f20"/>
    </g>
    <g id="g594" transform="translate(354.776 -196.376)">
      <path id="path596" d="M0,0S.007.375.291.249a1.723,1.723,0,0,0,.493-.34H.992s0-.457-.167-.416S.576-.256.576-.256L0,0" fill="#231f20"/>
    </g>
    <g id="g598" transform="translate(356.018 -196.458)">
      <path id="path600" d="M0,0,.188-.125.375,0,.188.125Z" fill="#231f20"/>
    </g>
    <g id="g602" transform="translate(356.6 -196.749)">
      <path id="path604" d="M0,0C.208-.125-.368.249.256.416L.049.659S-.208.124,0,0" fill="#231f20"/>
    </g>
    <g id="g606" transform="translate(355.443 -196.441)">
      <path id="path608" d="M0,0C0-.151.092-.273.2-.273S.409-.151.409,0,.317.273.2.273,0,.152,0,0" fill="#231f20"/>
    </g>
    <g id="g610" transform="translate(355.727 -196.541)">
      <path id="path612" d="M0,0,.187-.124.375,0,.187.125Z" fill="#231f20"/>
    </g>
    <g id="g614" transform="translate(350.866 -195.348)">
      <path id="path616" d="M0,0C-.035.256-.243.713.131.589S.053-.391,0,0" fill="#231f20"/>
    </g>
    <g id="g618" transform="translate(351.24 -195.514)">
      <path id="path620" d="M0,0C-.375.124.167.5.541.373S.375-.125,0,0" fill="#231f20"/>
    </g>
    <g id="g622" transform="translate(352.238 -195.674)">
      <path id="path624" d="M0,0C-.375.125-.035.465.34.34S.375-.124,0,0" fill="#231f20"/>
    </g>
    <g id="g626" transform="translate(353.446 -196.028)">
      <path id="path628" d="M0,0,.167-.187.333,0,.167.188Z" fill="#231f20"/>
    </g>
    <g id="g630" transform="translate(353.944 -196.376)">
      <path id="path632" d="M0,0C.208-.124-.5.492.125.66L.008.375S-.208.125,0,0" fill="#231f20"/>
    </g>
    <g id="g634" transform="translate(356.184 -196.666)">
      <path id="path636" d="M0,0C.208-.125-.5.492.125.659L.249.492S-.208.124,0,0" fill="#231f20"/>
    </g>
    <g id="g638" transform="translate(354.152 -196.417)">
      <path id="path640" d="M0,0-.075.576.251.617Z" fill="#231f20"/>
    </g>
    <g id="g642" transform="translate(349.34 -195.176)">
      <path id="path644" d="M0,0C.332,0,.125.708-.208.708-.208.708-.333,0,0,0" fill="#231f20"/>
    </g>
    <g id="g646" transform="translate(349.756 -195.217)">
      <path id="path648" d="M0,0C.332,0,.125.708-.208.708-.208.708-.333,0,0,0" fill="#231f20"/>
    </g>
    <g id="g650" transform="translate(352.696 -193.969)">
      <path id="path652" d="M0,0C-.373.124.167.5.541.375S.375-.125,0,0" fill="#231f20"/>
    </g>
    <g id="g654" transform="translate(354.338 -194.176)">
      <path id="path656" d="M0,0,.167-.188.332,0,.167.188Z" fill="#231f20"/>
    </g>
    <g id="g658" transform="translate(354.092 -194.233)">
      <path id="path660" d="M0,0S.007.375.291.249a1.723,1.723,0,0,0,.493-.34H.991s0-.457-.165-.416S.576-.256.576-.256L0,0" fill="#231f20"/>
    </g>
    <g id="g662" transform="translate(356.018 -194.544)">
      <path id="path664" d="M0,0,.188-.125.375,0,.188.124Z" fill="#231f20"/>
    </g>
    <g id="g666" transform="translate(356.6 -194.836)">
      <path id="path668" d="M0,0C.208-.125-.368.249.256.416L.049.659S-.208.125,0,0" fill="#231f20"/>
    </g>
    <g id="g670" transform="translate(356.316 -194.516)">
      <path id="path672" d="M0,0A.22.22,0,0,1,.235-.2.221.221,0,0,1,.471,0,.221.221,0,0,1,.235.2.22.22,0,0,1,0,0" fill="#231f20"/>
    </g>
    <g id="g674" transform="translate(355.727 -194.628)">
      <path id="path676" d="M0,0,.187-.125.375,0,.187.124Z" fill="#231f20"/>
    </g>
    <g id="g678" transform="translate(350.699 -193.476)">
      <path id="path680" d="M0,0C-.035.257-.243.715.132.589S.052-.391,0,0" fill="#231f20"/>
    </g>
    <g id="g682" transform="translate(350.928 -193.476)">
      <path id="path684" d="M0,0C-.375.124.165.5.54.375S.375-.125,0,0" fill="#231f20"/>
    </g>
    <g id="g686" transform="translate(352.634 -193.864)">
      <path id="path688" d="M0,0C-.375.124-.035.464.34.34S.375-.125,0,0" fill="#231f20"/>
    </g>
    <g id="g690" transform="translate(354.546 -194.217)">
      <path id="path692" d="M0,0,.167-.188.333,0,.167.187Z" fill="#231f20"/>
    </g>
    <g id="g694" transform="translate(353.944 -194.461)">
      <path id="path696" d="M0,0C.208-.125-.5.492.125.659L.008.375S-.208.124,0,0" fill="#231f20"/>
    </g>
    <g id="g698" transform="translate(355.894 -194.981)">
      <path id="path700" d="M0,0C.208-.125-.5.492.124.659L.249.492S-.208.124,0,0" fill="#231f20"/>
    </g>
    <g id="g702" transform="translate(354.152 -194.502)">
      <path id="path704" d="M0,0-.075.576.251.617Z" fill="#231f20"/>
    </g>
    <g id="g706" transform="translate(349.258 -192.99)">
      <path id="path708" d="M0,0C.332,0,.124.707-.209.707-.209.707-.333,0,0,0" fill="#231f20"/>
    </g>
    <g id="g710" transform="translate(349.672 -193.198)">
      <path id="path712" d="M0,0C.333,0,.125.707-.207.707-.207.707-.332,0,0,0" fill="#231f20"/>
    </g>
    <g id="g714" transform="translate(352.682 -192.309)">
      <path id="path716" d="M0,0C-.291.145-.271.624.1.5S.353-.176,0,0" fill="#231f20"/>
    </g>
    <g id="g718" transform="translate(353.798 -192.312)">
      <path id="path720" d="M0,0,.167-.187.333,0,.167.188Z" fill="#231f20"/>
    </g>
    <g id="g722" transform="translate(355.152 -193.013)">
      <path id="path724" d="M0,0S-.2.585.081.46A1.79,1.79,0,0,0,.575.121H.783S.769-.1.6-.063a.474.474,0,0,1-.237.017L0,0" fill="#231f20"/>
    </g>
    <g id="g726" transform="translate(356.018 -192.804)">
      <path id="path728" d="M0,0,.188-.124.375,0,.188.125Z" fill="#231f20"/>
    </g>
    <g id="g730" transform="translate(356.6 -193.094)">
      <path id="path732" d="M0,0C.208-.124-.368.251.256.416L.049.659S-.208.125,0,0" fill="#231f20"/>
    </g>
    <g id="g734" transform="translate(355.443 -192.786)">
      <path id="path736" d="M0,0C0-.151.092-.275.2-.275S.409-.151.409,0,.317.273.2.273,0,.151,0,0" fill="#231f20"/>
    </g>
    <g id="g738" transform="translate(355.727 -192.886)">
      <path id="path740" d="M0,0,.187-.125.375,0,.187.125Z" fill="#231f20"/>
    </g>
    <g id="g742" transform="translate(350.72 -191.652)">
      <path id="path744" d="M0,0C-.035.256-.243.715.131.589S.053-.391,0,0" fill="#231f20"/>
    </g>
    <g id="g746" transform="translate(351.531 -191.881)">
      <path id="path748" d="M0,0C-.375.125.167.5.541.375S.375-.124,0,0" fill="#231f20"/>
    </g>
    <g id="g750" transform="translate(351.864 -192.041)">
      <path id="path752" d="M0,0C-.375.125-.035.465.34.34S.373-.124,0,0" fill="#231f20"/>
    </g>
    <g id="g754" transform="translate(354.422 -192.518)">
      <path id="path756" d="M0,0,.167-.188.333,0,.167.187Z" fill="#231f20"/>
    </g>
    <g id="g758" transform="translate(354.111 -192.865)">
      <path id="path760" d="M0,0C.208-.125-.5.492.125.659L.008.375S-.208.125,0,0" fill="#231f20"/>
    </g>
    <g id="g762" transform="translate(356.267 -193.177)">
      <path id="path764" d="M0,0C.209-.125-.5.492.125.66L.251.492S-.208.125,0,0" fill="#231f20"/>
    </g>
    <g id="g766" transform="translate(354.298 -192.845)">
      <path id="path768" d="M0,0-.076.575.251.616Z" fill="#231f20"/>
    </g>
    <g id="g770" transform="translate(349.278 -191.064)">
      <path id="path772" d="M0,0C.333,0,.124.708-.208.708-.208.708-.333,0,0,0" fill="#231f20"/>
    </g>
    <g id="g774" transform="translate(349.694 -191.23)">
      <path id="path776" d="M0,0C.333,0,.124.708-.208.708-.208.708-.333,0,0,0" fill="#231f20"/>
    </g>
    <g id="g778" transform="translate(352.82 -190.562)">
      <path id="path780" d="M0,0C-.375.124.167.5.541.375S.375-.125,0,0" fill="#231f20"/>
    </g>
    <g id="g782" transform="translate(353.756 -190.686)">
      <path id="path784" d="M0,0,.167-.187.333,0,.167.188Z" fill="#231f20"/>
    </g>
    <g id="g786" transform="translate(354.735 -190.681)">
      <path id="path788" d="M0,0S.007.375.292.249.584.2.584.2L.625-.195S.46-.4.293-.36A.584.584,0,0,0,.107-.3L0,0" fill="#231f20"/>
    </g>
    <g id="g790" transform="translate(356.372 -191.034)">
      <path id="path792" d="M0,0C.208-.125-.368.249.257.416L.048.659S-.208.125,0,0" fill="#231f20"/>
    </g>
    <g id="g794" transform="translate(350.658 -189.821)">
      <path id="path796" d="M0,0C-.035.257-.243.715.132.589S.053-.391,0,0" fill="#231f20"/>
    </g>
    <g id="g798" transform="translate(351.052 -189.986)">
      <path id="path800" d="M0,0C-.375.124.165.5.541.375S.375-.125,0,0" fill="#231f20"/>
    </g>
    <g id="g802" transform="translate(352.01 -190.272)">
      <path id="path804" d="M0,0C-.373.125-.033.465.34.34S.375-.125,0,0" fill="#231f20"/>
    </g>
    <g id="g806" transform="translate(356.247 -191.097)">
      <path id="path808" d="M0,0C.208-.125-.5.492.124.659L.249.492S-.208.125,0,0" fill="#231f20"/>
    </g>
    <g id="g810" transform="translate(354.028 -191.076)">
      <path id="path812" d="M0,0-.076.575.251.617Z" fill="#231f20"/>
    </g>
    <g id="g814" transform="translate(349.34 -189.314)">
      <path id="path816" d="M0,0C.332,0,.125.708-.208.708-.208.708-.333,0,0,0" fill="#231f20"/>
    </g>
    <g id="g818" transform="translate(349.756 -189.357)">
      <path id="path820" d="M0,0C.332,0,.125.708-.208.708-.208.708-.333,0,0,0" fill="#231f20"/>
    </g>
    <g id="g822" transform="translate(353.508 -190.605)">
      <path id="path824" d="M0,0,.167-.187.332,0,.167.188Z" fill="#231f20"/>
    </g>
    <g id="g826" transform="translate(350.43 -191.506)">
      <path id="path828" d="M0,0C-.035.256-.243.713.132.589S.053-.391,0,0" fill="#231f20"/>
    </g>
    <g id="g830" transform="translate(351.324 -193.698)">
      <path id="path832" d="M0,0C-.375.125-.035.465.34.34S.375-.124,0,0" fill="#231f20"/>
    </g>
    <g id="g834" transform="translate(368.647 -205.307)">
      <path id="path836" d="M0,0C.251.041.541.5-.373.665A.579.579,0,0,1-.5.125.8.8,0,0,1,0,0" fill="#231f20"/>
    </g>
    <g id="g838" transform="translate(366.574 -205.598)">
      <path id="path840" d="M0,0S.3-.333.457-.084A1.511,1.511,0,0,0,.784.291S.873.749.416.624.249.332.249.332L0,0" fill="#231f20"/>
    </g>
    <g id="g842" transform="translate(366.24 -206.055)">
      <path id="path844" d="M0,0C.375.124-.165.5-.541.373S-.375-.125,0,0" fill="#231f20"/>
    </g>
    <g id="g846" transform="translate(364.908 -206.202)">
      <path id="path848" d="M0,0,.167-.188.333,0,.167.187Z" fill="#231f20"/>
    </g>
    <g id="g850" transform="translate(364.16 -206.639)">
      <path id="path852" d="M0,0S-.048.416-.333.292A1.346,1.346,0,0,0-.825.167h-.208s0-.457.167-.416S-.617,0-.617,0H0" fill="#231f20"/>
    </g>
    <g id="g854" transform="translate(362.17 -206.847)">
      <path id="path856" d="M0,0,.187-.124.376,0,.187.125Z" fill="#231f20"/>
    </g>
    <g id="g858" transform="translate(361.67 -207.422)">
      <path id="path860" d="M0,0C-.207-.125.5.492-.124.659L-.251.492S.208.125,0,0" fill="#231f20"/>
    </g>
    <g id="g862" transform="translate(362.128 -205.474)">
      <path id="path864" d="M0,0C-.208-.124.5.492-.124.659L-.249.492S.208.125,0,0" fill="#231f20"/>
    </g>
    <g id="g866" transform="translate(368.814 -203.317)">
      <path id="path868" d="M0,0C.251.041.541.5-.373.667A.589.589,0,0,1-.5.125.8.8,0,0,1,0,0" fill="#231f20"/>
    </g>
    <g id="g870" transform="translate(366.74 -203.607)">
      <path id="path872" d="M0,0S.3-.333.459-.084A1.493,1.493,0,0,0,.784.291S.873.749.417.624.251.332.251.332L0,0" fill="#231f20"/>
    </g>
    <g id="g874" transform="translate(366.407 -204.066)">
      <path id="path876" d="M0,0C.373.125-.167.5-.541.375S-.375-.124,0,0" fill="#231f20"/>
    </g>
    <g id="g878" transform="translate(365.075 -204.211)">
      <path id="path880" d="M0,0,.167-.188.333,0,.167.187Z" fill="#231f20"/>
    </g>
    <g id="g882" transform="translate(364.202 -204.558)">
      <path id="path884" d="M0,0S-.007.373-.291.249a1.778,1.778,0,0,1-.493-.34H-.992s0-.457.167-.416.251.249.251.249L0,0" fill="#231f20"/>
    </g>
    <g id="g886" transform="translate(362.336 -204.981)">
      <path id="path888" d="M0,0,.188-.124.375,0,.188.125Z" fill="#231f20"/>
    </g>
    <g id="g890" transform="translate(361.838 -205.433)">
      <path id="path892" d="M0,0C-.209-.124.5.492-.125.659L-.251.492S.208.125,0,0" fill="#231f20"/>
    </g>
    <g id="g894" transform="translate(365.451 -204.129)">
      <path id="path896" d="M0,0,.165-.188.332,0,.165.188Z" fill="#231f20"/>
    </g>
    <g id="g898" transform="translate(368.231 -203.525)">
      <path id="path900" d="M0,0C-.209-.125.5.492-.125.659L-.251.492S.208.124,0,0" fill="#231f20"/>
    </g>
    <g id="g902" transform="translate(367.572 -201.659)">
      <path id="path904" d="M0,0C.251.041.541.5-.373.667A.588.588,0,0,1-.5.124.8.8,0,0,1,0,0" fill="#231f20"/>
    </g>
    <g id="g906" transform="translate(366.324 -201.527)">
      <path id="path908" d="M0,0S.388-.672.548-.424a1.517,1.517,0,0,0,.325.376S.964.409.505.284.34-.008.34-.008L0,0" fill="#231f20"/>
    </g>
    <g id="g910" transform="translate(365.166 -202.409)">
      <path id="path912" d="M0,0C.375.125-.165.5-.541.375S-.373-.124,0,0" fill="#231f20"/>
    </g>
    <g id="g914" transform="translate(363.834 -202.554)">
      <path id="path916" d="M0,0,.168-.187.335,0,.168.187Z" fill="#231f20"/>
    </g>
    <g id="g918" transform="translate(363.378 -203.067)">
      <path id="path920" d="M0,0S-.007.375-.292.249a1.759,1.759,0,0,1-.492-.34H-.992s0-.457.167-.416.249.249.249.249L0,0" fill="#231f20"/>
    </g>
    <g id="g922" transform="translate(361.22 -203.566)">
      <path id="path924" d="M0,0,.187-.125.373,0,.187.125Z" fill="#231f20"/>
    </g>
    <g id="g926" transform="translate(361.344 -203.691)">
      <path id="path928" d="M0,0C-.208-.124.5.492-.124.66L-.251.492S.208.125,0,0" fill="#231f20"/>
    </g>
    <g id="g930" transform="translate(364.792 -202.658)">
      <path id="path932" d="M0,0C.373.125-.168.5-.541.375S-.376-.125,0,0" fill="#231f20"/>
    </g>
    <g id="g934" transform="translate(361.886 -203.365)">
      <path id="path936" d="M0,0,.188-.125.375,0,.188.124Z" fill="#231f20"/>
    </g>
    <g id="g938" transform="translate(361.552 -203.442)">
      <path id="path940" d="M0,0,.187-.125.375,0,.187.124Z" fill="#231f20"/>
    </g>
    <g id="g942" transform="translate(365.124 -200.411)">
      <path id="path944" d="M0,0C.373.125-.167.5-.541.375S-.375-.124,0,0" fill="#231f20"/>
    </g>
    <g id="g946" transform="translate(363.792 -200.557)">
      <path id="path948" d="M0,0,.167-.188.335,0,.167.187Z" fill="#231f20"/>
    </g>
    <g id="g950" transform="translate(362.919 -201.153)">
      <path id="path952" d="M0,0S-.007.375-.291.249a1.747,1.747,0,0,1-.493-.34H-.992s0-.457.167-.416.251.249.251.249L0,0" fill="#231f20"/>
    </g>
    <g id="g954" transform="translate(361.179 -201.569)">
      <path id="path956" d="M0,0,.187-.125.373,0,.187.125Z" fill="#231f20"/>
    </g>
    <g id="g958" transform="translate(361.095 -201.527)">
      <path id="path960" d="M0,0C-.208-.125.743.208.119.375l-.5-.125S.208.125,0,0" fill="#231f20"/>
    </g>
    <g id="g962" transform="translate(365.374 -200.535)">
      <path id="path964" d="M0,0C.375.124-.089.381-.465.256S-.373-.125,0,0" fill="#231f20"/>
    </g>
    <g id="g966" transform="translate(361.844 -201.218)">
      <path id="path968" d="M0,0C0-.152.092-.273.2-.273S.409-.152.409,0,.317.273.2.273,0,.151,0,0" fill="#231f20"/>
    </g>
    <g id="g970" transform="translate(361.594 -201.32)">
      <path id="path972" d="M0,0,.187-.124.375,0,.187.125Z" fill="#231f20"/>
    </g>
    <g id="g974" transform="translate(367.247 -199.793)">
      <path id="path976" d="M0,0C.373.124-.167.5-.541.375S-.375-.125,0,0" fill="#231f20"/>
    </g>
    <g id="g978" transform="translate(366.872 -200.044)">
      <path id="path980" d="M0,0C.375.124-.167.5-.54.373S-.375-.125,0,0" fill="#231f20"/>
    </g>
    <g id="g982" transform="translate(365.624 -200.411)">
      <path id="path984" d="M0,0C.373.125.035.465-.34.34S-.375-.124,0,0" fill="#231f20"/>
    </g>
    <g id="g986" transform="translate(363.918 -200.806)">
      <path id="path988" d="M0,0,.165-.187.333,0,.165.187Z" fill="#231f20"/>
    </g>
    <g id="g990" transform="translate(363.751 -201.153)">
      <path id="path992" d="M0,0C-.208-.125.5.492-.124.659L-.007.375S.208.125,0,0" fill="#231f20"/>
    </g>
    <g id="g994" transform="translate(361.552 -201.694)">
      <path id="path996" d="M0,0C-.208-.124.5.492-.125.659L-.249.492S.208.125,0,0" fill="#231f20"/>
    </g>
    <g id="g998" transform="translate(365 -195.882)">
      <path id="path1000" d="M0,0C.373.125-.167.5-.541.375S-.376-.125,0,0" fill="#231f20"/>
    </g>
    <g id="g1002" transform="translate(363.792 -195.778)">
      <path id="path1004" d="M0,0,.167-.187.335,0,.167.188Z" fill="#231f20"/>
    </g>
    <g id="g1006" transform="translate(362.919 -196.376)">
      <path id="path1008" d="M0,0S-.007.375-.291.249a1.747,1.747,0,0,1-.493-.34H-.992s0-.457.167-.416.251.251.251.251L0,0" fill="#231f20"/>
    </g>
    <g id="g1010" transform="translate(361.303 -196.458)">
      <path id="path1012" d="M0,0,.187-.125.373,0,.187.125Z" fill="#231f20"/>
    </g>
    <g id="g1014" transform="translate(361.095 -196.749)">
      <path id="path1016" d="M0,0C-.208-.125.368.249-.256.416l.208.243S.208.124,0,0" fill="#231f20"/>
    </g>
    <g id="g1018" transform="translate(361.844 -196.441)">
      <path id="path1020" d="M0,0C0-.151.092-.273.2-.273S.409-.151.409,0,.317.273.2.273,0,.152,0,0" fill="#231f20"/>
    </g>
    <g id="g1022" transform="translate(361.594 -196.541)">
      <path id="path1024" d="M0,0,.187-.124.375,0,.187.125Z" fill="#231f20"/>
    </g>
    <g id="g1026" transform="translate(366.83 -195.348)">
      <path id="path1028" d="M0,0C.036.256.243.713-.132.589S-.052-.391,0,0" fill="#231f20"/>
    </g>
    <g id="g1030" transform="translate(366.456 -195.514)">
      <path id="path1032" d="M0,0C.373.124-.167.5-.541.373S-.376-.125,0,0" fill="#231f20"/>
    </g>
    <g id="g1034" transform="translate(365.456 -195.674)">
      <path id="path1036" d="M0,0C.376.125.036.465-.34.34S-.373-.124,0,0" fill="#231f20"/>
    </g>
    <g id="g1038" transform="translate(363.918 -196.028)">
      <path id="path1040" d="M0,0,.165-.187.333,0,.165.188Z" fill="#231f20"/>
    </g>
    <g id="g1042" transform="translate(363.751 -196.376)">
      <path id="path1044" d="M0,0C-.208-.124.5.492-.124.66L-.007.375S.208.125,0,0" fill="#231f20"/>
    </g>
    <g id="g1046" transform="translate(361.511 -196.666)">
      <path id="path1048" d="M0,0C-.208-.125.5.492-.125.659L-.249.492S.207.124,0,0" fill="#231f20"/>
    </g>
    <g id="g1050" transform="translate(363.543 -196.417)">
      <path id="path1052" d="M0,0,.077.576-.248.617Z" fill="#231f20"/>
    </g>
    <g id="g1054" transform="translate(368.356 -195.176)">
      <path id="path1056" d="M0,0C-.333,0-.124.708.208.708.208.708.333,0,0,0" fill="#231f20"/>
    </g>
    <g id="g1058" transform="translate(367.94 -195.217)">
      <path id="path1060" d="M0,0C-.332,0-.125.708.209.708.209.708.333,0,0,0" fill="#231f20"/>
    </g>
    <g id="g1062" transform="translate(365 -193.969)">
      <path id="path1064" d="M0,0C.373.124-.167.5-.541.375S-.376-.125,0,0" fill="#231f20"/>
    </g>
    <g id="g1066" transform="translate(363.024 -194.176)">
      <path id="path1068" d="M0,0,.167-.188.333,0,.167.188Z" fill="#231f20"/>
    </g>
    <g id="g1070" transform="translate(363.604 -194.233)">
      <path id="path1072" d="M0,0S-.007.375-.291.249a1.747,1.747,0,0,1-.493-.34H-.992s0-.457.167-.416.251.251.251.251L0,0" fill="#231f20"/>
    </g>
    <g id="g1074" transform="translate(361.303 -194.544)">
      <path id="path1076" d="M0,0,.187-.125.373,0,.187.124Z" fill="#231f20"/>
    </g>
    <g id="g1078" transform="translate(361.095 -194.836)">
      <path id="path1080" d="M0,0C-.208-.125.368.249-.256.416l.208.243S.208.125,0,0" fill="#231f20"/>
    </g>
    <g id="g1082" transform="translate(360.91 -194.516)">
      <path id="path1084" d="M0,0A.221.221,0,0,1,.236-.2.22.22,0,0,1,.471,0,.22.22,0,0,1,.236.2.221.221,0,0,1,0,0" fill="#231f20"/>
    </g>
    <g id="g1086" transform="translate(361.594 -194.628)">
      <path id="path1088" d="M0,0,.187-.125.375,0,.187.124Z" fill="#231f20"/>
    </g>
    <g id="g1090" transform="translate(366.996 -193.476)">
      <path id="path1092" d="M0,0C.035.257.243.715-.132.589S-.052-.391,0,0" fill="#231f20"/>
    </g>
    <g id="g1094" transform="translate(366.767 -193.476)">
      <path id="path1096" d="M0,0C.376.124-.165.5-.541.375S-.373-.125,0,0" fill="#231f20"/>
    </g>
    <g id="g1098" transform="translate(365.063 -193.864)">
      <path id="path1100" d="M0,0C.373.124.035.464-.34.34S-.375-.125,0,0" fill="#231f20"/>
    </g>
    <g id="g1102" transform="translate(362.818 -194.217)">
      <path id="path1104" d="M0,0,.167-.188.332,0,.167.187Z" fill="#231f20"/>
    </g>
    <g id="g1106" transform="translate(363.751 -194.461)">
      <path id="path1108" d="M0,0C-.208-.125.5.492-.124.659L-.007.375S.208.124,0,0" fill="#231f20"/>
    </g>
    <g id="g1110" transform="translate(361.802 -194.981)">
      <path id="path1112" d="M0,0C-.207-.125.5.492-.124.659L-.248.492S.209.124,0,0" fill="#231f20"/>
    </g>
    <g id="g1114" transform="translate(363.543 -194.502)">
      <path id="path1116" d="M0,0,.077.576-.248.617Z" fill="#231f20"/>
    </g>
    <g id="g1118" transform="translate(368.44 -192.99)">
      <path id="path1120" d="M0,0C-.333,0-.125.707.207.707.207.707.332,0,0,0" fill="#231f20"/>
    </g>
    <g id="g1122" transform="translate(368.023 -193.198)">
      <path id="path1124" d="M0,0C-.332,0-.125.707.209.707.209.707.333,0,0,0" fill="#231f20"/>
    </g>
    <g id="g1126" transform="translate(365.014 -192.309)">
      <path id="path1128" d="M0,0C.291.145.269.624-.1.5S-.353-.176,0,0" fill="#231f20"/>
    </g>
    <g id="g1130" transform="translate(363.564 -192.312)">
      <path id="path1132" d="M0,0,.167-.187.332,0,.167.188Z" fill="#231f20"/>
    </g>
    <g id="g1134" transform="translate(362.543 -193.013)">
      <path id="path1136" d="M0,0S.2.585-.081.46A1.746,1.746,0,0,1-.573.121H-.783S-.769-.1-.6-.063a.469.469,0,0,0,.236.017L0,0" fill="#231f20"/>
    </g>
    <g id="g1138" transform="translate(361.303 -192.804)">
      <path id="path1140" d="M0,0,.187-.124.373,0,.187.125Z" fill="#231f20"/>
    </g>
    <g id="g1142" transform="translate(361.095 -193.094)">
      <path id="path1144" d="M0,0C-.208-.124.368.251-.256.416l.208.243S.208.125,0,0" fill="#231f20"/>
    </g>
    <g id="g1146" transform="translate(361.844 -192.786)">
      <path id="path1148" d="M0,0C0-.151.092-.275.2-.275S.409-.151.409,0,.317.273.2.273,0,.151,0,0" fill="#231f20"/>
    </g>
    <g id="g1150" transform="translate(361.594 -192.886)">
      <path id="path1152" d="M0,0,.187-.125.375,0,.187.125Z" fill="#231f20"/>
    </g>
    <g id="g1154" transform="translate(366.975 -191.652)">
      <path id="path1156" d="M0,0C.036.256.243.715-.131.589S-.052-.391,0,0" fill="#231f20"/>
    </g>
    <g id="g1158" transform="translate(366.164 -191.881)">
      <path id="path1160" d="M0,0C.376.125-.165.5-.54.375S-.373-.124,0,0" fill="#231f20"/>
    </g>
    <g id="g1162" transform="translate(365.831 -192.041)">
      <path id="path1164" d="M0,0C.375.125.035.465-.34.34S-.375-.124,0,0" fill="#231f20"/>
    </g>
    <g id="g1166" transform="translate(362.942 -192.518)">
      <path id="path1168" d="M0,0,.167-.188.333,0,.167.187Z" fill="#231f20"/>
    </g>
    <g id="g1170" transform="translate(363.586 -192.865)">
      <path id="path1172" d="M0,0C-.208-.125.5.492-.125.659L-.007.375S.207.125,0,0" fill="#231f20"/>
    </g>
    <g id="g1174" transform="translate(361.428 -193.177)">
      <path id="path1176" d="M0,0C-.208-.125.5.492-.125.66L-.249.492S.207.125,0,0" fill="#231f20"/>
    </g>
    <g id="g1178" transform="translate(363.399 -192.845)">
      <path id="path1180" d="M0,0,.075.575-.251.616Z" fill="#231f20"/>
    </g>
    <g id="g1182" transform="translate(368.419 -191.064)">
      <path id="path1184" d="M0,0C-.333,0-.124.708.208.708.208.708.332,0,0,0" fill="#231f20"/>
    </g>
    <g id="g1186" transform="translate(368.002 -191.23)">
      <path id="path1188" d="M0,0C-.332,0-.124.708.209.708.209.708.335,0,0,0" fill="#231f20"/>
    </g>
    <g id="g1190" transform="translate(364.875 -190.562)">
      <path id="path1192" d="M0,0C.375.124-.165.5-.541.375S-.375-.125,0,0" fill="#231f20"/>
    </g>
    <g id="g1194" transform="translate(363.606 -190.686)">
      <path id="path1196" d="M0,0,.167-.187.332,0,.167.188Z" fill="#231f20"/>
    </g>
    <g id="g1198" transform="translate(362.96 -190.681)">
      <path id="path1200" d="M0,0S-.007.375-.291.249-.584.2-.584.2L-.625-.195S-.46-.4-.292-.36A.609.609,0,0,1-.105-.3L0,0" fill="#231f20"/>
    </g>
    <g id="g1202" transform="translate(361.323 -191.034)">
      <path id="path1204" d="M0,0C-.208-.125.368.249-.257.416l.209.243S.208.125,0,0" fill="#231f20"/>
    </g>
    <g id="g1206" transform="translate(367.038 -189.821)">
      <path id="path1208" d="M0,0C.035.257.243.715-.131.589S-.052-.391,0,0" fill="#231f20"/>
    </g>
    <g id="g1210" transform="translate(366.643 -189.986)">
      <path id="path1212" d="M0,0C.373.124-.167.5-.541.375S-.375-.125,0,0" fill="#231f20"/>
    </g>
    <g id="g1214" transform="translate(365.686 -190.272)">
      <path id="path1216" d="M0,0C.375.125.036.465-.34.34S-.375-.125,0,0" fill="#231f20"/>
    </g>
    <g id="g1218" transform="translate(361.448 -191.097)">
      <path id="path1220" d="M0,0C-.208-.125.5.492-.124.659L-.249.492S.208.125,0,0" fill="#231f20"/>
    </g>
    <g id="g1222" transform="translate(363.667 -191.076)">
      <path id="path1224" d="M0,0,.077.575-.249.617Z" fill="#231f20"/>
    </g>
    <g id="g1226" transform="translate(368.356 -189.314)">
      <path id="path1228" d="M0,0C-.333,0-.124.708.208.708.208.708.333,0,0,0" fill="#231f20"/>
    </g>
    <g id="g1230" transform="translate(367.94 -189.357)">
      <path id="path1232" d="M0,0C-.332,0-.125.708.209.708.209.708.333,0,0,0" fill="#231f20"/>
    </g>
    <g id="g1234" transform="translate(363.855 -190.605)">
      <path id="path1236" d="M0,0,.168-.187.333,0,.168.188Z" fill="#231f20"/>
    </g>
    <g id="g1238" transform="translate(367.267 -191.506)">
      <path id="path1240" d="M0,0C.035.256.243.713-.133.589S-.053-.391,0,0" fill="#231f20"/>
    </g>
    <g id="g1242" transform="translate(366.371 -193.698)">
      <path id="path1244" d="M0,0C.375.125.036.465-.34.34S-.375-.124,0,0" fill="#231f20"/>
    </g>
    <g id="g1246" transform="translate(339.87 -218.425)">
      <path id="path1248" d="M0,0A12.55,12.55,0,0,0,.091,1.652c.149.18.751,1.924,1.924,2.164l.607.068s-.54,1.231-.031,1.472c0,0,.112.36,1.112.391,0,0-.369.976-.971,1.005a8.778,8.778,0,0,0,1.4,1.476s.351.359.08.479c0,0,1.395,1.373,2.447,1.163,0,0,5.692-1.213,6.792-.113A8.763,8.763,0,0,1,7.661,11.28a.873.873,0,0,0-.537.113c-.145.121-.093.409-.3.579l-.264.015-.233.385c-.167.133-.431.145-.585.264-.235.18-.344.451-.48.536,0,0-.836.132-.925-.139,0,0,.269.968-.181,1.329,0,0,.909,2.013,1.209,2.013,0,0,3.4-.233,3.253,1.54,0,0,.811,1.652-.549,1.652a.95.95,0,0,1-.9,1.323s.6-2.044-2.952-2.044c0,0-1.321-.06-1.051-.631A6.962,6.962,0,0,1,.12,22.04s.149-.031.969.961c0,0,.6.329.271,2.2a18.814,18.814,0,0,1-.669,2.884A10.862,10.862,0,0,1,1.84,30.857l1.383.783-.6,6.055a7.824,7.824,0,0,0,1.532-.121c.849-.149.609-.253.609-.253l3.824-.827s8.363,3.9,9.745,9.972H16.171s-2.769-6.06-5.241-4.047a1.149,1.149,0,0,0,.24,1.781,1.521,1.521,0,0,0,1.24-.091A1.914,1.914,0,0,1,9.7,45.341a1.553,1.553,0,0,1-.721-1.352.655.655,0,0,0-.728.66,1.807,1.807,0,0,1-.12-1.772s-.512.18-.512.511c0,0-.488-1.3.241-2.02,0,0-.6-.452-.9.389,0,0,.269-2.853,2.892-1.952,0,0-3.283-2.111-4.905.3,0,0-1.209,2.464,1.141,2.284C5.6,43.9,2.743,44.379,2.441,42.3c-.289-2,.781-2.764,1.141-3.463.781-1.8-1.751,2.231-3.583,1.389,0,0,1.637-.337,1.269-1.54a3.094,3.094,0,0,1-2.892.88A2.778,2.778,0,0,0,.149,37.32s-1.24,1.937-3.072.885c0,0,2.2-.383,1.54-2.344,0,0-.608-.6-1.871.6a3.343,3.343,0,0,0-.389,4.275s-3.4-.721-1.533-3.944a.8.8,0,0,1-1.149-.151s.419.131.459-.781c.06-1.36,2.795-2.471,6.677-2.471,0,0-1.443-.971-1.261-1.631a1.426,1.426,0,0,1-2.044.668,1.274,1.274,0,0,0,.9-1.66,1.684,1.684,0,0,0-1.18.6s1.128-.932.369-1.893c0,0-2.569,2.772-4.072,3.252,0,0-.721.144-.48,2.015A1.393,1.393,0,0,1-6.077,35.8s-.128-.271-.217,0c0,0,1.051,2.276-.031,3.065,0,0-.9.36-1.112-.752a6.351,6.351,0,0,0-1.892-.795,3.59,3.59,0,0,0-1.661-3.6s1.832.652.992-1.841a4.36,4.36,0,0,1,1.3-.421s.983-.72-1.18-1.141a3.047,3.047,0,0,0,3.1-2.591,2.81,2.81,0,0,0-.631-2.735s-.667,1.6-1.84-.405c0,0,1.388,3.279-1.533,3.837,0,0,.3,1.292-.751,1.353,0,0,.631.037-.091-1.083,0,0-.511,0-.36-1.239a1.031,1.031,0,0,0-.963,1.029,2.852,2.852,0,0,0-.269-1.091,2.244,2.244,0,0,1,0-1.5s-.128.36-.82.089a3.417,3.417,0,0,0,.669-2.381,2.389,2.389,0,0,1-.739,1.365,1.549,1.549,0,0,0-.32,1.167c.149.571-.692-1.78-.061-2.532a6.016,6.016,0,0,0,1.721-3.612c.089-2.4,2.915-8.159,5.476-8.279,0,0,1.809-.323,1.569,2.321,0,0-.908,2.907-1.991,3.365,0,0-.3-1.172-.661-1.2a1.86,1.86,0,0,0,.632-2.561s.871.039.841.429c0,0,.72-1.151-.451-1.3,0,0-.684-.113-1.623,1.3s-2.561,3.785-2.231,6.617a2.289,2.289,0,0,0,2.381,2.561.751.751,0,0,1,.78.329s-.593-.988.633-2.256c1.065-1.1,4.363-3.227,3.852-7.561a2.129,2.129,0,0,1-.6-2.193l-.06.151s.5-1.029-.279-.907c0,0,.42-.969,0-1.18,0,0-.879.28-.953.577l.075-1.215s-1,.18-1.18,0c0,0,.28-.16.08-1.557l-.8-.119s.321.057-.04-2.456c0,0-1.507.111-1.6-.28,0,0,.717-.331.807-.9a3.676,3.676,0,0,1,.324-1.492c.153-.227.488-.316.695-.555S-6.9,1.211-6.663,1c.416.208.563-.287.764-.417.12-.079.625-.069.695-.556a.871.871,0,0,0,.695,0,.96.96,0,0,0,.625-.695c.257-.019.535.429.819.417.116-.005.485-.625.764-.209.269.005.531.231.773.26A7.393,7.393,0,0,0,0,0" fill="#926c36"/>
    </g>
    <g id="g1250" transform="translate(339.87 -218.425)">
      <path id="path1252" d="M0,0A12.55,12.55,0,0,0,.091,1.652c.149.18.751,1.924,1.924,2.164l.607.068s-.54,1.231-.031,1.472c0,0,.112.36,1.112.391,0,0-.369.976-.971,1.005a8.778,8.778,0,0,0,1.4,1.476s.351.359.08.479c0,0,1.395,1.373,2.447,1.163,0,0,5.692-1.213,6.792-.113A8.763,8.763,0,0,1,7.661,11.28a.873.873,0,0,0-.537.113c-.145.121-.093.409-.3.579l-.264.015-.233.385c-.167.133-.431.145-.585.264-.235.18-.344.451-.48.536,0,0-.836.132-.925-.139,0,0,.269.968-.181,1.329,0,0,.909,2.013,1.209,2.013,0,0,3.4-.233,3.253,1.54,0,0,.811,1.652-.549,1.652a.95.95,0,0,1-.9,1.323s.6-2.044-2.952-2.044c0,0-1.321-.06-1.051-.631A6.962,6.962,0,0,1,.12,22.04s.149-.031.969.961c0,0,.6.329.271,2.2a18.814,18.814,0,0,1-.669,2.884A10.862,10.862,0,0,1,1.84,30.857l1.383.783-.6,6.055a7.824,7.824,0,0,0,1.532-.121c.849-.149.609-.253.609-.253l3.824-.827s8.363,3.9,9.745,9.972H16.171s-2.769-6.06-5.241-4.047a1.149,1.149,0,0,0,.24,1.781,1.521,1.521,0,0,0,1.24-.091A1.914,1.914,0,0,1,9.7,45.341a1.553,1.553,0,0,1-.721-1.352.655.655,0,0,0-.728.66,1.807,1.807,0,0,1-.12-1.772s-.512.18-.512.511c0,0-.488-1.3.241-2.02,0,0-.6-.452-.9.389,0,0,.269-2.853,2.892-1.952,0,0-3.283-2.111-4.905.3,0,0-1.209,2.464,1.141,2.284C5.6,43.9,2.743,44.379,2.441,42.3c-.289-2,.781-2.764,1.141-3.463.781-1.8-1.751,2.231-3.583,1.389,0,0,1.637-.337,1.269-1.54a3.094,3.094,0,0,1-2.892.88A2.778,2.778,0,0,0,.149,37.32s-1.24,1.937-3.072.885c0,0,2.2-.383,1.54-2.344,0,0-.608-.6-1.871.6a3.343,3.343,0,0,0-.389,4.275s-3.4-.721-1.533-3.944a.8.8,0,0,1-1.149-.151s.419.131.459-.781c.06-1.36,2.795-2.471,6.677-2.471,0,0-1.443-.971-1.261-1.631a1.426,1.426,0,0,1-2.044.668,1.274,1.274,0,0,0,.9-1.66,1.684,1.684,0,0,0-1.18.6s1.128-.932.369-1.893c0,0-2.569,2.772-4.072,3.252,0,0-.721.144-.48,2.015A1.393,1.393,0,0,1-6.077,35.8s-.128-.271-.217,0c0,0,1.051,2.276-.031,3.065,0,0-.9.36-1.112-.752a6.351,6.351,0,0,0-1.892-.795,3.59,3.59,0,0,0-1.661-3.6s1.832.652.992-1.841a4.36,4.36,0,0,1,1.3-.421s.983-.72-1.18-1.141a3.047,3.047,0,0,0,3.1-2.591,2.81,2.81,0,0,0-.631-2.735s-.667,1.6-1.84-.405c0,0,1.388,3.279-1.533,3.837,0,0,.3,1.292-.751,1.353,0,0,.631.037-.091-1.083,0,0-.511,0-.36-1.239a1.031,1.031,0,0,0-.963,1.029,2.852,2.852,0,0,0-.269-1.091,2.244,2.244,0,0,1,0-1.5s-.128.36-.82.089a3.417,3.417,0,0,0,.669-2.381,2.389,2.389,0,0,1-.739,1.365,1.549,1.549,0,0,0-.32,1.167c.149.571-.692-1.78-.061-2.532a6.016,6.016,0,0,0,1.721-3.612c.089-2.4,2.915-8.159,5.476-8.279,0,0,1.809-.323,1.569,2.321,0,0-.908,2.907-1.991,3.365,0,0-.3-1.172-.661-1.2a1.86,1.86,0,0,0,.632-2.561s.871.039.841.429c0,0,.72-1.151-.451-1.3,0,0-.684-.113-1.623,1.3s-2.561,3.785-2.231,6.617a2.289,2.289,0,0,0,2.381,2.561.751.751,0,0,1,.78.329s-.593-.988.633-2.256c1.065-1.1,4.363-3.227,3.852-7.561a2.129,2.129,0,0,1-.6-2.193l-.06.151s.5-1.029-.279-.907c0,0,.42-.969,0-1.18,0,0-.879.28-.953.577l.075-1.215s-1,.18-1.18,0c0,0,.28-.16.08-1.557l-.8-.119s.321.057-.04-2.456c0,0-1.507.111-1.6-.28,0,0,.717-.331.807-.9a3.676,3.676,0,0,1,.324-1.492c.153-.227.488-.316.695-.555S-6.9,1.211-6.663,1c.416.208.563-.287.764-.417.12-.079.625-.069.695-.556a.871.871,0,0,0,.695,0,.96.96,0,0,0,.625-.695c.257-.019.535.429.819.417.116-.005.485-.625.764-.209.269.005.531.231.773.26A7.393,7.393,0,0,0,0,0Z" fill="none" stroke="#231f20" stroke-miterlimit="3.864" stroke-width="0.355"/>
    </g>
    <g id="g1254" transform="translate(334.994 -215.293)">
      <path id="path1256" d="M0,0S.061.421-.18.541s-.955,1.2-1.052,1.2" fill="none" stroke="#231f20" stroke-miterlimit="3.864" stroke-width="0.251"/>
    </g>
    <g id="g1258" transform="translate(334.092 -213.879)">
      <path id="path1260" d="M0,0S.3-.12.421-.06s.78.029.84-.18a.49.49,0,0,0-.48-.421L.811-.872,0,0" fill="#231f20"/>
    </g>
    <g id="g1262" transform="translate(334.092 -213.879)">
      <path id="path1264" d="M0,0S.3-.12.421-.06s.78.029.84-.18a.49.49,0,0,0-.48-.421L.811-.872Z" fill="none" stroke="#231f20" stroke-miterlimit="3.864" stroke-width="0.251"/>
    </g>
    <g id="g1266" transform="translate(338.396 -216.201)">
      <path id="path1268" d="M0,0S-1.24-.277-1.54.541c0,0-.413.549.969,1.811,0,0,.72.751-.88.691" fill="none" stroke="#231f20" stroke-miterlimit="3.864" stroke-width="0.251"/>
    </g>
    <g id="g1270" transform="translate(337.556 -213.129)">
      <path id="path1272" d="M0,0A2.372,2.372,0,0,1-3.043,1.172a2,2,0,0,0,.787,1.013c.233.892,1.427,1.492,2.244,1.729.041.111.124.3.432.149A5.251,5.251,0,0,0,2.944,2.412s0-.24-.36-.3c0,0,.451-3.853-.932-3.943A1.555,1.555,0,0,1,0,0" fill="#231f20"/>
    </g>
    <g id="g1274" transform="translate(337.556 -213.129)">
      <path id="path1276" d="M0,0A2.372,2.372,0,0,1-3.043,1.172a2,2,0,0,0,.787,1.013c.233.892,1.427,1.492,2.244,1.729.041.111.124.3.432.149A5.251,5.251,0,0,0,2.944,2.412s0-.24-.36-.3c0,0,.451-3.853-.932-3.943A1.555,1.555,0,0,1,0,0Z" fill="none" stroke="#231f20" stroke-miterlimit="3.864" stroke-width="0.251"/>
    </g>
    <g id="g1278" transform="translate(340.144 -211.115)">
      <path id="path1280" d="M0,0C-.376.019-2.228,1.96-2.228,1.96A4.225,4.225,0,0,0,.476.279S.561-.028,0,0" fill="#231f20"/>
    </g>
    <g id="g1282" transform="translate(340.144 -211.115)">
      <path id="path1284" d="M0,0C-.376.019-2.228,1.96-2.228,1.96A4.225,4.225,0,0,0,.476.279S.561-.028,0,0Z" fill="none" stroke="#231f20" stroke-miterlimit="3.864" stroke-width="0.251"/>
    </g>
    <g id="g1286" transform="translate(337.759 -212.926)">
      <path id="path1288" d="M0,0C-.208.088-.5.533-.724.756c-.159.381-.072.872.687,1.712,0,0,.965.767,1.216.488,0,0,.347-.161-.067-1.515C1.112,1.441.725-.305,0,0" fill="#926c36"/>
    </g>
    <g id="g1290" transform="translate(338.307 -216.17)">
      <path id="path1292" d="M0,0A2.342,2.342,0,0,0-.631.391c-.151.18-.488.585-.819.457,0,0-.053-.728.519-.848A1.931,1.931,0,0,1,0,0" fill="#231f20"/>
    </g>
    <g id="g1294" transform="translate(335.907 -211.658)">
      <path id="path1296" d="M0,0S.745,1.365,1.505.895C.928.452.931-.4.868-.325L0,0" fill="#926c36"/>
    </g>
    <g id="g1298" transform="translate(335.238 -211.037)">
      <path id="path1300" d="M0,0C.24.161.62,1.425,1.972.681,1.2.471.541-.616.541-.616A3.048,3.048,0,0,1-.66-.773,1.633,1.633,0,0,0,0,0" fill="#926c36"/>
    </g>
    <g id="g1302" transform="translate(337.424 -210.627)">
      <path id="path1304" d="M0,0C.032-.335-.085,1.113.3,1.319A2.031,2.031,0,0,0,1.153.881C1.252.781-.028.288,0,0" fill="#926c36"/>
    </g>
    <g id="g1306" transform="translate(336.366 -209.846)">
      <path id="path1308" d="M0,0C-.041-.208.971-.608,1.195.571,1.195.571.091.451,0,0" fill="#926c36"/>
    </g>
    <g id="g1310" transform="translate(339.202 -213.841)">
      <path id="path1312" d="M0,0A1.3,1.3,0,0,1-.019,1.956a1.3,1.3,0,0,1-.569-.621A.956.956,0,0,0-1.157.783C-.561.923,0,0,0,0" fill="#926c36"/>
    </g>
    <g id="g1314" transform="translate(339.198 -213.918)">
      <path id="path1316" d="M0,0C.2.012.707.905.768.272a1.115,1.115,0,0,0-.557-1.1S.173-.075,0,0" fill="#926c36"/>
    </g>
    <g id="g1318" transform="translate(339.084 -211.674)">
      <path id="path1320" d="M0,0C0-.207.832-.179,1.147.479c0,0-.128.344-1.059.928A5.288,5.288,0,0,1,0,0" fill="#926c36"/>
    </g>
    <g id="g1322" transform="translate(339.532 -211.983)">
      <path id="path1324" d="M0,0A.983.983,0,0,0,.223-.632c.04-1.623.423-.28.447.272A5.361,5.361,0,0,1,.62.464a1.233,1.233,0,0,0-.559-.3C-.209.135,0,0,0,0" fill="#926c36"/>
    </g>
    <g id="g1326" transform="translate(335.746 -206.803)">
      <path id="path1328" d="M0,0A1.146,1.146,0,0,0,1.107-.736s1.673,1.788.913,2.3c0,0,1.323-.841,1.2-1.743A1.4,1.4,0,0,0,4.244,1.172,2.853,2.853,0,0,0,4.605-1.54,1.9,1.9,0,0,0,6.836-.451s-.481-1.54-.271-1.84a1.136,1.136,0,0,0,1.563-.3" fill="none" stroke="#231f20" stroke-miterlimit="3.864" stroke-width="0.355"/>
    </g>
    <g id="g1330" transform="translate(341.74 -207.103)">
      <path id="path1332" d="M0,0A19.269,19.269,0,0,1,2.313,3.132" fill="none" stroke="#231f20" stroke-miterlimit="3.864" stroke-width="0.355"/>
    </g>
    <g id="g1334" transform="translate(337.736 -204.001)">
      <path id="path1336" d="M0,0S.789,2.472-.391,3.313c0,0,.931-.308.992-.729,0,0,.24,1.211-.121,1.3s.932-.9,1.383-.031c0,0,.031-1.36.271-1.329" fill="none" stroke="#231f20" stroke-miterlimit="3.864" stroke-width="0.355"/>
    </g>
    <g id="g1338" transform="translate(339.298 -201.927)">
      <path id="path1340" d="M0,0S.631,1.057,2.773.872c.691-.061.991.939.991.939" fill="none" stroke="#231f20" stroke-miterlimit="3.864" stroke-width="0.355"/>
    </g>
    <g id="g1342" transform="translate(340.68 -201.086)">
      <path id="path1344" d="M0,0S.721,1.089.211,1.3,1.06,1.352.728.091" fill="none" stroke="#231f20" stroke-miterlimit="3.864" stroke-width="0.355"/>
    </g>
    <g id="g1346" transform="translate(343.271 -206.381)">
      <path id="path1348" d="M0,0S.624.961,1.083,1.111" fill="none" stroke="#231f20" stroke-miterlimit="3.864" stroke-width="0.355"/>
    </g>
    <g id="g1350" transform="translate(344.354 -208.613)">
      <path id="path1352" d="M0,0S.233.5.548.391A1.964,1.964,0,0,1,2.772.819a1.89,1.89,0,0,0,1.18.48" fill="none" stroke="#231f20" stroke-miterlimit="3.864" stroke-width="0.355"/>
    </g>
    <g id="g1354" transform="translate(340.079 -197.773)">
      <path id="path1356" d="M0,0S-2.493,1.2-2.584,2.921" fill="none" stroke="#231f20" stroke-miterlimit="3.864" stroke-width="0.355"/>
    </g>
    <g id="g1358" transform="translate(334.843 -195.121)">
      <path id="path1360" d="M0,0A2.133,2.133,0,0,0-.3,1.96c.449.932.811,2.305.3,2.764,0,0,1.292-.991.961-2.1" fill="none" stroke="#231f20" stroke-miterlimit="3.864" stroke-width="0.355"/>
    </g>
    <g id="g1362" transform="translate(336.977 -191.148)">
      <path id="path1364" d="M0,0S.517,1.509-1.653,3.1" fill="none" stroke="#231f20" stroke-miterlimit="3.864" stroke-width="0.355"/>
    </g>
    <g id="g1366" transform="translate(338.215 -193.43)">
      <path id="path1368" d="M0,0S1.623.721-.721,4.424" fill="none" stroke="#231f20" stroke-miterlimit="3.864" stroke-width="0.355"/>
    </g>
    <g id="g1370" transform="translate(339.958 -196.353)">
      <path id="path1372" d="M0,0A4.415,4.415,0,0,0-1.833,3.733" fill="none" stroke="#231f20" stroke-miterlimit="3.864" stroke-width="0.355"/>
    </g>
    <g id="g1374" transform="translate(339.836 -194.4)">
      <path id="path1376" d="M0,0S.9-.54.632,3.973" fill="none" stroke="#231f20" stroke-miterlimit="3.864" stroke-width="0.355"/>
    </g>
    <g id="g1378" transform="translate(338.127 -187.626)">
      <path id="path1380" d="M0,0S1.2-.7,1.232,1.023" fill="none" stroke="#231f20" stroke-miterlimit="3.864" stroke-width="0.251"/>
    </g>
    <g id="g1382" transform="translate(331.501 -182.382)">
      <path id="path1384" d="M0,0A1.86,1.86,0,0,1,.932,2.133" fill="none" stroke="#231f20" stroke-miterlimit="3.864" stroke-width="0.355"/>
    </g>
    <g id="g1386" transform="translate(333.034 -182.744)">
      <path id="path1388" d="M0,0A.569.569,0,0,1,.7.48" fill="none" stroke="#231f20" stroke-miterlimit="3.864" stroke-width="0.251"/>
    </g>
    <g id="g1390" transform="translate(331.652 -194.58)">
      <path id="path1392" d="M0,0A.977.977,0,0,1-1.577.335C-2.536,1.625-3.685.168-3.685.168A3.305,3.305,0,0,1-5.073,2.176" fill="none" stroke="#231f20" stroke-miterlimit="3.864" stroke-width="0.355"/>
    </g>
    <g id="g1394" transform="translate(328.303 -194.005)">
      <path id="path1396" d="M0,0S.6,2.488-.575,3.159" fill="none" stroke="#231f20" stroke-miterlimit="3.864" stroke-width="0.355"/>
    </g>
    <g id="g1398" transform="translate(328.902 -191.397)">
      <path id="path1400" d="M0,0A7.514,7.514,0,0,1,.168,1.817" fill="none" stroke="#231f20" stroke-miterlimit="3.864" stroke-width="0.355"/>
    </g>
    <g id="g1402" transform="translate(332.322 -194.436)">
      <path id="path1404" d="M0,0A1.12,1.12,0,0,0,.312,1.195" fill="none" stroke="#231f20" stroke-miterlimit="3.864" stroke-width="0.251"/>
    </g>
    <g id="g1406" transform="translate(329.549 -200.171)">
      <path id="path1408" d="M0,0C-.024-.016.423,2.427-.819,2.569A1.875,1.875,0,0,0,1.1,4.884s-.565-.339-.085-2.117A2.554,2.554,0,0,0,0,0" fill="#926c36"/>
    </g>
    <g id="g1410" transform="translate(329.549 -200.171)">
      <path id="path1412" d="M0,0C-.024-.016.423,2.427-.819,2.569A1.875,1.875,0,0,0,1.1,4.884s-.565-.339-.085-2.117A2.554,2.554,0,0,0,0,0Z" fill="none" stroke="#231f20" stroke-miterlimit="3.864" stroke-width="0.355"/>
    </g>
    <g id="g1414" transform="translate(330.791 -202.656)">
      <path id="path1416" d="M0,0C-.029,0,.451,2.287-.876,2.739L-.141,4.4s1.807-2.456,1.5-2.88C1.355,1.524,1.1-.029,0,0" fill="#926c36"/>
    </g>
    <g id="g1418" transform="translate(330.791 -202.656)">
      <path id="path1420" d="M0,0C-.029,0,.451,2.287-.876,2.739L-.141,4.4s1.807-2.456,1.5-2.88C1.355,1.524,1.1-.029,0,0Z" fill="none" stroke="#231f20" stroke-miterlimit="3.864" stroke-width="0.355"/>
    </g>
    <g id="g1422" transform="translate(340.694 -185.038)">
      <path id="path1424" d="M0,0A16.221,16.221,0,0,1,2.079.283" fill="none" stroke="#231f20" stroke-miterlimit="3.864" stroke-width="0.355"/>
    </g>
    <g id="g1426" transform="translate(346.936 -199.89)">
      <path id="path1428" d="M0,0S1.017.565,1.045,1.3" fill="none" stroke="#231f20" stroke-miterlimit="3.864" stroke-width="0.355"/>
    </g>
    <g id="g1430" transform="translate(347.304 -200.906)">
      <path id="path1432" d="M0,0A1.215,1.215,0,0,1,1.327.791" fill="none" stroke="#231f20" stroke-miterlimit="3.864" stroke-width="0.355"/>
    </g>
    <g id="g1434" transform="translate(377.923 -218.425)">
      <path id="path1436" d="M0,0A12.98,12.98,0,0,1-.089,1.652c-.151.18-.752,1.924-1.924,2.164l-.608.068s.54,1.231.031,1.472c0,0-.112.36-1.112.391,0,0,.369.976.971,1.005a8.821,8.821,0,0,1-1.4,1.476s-.349.359-.08.479c0,0-1.395,1.373-2.447,1.163,0,0-5.691-1.213-6.791-.113A8.769,8.769,0,0,0-7.66,11.28a.87.87,0,0,1,.536.113c.145.121.093.409.3.579l.264.015.233.385c.168.133.432.145.587.264.235.18.344.451.479.536,0,0,.837.132.928-.139,0,0-.271.968.18,1.329,0,0-.909,2.013-1.211,2.013,0,0-3.4-.233-3.252,1.54,0,0-.812,1.652.549,1.652a.949.949,0,0,0,.9,1.323s-.6-2.044,2.953-2.044c0,0,1.321-.06,1.052-.631A6.935,6.935,0,0,0-.12,22.04s-.149-.031-.969.961c0,0-.6.329-.269,2.2a18.532,18.532,0,0,0,.668,2.884A10.862,10.862,0,0,0-1.84,30.857s-1.261.872-1.383.783l.6,6.055a7.829,7.829,0,0,1-1.532-.121c-.849-.149-.609-.253-.609-.253l-3.823-.827s-8.364,3.9-9.745,9.972h2.16s2.769-6.06,5.241-4.047a1.149,1.149,0,0,1-.239,1.781,1.524,1.524,0,0,1-1.241-.091A1.914,1.914,0,0,0-9.7,45.341a1.55,1.55,0,0,0,.721-1.352.656.656,0,0,1,.729.66,1.808,1.808,0,0,0,.119-1.772s.512.18.512.511c0,0,.488-1.3-.241-2.02,0,0,.6-.452.9.389,0,0-.272-2.853-2.892-1.952,0,0,3.281-2.111,4.9.3,0,0,1.211,2.464-1.141,2.284.48,1.509,3.343,1.989,3.643-.091.289-2-.781-2.764-1.141-3.463-.781-1.8,1.751,2.231,3.583,1.389,0,0-1.637-.337-1.268-1.54a3.091,3.091,0,0,0,2.891.88A2.776,2.776,0,0,1-.149,37.32s1.239,1.937,3.072.885c0,0-2.2-.383-1.541-2.344,0,0,.609-.6,1.872.6a3.347,3.347,0,0,1,.391,4.275s3.395-.721,1.532-3.944a.8.8,0,0,0,1.149-.151s-.417.131-.459-.781c-.06-1.36-2.793-2.471-6.677-2.471,0,0,1.441-.971,1.261-1.631a1.426,1.426,0,0,0,2.043.668,1.273,1.273,0,0,1-.9-1.66,1.682,1.682,0,0,1,1.179.6s-1.128-.932-.368-1.893c0,0,2.569,2.772,4.072,3.252,0,0,.721.144.481,2.015a1.393,1.393,0,0,0-.88,1.059s.128-.271.219,0c0,0-1.052,2.276.029,3.065,0,0,1.005.663,1.216-.449a7.151,7.151,0,0,1,1.971-.747s-.625-2.659,1.479-3.949c0,0-1.833.652-.992-1.841a4.348,4.348,0,0,0-1.3-.421s-.985-.72,1.179-1.141a3.047,3.047,0,0,1-3.1-2.591,2.81,2.81,0,0,1,.631-2.735s.668,1.6,1.841-.405c0,0-1.391,3.279,1.532,3.837,0,0-.3,1.292.752,1.353,0,0-.632.037.089-1.083,0,0,.511,0,.36-1.239a1.031,1.031,0,0,1,.963,1.029,2.88,2.88,0,0,1,.269-1.091,2.244,2.244,0,0,0,0-1.5s.128.36.819.089a3.418,3.418,0,0,1-.668-2.381,2.389,2.389,0,0,0,.739,1.365,1.554,1.554,0,0,1,.321,1.167c-.151.571.691-1.78.06-2.532a6.009,6.009,0,0,1-1.721-3.612c-.089-2.4-2.913-8.159-5.476-8.279,0,0-1.809-.323-1.569,2.321,0,0,.908,2.907,1.991,3.365,0,0,.3-1.172.66-1.2a1.86,1.86,0,0,1-.631-2.561s-.872.039-.841.429c0,0-.721-1.151.451-1.3,0,0,.684-.113,1.623,1.3s2.563,3.785,2.231,6.617a2.289,2.289,0,0,1-2.38,2.561.755.755,0,0,0-.783.329s.595-.988-.632-2.256c-1.067-1.1-4.363-3.227-3.851-7.561a2.127,2.127,0,0,0,.6-2.193l.061.151s-.5-1.029.28-.907c0,0-.421-.969,0-1.18,0,0,.877.28.952.577L5.372,8.987s1,.18,1.18,0c0,0-.28-.16-.08-1.557l.8-.119s-.321.057.04-2.456c0,0,1.507.111,1.6-.28,0,0-.716-.331-.807-.9a3.632,3.632,0,0,0-.324-1.492c-.152-.227-.488-.316-.695-.555S6.9,1.211,6.663,1C6.247,1.209,6.1.715,5.9.584,5.777.505,5.275.515,5.2.028a.871.871,0,0,1-.695,0,.962.962,0,0,1-.625-.695c-.257-.019-.533.429-.817.417C2.949-.255,2.58-.875,2.3-.459c-.269.005-.531.231-.773.26A7.412,7.412,0,0,1,0,0" fill="#926c36"/>
    </g>
    <g id="g1438" transform="translate(377.923 -218.425)">
      <path id="path1440" d="M0,0A12.98,12.98,0,0,1-.089,1.652c-.151.18-.752,1.924-1.924,2.164l-.608.068s.54,1.231.031,1.472c0,0-.112.36-1.112.391,0,0,.369.976.971,1.005a8.821,8.821,0,0,1-1.4,1.476s-.349.359-.08.479c0,0-1.395,1.373-2.447,1.163,0,0-5.691-1.213-6.791-.113A8.769,8.769,0,0,0-7.66,11.28a.87.87,0,0,1,.536.113c.145.121.093.409.3.579l.264.015.233.385c.168.133.432.145.587.264.235.18.344.451.479.536,0,0,.837.132.928-.139,0,0-.271.968.18,1.329,0,0-.909,2.013-1.211,2.013,0,0-3.4-.233-3.252,1.54,0,0-.812,1.652.549,1.652a.949.949,0,0,0,.9,1.323s-.6-2.044,2.953-2.044c0,0,1.321-.06,1.052-.631A6.935,6.935,0,0,0-.12,22.04s-.149-.031-.969.961c0,0-.6.329-.269,2.2a18.532,18.532,0,0,0,.668,2.884A10.862,10.862,0,0,0-1.84,30.857s-1.261.872-1.383.783l.6,6.055a7.829,7.829,0,0,1-1.532-.121c-.849-.149-.609-.253-.609-.253l-3.823-.827s-8.364,3.9-9.745,9.972h2.16s2.769-6.06,5.241-4.047a1.149,1.149,0,0,1-.239,1.781,1.524,1.524,0,0,1-1.241-.091A1.914,1.914,0,0,0-9.7,45.341a1.55,1.55,0,0,0,.721-1.352.656.656,0,0,1,.729.66,1.808,1.808,0,0,0,.119-1.772s.512.18.512.511c0,0,.488-1.3-.241-2.02,0,0,.6-.452.9.389,0,0-.272-2.853-2.892-1.952,0,0,3.281-2.111,4.9.3,0,0,1.211,2.464-1.141,2.284.48,1.509,3.343,1.989,3.643-.091.289-2-.781-2.764-1.141-3.463-.781-1.8,1.751,2.231,3.583,1.389,0,0-1.637-.337-1.268-1.54a3.091,3.091,0,0,0,2.891.88A2.776,2.776,0,0,1-.149,37.32s1.239,1.937,3.072.885c0,0-2.2-.383-1.541-2.344,0,0,.609-.6,1.872.6a3.347,3.347,0,0,1,.391,4.275s3.395-.721,1.532-3.944a.8.8,0,0,0,1.149-.151s-.417.131-.459-.781c-.06-1.36-2.793-2.471-6.677-2.471,0,0,1.441-.971,1.261-1.631a1.426,1.426,0,0,0,2.043.668,1.273,1.273,0,0,1-.9-1.66,1.682,1.682,0,0,1,1.179.6s-1.128-.932-.368-1.893c0,0,2.569,2.772,4.072,3.252,0,0,.721.144.481,2.015a1.393,1.393,0,0,0-.88,1.059s.128-.271.219,0c0,0-1.052,2.276.029,3.065,0,0,1.005.663,1.216-.449a7.151,7.151,0,0,1,1.971-.747s-.625-2.659,1.479-3.949c0,0-1.833.652-.992-1.841a4.348,4.348,0,0,0-1.3-.421s-.985-.72,1.179-1.141a3.047,3.047,0,0,1-3.1-2.591,2.81,2.81,0,0,1,.631-2.735s.668,1.6,1.841-.405c0,0-1.391,3.279,1.532,3.837,0,0-.3,1.292.752,1.353,0,0-.632.037.089-1.083,0,0,.511,0,.36-1.239a1.031,1.031,0,0,1,.963,1.029,2.88,2.88,0,0,1,.269-1.091,2.244,2.244,0,0,0,0-1.5s.128.36.819.089a3.418,3.418,0,0,1-.668-2.381,2.389,2.389,0,0,0,.739,1.365,1.554,1.554,0,0,1,.321,1.167c-.151.571.691-1.78.06-2.532a6.009,6.009,0,0,1-1.721-3.612c-.089-2.4-2.913-8.159-5.476-8.279,0,0-1.809-.323-1.569,2.321,0,0,.908,2.907,1.991,3.365,0,0,.3-1.172.66-1.2a1.86,1.86,0,0,1-.631-2.561s-.872.039-.841.429c0,0-.721-1.151.451-1.3,0,0,.684-.113,1.623,1.3s2.563,3.785,2.231,6.617a2.289,2.289,0,0,1-2.38,2.561.755.755,0,0,0-.783.329s.595-.988-.632-2.256c-1.067-1.1-4.363-3.227-3.851-7.561a2.127,2.127,0,0,0,.6-2.193l.061.151s-.5-1.029.28-.907c0,0-.421-.969,0-1.18,0,0,.877.28.952.577L5.372,8.987s1,.18,1.18,0c0,0-.28-.16-.08-1.557l.8-.119s-.321.057.04-2.456c0,0,1.507.111,1.6-.28,0,0-.716-.331-.807-.9a3.632,3.632,0,0,0-.324-1.492c-.152-.227-.488-.316-.695-.555S6.9,1.211,6.663,1C6.247,1.209,6.1.715,5.9.584,5.777.505,5.275.515,5.2.028a.871.871,0,0,1-.695,0,.962.962,0,0,1-.625-.695c-.257-.019-.533.429-.817.417C2.949-.255,2.58-.875,2.3-.459c-.269.005-.531.231-.773.26A7.412,7.412,0,0,1,0,0Z" fill="none" stroke="#231f20" stroke-miterlimit="3.864" stroke-width="0.355"/>
    </g>
    <g id="g1442" transform="translate(382.799 -215.293)">
      <path id="path1444" d="M0,0S-.06.421.18.541s.953,1.2,1.052,1.2" fill="none" stroke="#231f20" stroke-miterlimit="3.864" stroke-width="0.251"/>
    </g>
    <g id="g1446" transform="translate(383.699 -213.879)">
      <path id="path1448" d="M0,0-.42-.06C-.541,0-1.2-.031-1.261-.24A.489.489,0,0,1-.78-.661L-.811-.872,0,0" fill="#231f20"/>
    </g>
    <g id="g1450" transform="translate(383.699 -213.879)">
      <path id="path1452" d="M0,0-.42-.06C-.541,0-1.2-.031-1.261-.24A.489.489,0,0,1-.78-.661L-.811-.872Z" fill="none" stroke="#231f20" stroke-miterlimit="3.864" stroke-width="0.251"/>
    </g>
    <g id="g1454" transform="translate(379.395 -216.201)">
      <path id="path1456" d="M0,0S1.239-.277,1.54.541c0,0,.413.549-.969,1.811,0,0-.721.751.879.691" fill="none" stroke="#231f20" stroke-miterlimit="3.864" stroke-width="0.251"/>
    </g>
    <g id="g1458" transform="translate(380.236 -213.129)">
      <path id="path1460" d="M0,0A2.372,2.372,0,0,0,3.043,1.172a2,2,0,0,1-.787,1.013C2.023,3.077.829,3.677.011,3.915c-.041.111-.123.3-.432.149A5.251,5.251,0,0,1-2.944,2.412s0-.24.36-.3c0,0-.451-3.853.931-3.943A1.555,1.555,0,0,0,0,0" fill="#231f20"/>
    </g>
    <g id="g1462" transform="translate(380.236 -213.129)">
      <path id="path1464" d="M0,0A2.372,2.372,0,0,0,3.043,1.172a2,2,0,0,1-.787,1.013C2.023,3.077.829,3.677.011,3.915c-.041.111-.123.3-.432.149A5.251,5.251,0,0,1-2.944,2.412s0-.24.36-.3c0,0-.451-3.853.931-3.943A1.555,1.555,0,0,0,0,0Z" fill="none" stroke="#231f20" stroke-miterlimit="3.864" stroke-width="0.251"/>
    </g>
    <g id="g1466" transform="translate(377.647 -211.115)">
      <path id="path1468" d="M0,0C.377.019,2.228,1.96,2.228,1.96A4.225,4.225,0,0,1-.476.279S-.561-.028,0,0" fill="#231f20"/>
    </g>
    <g id="g1470" transform="translate(377.647 -211.115)">
      <path id="path1472" d="M0,0C.377.019,2.228,1.96,2.228,1.96A4.225,4.225,0,0,1-.476.279S-.561-.028,0,0Z" fill="none" stroke="#231f20" stroke-miterlimit="3.864" stroke-width="0.251"/>
    </g>
    <g id="g1474" transform="translate(380.034 -212.926)">
      <path id="path1476" d="M0,0C.207.088.5.533.723.756c.159.381.072.872-.685,1.712,0,0-.967.767-1.216.488,0,0-.348-.161.065-1.515C-1.113,1.441-.725-.305,0,0" fill="#926c36"/>
    </g>
    <g id="g1478" transform="translate(379.486 -216.17)">
      <path id="path1480" d="M0,0A2.322,2.322,0,0,1,.631.391c.151.18.488.585.82.457C1.451.848,1.5.12.931,0A1.931,1.931,0,0,0,0,0" fill="#231f20"/>
    </g>
    <g id="g1482" transform="translate(381.886 -211.658)">
      <path id="path1484" d="M0,0S-.744,1.365-1.5.895C-.928.452-.931-.4-.868-.325L0,0" fill="#926c36"/>
    </g>
    <g id="g1486" transform="translate(382.555 -211.037)">
      <path id="path1488" d="M0,0C-.24.161-.62,1.425-1.971.681-1.2.471-.541-.616-.541-.616a3.056,3.056,0,0,0,1.2-.157A1.642,1.642,0,0,1,0,0" fill="#926c36"/>
    </g>
    <g id="g1490" transform="translate(380.368 -210.627)">
      <path id="path1492" d="M0,0C-.032-.335.085,1.113-.3,1.319A2.031,2.031,0,0,1-1.153.881C-1.253.781.027.288,0,0" fill="#926c36"/>
    </g>
    <g id="g1494" transform="translate(381.426 -209.846)">
      <path id="path1496" d="M0,0C.043-.208-.971-.608-1.195.571-1.195.571-.088.451,0,0" fill="#926c36"/>
    </g>
    <g id="g1498" transform="translate(378.591 -213.841)">
      <path id="path1500" d="M0,0A1.3,1.3,0,0,0,.017,1.956a1.307,1.307,0,0,0,.571-.621A.956.956,0,0,1,1.157.783C.561.923,0,0,0,0" fill="#926c36"/>
    </g>
    <g id="g1502" transform="translate(378.595 -213.918)">
      <path id="path1504" d="M0,0C-.2.012-.708.905-.769.272a1.117,1.117,0,0,1,.559-1.1S-.175-.075,0,0" fill="#926c36"/>
    </g>
    <g id="g1506" transform="translate(378.708 -211.674)">
      <path id="path1508" d="M0,0C0-.207-.832-.179-1.147.479c0,0,.127.344,1.059.928A5.288,5.288,0,0,0,0,0" fill="#926c36"/>
    </g>
    <g id="g1510" transform="translate(378.26 -211.983)">
      <path id="path1512" d="M0,0A.992.992,0,0,1-.223-.632c-.04-1.623-.423-.28-.447.272A5.469,5.469,0,0,0-.619.464a1.226,1.226,0,0,1,.556-.3C.208.135,0,0,0,0" fill="#926c36"/>
    </g>
    <g id="g1514" transform="translate(382.047 -206.803)">
      <path id="path1516" d="M0,0A1.147,1.147,0,0,1-1.107-.736s-1.672,1.788-.913,2.3c0,0-1.323-.841-1.2-1.743A1.4,1.4,0,0,1-4.243,1.172,2.853,2.853,0,0,1-4.6-1.54,1.9,1.9,0,0,1-6.836-.451s.481-1.54.272-1.84a1.136,1.136,0,0,1-1.563-.3" fill="none" stroke="#231f20" stroke-miterlimit="3.864" stroke-width="0.355"/>
    </g>
    <g id="g1518" transform="translate(376.054 -207.103)">
      <path id="path1520" d="M0,0A19.191,19.191,0,0,0-2.313,3.132" fill="none" stroke="#231f20" stroke-miterlimit="3.864" stroke-width="0.355"/>
    </g>
    <g id="g1522" transform="translate(380.058 -204.001)">
      <path id="path1524" d="M0,0S-.789,2.472.389,3.313c0,0-.931-.308-.991-.729,0,0-.241,1.211.12,1.3s-.932-.9-1.381-.031c0,0-.031-1.36-.272-1.329" fill="none" stroke="#231f20" stroke-miterlimit="3.864" stroke-width="0.355"/>
    </g>
    <g id="g1526" transform="translate(378.495 -201.927)">
      <path id="path1528" d="M0,0S-.629,1.057-2.772.872c-.691-.061-.992.939-.992.939" fill="none" stroke="#231f20" stroke-miterlimit="3.864" stroke-width="0.355"/>
    </g>
    <g id="g1530" transform="translate(377.114 -201.086)">
      <path id="path1532" d="M0,0S-.72,1.089-.209,1.3s-.849.052-.52-1.209" fill="none" stroke="#231f20" stroke-miterlimit="3.864" stroke-width="0.355"/>
    </g>
    <g id="g1534" transform="translate(374.522 -206.381)">
      <path id="path1536" d="M0,0S-.621.961-1.081,1.111" fill="none" stroke="#231f20" stroke-miterlimit="3.864" stroke-width="0.355"/>
    </g>
    <g id="g1538" transform="translate(373.44 -208.613)">
      <path id="path1540" d="M0,0S-.232.5-.548.391A1.964,1.964,0,0,0-2.772.819a1.888,1.888,0,0,1-1.179.48" fill="none" stroke="#231f20" stroke-miterlimit="3.864" stroke-width="0.355"/>
    </g>
    <g id="g1542" transform="translate(377.715 -197.773)">
      <path id="path1544" d="M0,0S2.493,1.2,2.584,2.921" fill="none" stroke="#231f20" stroke-miterlimit="3.864" stroke-width="0.355"/>
    </g>
    <g id="g1546" transform="translate(382.951 -195.121)">
      <path id="path1548" d="M0,0A2.14,2.14,0,0,1,.3,1.96c-.451.932-.812,2.305-.3,2.764,0,0-1.292-.991-.963-2.1" fill="none" stroke="#231f20" stroke-miterlimit="3.864" stroke-width="0.355"/>
    </g>
    <g id="g1550" transform="translate(380.818 -191.148)">
      <path id="path1552" d="M0,0S-.519,1.509,1.653,3.1" fill="none" stroke="#231f20" stroke-miterlimit="3.864" stroke-width="0.355"/>
    </g>
    <g id="g1554" transform="translate(379.579 -193.43)">
      <path id="path1556" d="M0,0S-1.623.721.72,4.424" fill="none" stroke="#231f20" stroke-miterlimit="3.864" stroke-width="0.355"/>
    </g>
    <g id="g1558" transform="translate(377.836 -196.353)">
      <path id="path1560" d="M0,0A4.416,4.416,0,0,1,1.832,3.733" fill="none" stroke="#231f20" stroke-miterlimit="3.864" stroke-width="0.355"/>
    </g>
    <g id="g1562" transform="translate(377.956 -194.4)">
      <path id="path1564" d="M0,0S-.9-.54-.631,3.973" fill="none" stroke="#231f20" stroke-miterlimit="3.864" stroke-width="0.355"/>
    </g>
    <g id="g1566" transform="translate(379.666 -187.626)">
      <path id="path1568" d="M0,0S-1.2-.7-1.232,1.023" fill="none" stroke="#231f20" stroke-miterlimit="3.864" stroke-width="0.251"/>
    </g>
    <g id="g1570" transform="translate(386.291 -182.382)">
      <path id="path1572" d="M0,0A1.862,1.862,0,0,0-.932,2.133" fill="none" stroke="#231f20" stroke-miterlimit="3.864" stroke-width="0.355"/>
    </g>
    <g id="g1574" transform="translate(384.759 -182.744)">
      <path id="path1576" d="M0,0A.569.569,0,0,0-.7.48" fill="none" stroke="#231f20" stroke-miterlimit="3.864" stroke-width="0.251"/>
    </g>
    <g id="g1578" transform="translate(386.14 -194.58)">
      <path id="path1580" d="M0,0A.977.977,0,0,0,1.577.335C2.536,1.625,3.685.168,3.685.168A3.3,3.3,0,0,0,5.075,2.176" fill="none" stroke="#231f20" stroke-miterlimit="3.864" stroke-width="0.355"/>
    </g>
    <g id="g1582" transform="translate(389.49 -194.005)">
      <path id="path1584" d="M0,0S-.6,2.488.575,3.159" fill="none" stroke="#231f20" stroke-miterlimit="3.864" stroke-width="0.355"/>
    </g>
    <g id="g1586" transform="translate(388.891 -191.397)">
      <path id="path1588" d="M0,0A7.514,7.514,0,0,0-.168,1.817" fill="none" stroke="#231f20" stroke-miterlimit="3.864" stroke-width="0.355"/>
    </g>
    <g id="g1590" transform="translate(385.47 -194.436)">
      <path id="path1592" d="M0,0A1.118,1.118,0,0,1-.311,1.195" fill="none" stroke="#231f20" stroke-miterlimit="3.864" stroke-width="0.251"/>
    </g>
    <g id="g1594" transform="translate(388.244 -200.171)">
      <path id="path1596" d="M0,0C.023-.016-.424,2.427.819,2.569A1.875,1.875,0,0,1-1.1,4.884s.564-.339.084-2.117A2.557,2.557,0,0,1,0,0" fill="#926c36"/>
    </g>
    <g id="g1598" transform="translate(388.244 -200.171)">
      <path id="path1600" d="M0,0C.023-.016-.424,2.427.819,2.569A1.875,1.875,0,0,1-1.1,4.884s.564-.339.084-2.117A2.557,2.557,0,0,1,0,0Z" fill="none" stroke="#231f20" stroke-miterlimit="3.864" stroke-width="0.355"/>
    </g>
    <g id="g1602" transform="translate(387.003 -202.656)">
      <path id="path1604" d="M0,0C.027,0-.452,2.287.875,2.739L.141,4.4s-1.807-2.456-1.5-2.88C-1.356,1.524-1.1-.029,0,0" fill="#926c36"/>
    </g>
    <g id="g1606" transform="translate(387.003 -202.656)">
      <path id="path1608" d="M0,0C.027,0-.452,2.287.875,2.739L.141,4.4s-1.807-2.456-1.5-2.88C-1.356,1.524-1.1-.029,0,0Z" fill="none" stroke="#231f20" stroke-miterlimit="3.864" stroke-width="0.355"/>
    </g>
    <g id="g1610" transform="translate(377.1 -185.038)">
      <path id="path1612" d="M0,0A16.221,16.221,0,0,0-2.079.283" fill="none" stroke="#231f20" stroke-miterlimit="3.864" stroke-width="0.355"/>
    </g>
    <g id="g1614" transform="translate(370.856 -199.89)">
      <path id="path1616" d="M0,0S-1.016.565-1.044,1.3" fill="none" stroke="#231f20" stroke-miterlimit="3.864" stroke-width="0.355"/>
    </g>
    <g id="g1618" transform="translate(370.49 -200.906)">
      <path id="path1620" d="M0,0A1.213,1.213,0,0,0-1.325.791" fill="none" stroke="#231f20" stroke-miterlimit="3.864" stroke-width="0.355"/>
    </g>
    <g id="g1622" transform="translate(359.314 -172.241)">
      <path id="path1624" d="M0,0-.148,0,0,.008ZM-.295.008l.147,0L-.295,0ZM-30.045-7.667c0-.988,1.175-2.009,3.943.275C-23.357-5.125-12.349.273-.295.008l.147,0L0,0C12.053.273,23.063-5.125,25.808-7.392c2.767-2.284,3.944-1.263,3.944-.275,0,.6,1.427,3.284,2.437,3.668.723.275.46,1.361-.076,1.581C18.824,7.447,1.277,7.412-.148,7.392c-1.425.02-18.971.055-32.261-9.809-.536-.22-.8-1.307-.076-1.581,1.011-.384,2.44-3.064,2.44-3.668" fill="#005aaa"/>
    </g>
    <g id="g1626" transform="translate(331.197 -172.973)">
      <path id="path1628" d="M0,0,1.836-3.056l-.588-.353-2.42,2.063-.008-.005L-.5-4.459l-.591-.356L-2.928-1.759l.4.24,1.084-1.8c.053-.091.279-.483.447-.763l.008,0L-1.668-1l.408.245,2.4-2.049.008.005c-.171.285-.412.668-.465.756L-.4-.24,0,0" fill="#926c36"/>
    </g>
    <g id="g1630" transform="translate(334.133 -175.481)">
      <path id="path1632" d="M0,0-.429-.219-2.047,2.957l.428.219Z" fill="#926c36"/>
    </g>
    <g id="g1634" transform="translate(335.759 -171.501)">
      <path id="path1636" d="M0,0-.009,0l-.4-3.363-.517-.241L-2.432-.379l.424.2L-.791-2.791l.008,0L-.357.589.133.817,1.64-2.412l-.423-.2Z" fill="#926c36"/>
    </g>
    <g id="g1638" transform="translate(338.559 -173.458)">
      <path id="path1640" d="M0,0-.444-.189-1.836,3.092l.444.189Z" fill="#926c36"/>
    </g>
    <g id="g1642" transform="translate(341.367 -171.264)">
      <path id="path1644" d="M0,0C.116-.376.253-1.117-.917-1.544a1.092,1.092,0,0,0-1.529.617A.86.86,0,0,0-2.02.121l.628.408c.5.331.625.5.5.852-.175.48-.756.364-1.083.245-.429-.156-.86-.513-.637-1.12L-3.039.352a1.1,1.1,0,0,0,.031.972,1.414,1.414,0,0,0,.9.692c.573.208,1.391.256,1.679-.536A.924.924,0,0,0-.867.308L-1.744-.26a.45.45,0,0,1-.241-.568c.185-.509.695-.413.979-.309a.775.775,0,0,1,.581.983L0,0" fill="#926c36"/>
    </g>
    <g id="g1646" transform="translate(341.915 -171.778)">
      <path id="path1648" d="M0,0,1.16.333.295,3.349l.463.132L1.623.465,2.783.8,2.9.388.117-.411Z" fill="#926c36"/>
    </g>
    <g id="g1650" transform="translate(345.243 -169.162)">
      <path id="path1652" d="M0,0,1.137.263a.546.546,0,0,1,.476.763,4.277,4.277,0,0,0-.119.887l.576.135.017-.077c-.125-.117-.133-.193-.093-.388L2.111.945C2.2.456,2.024.324,1.845.2a.877.877,0,0,0,.675-.72c.171-.736-.355-1.065-.925-1.2L-.011-2.092l-.8,3.473.468.109ZM.365-1.583l1.171.271a.549.549,0,0,1,.491.724c-.119.513-.5.516-.845.437L.093-.4l.272-1.18" fill="#926c36"/>
    </g>
    <g id="g1654" transform="translate(349.499 -168.157)">
      <path id="path1656" d="M0,0,1.695-1.864l-.557-.1L-.167-.451-.877-2.317l-.552-.1L-.473-.083-.723,1.329l.475.084Z" fill="#926c36"/>
    </g>
    <g id="g1658" transform="translate(355.566 -167.806)">
      <path id="path1660" d="M0,0C-.059.836-.567,1.413-1.34,1.359A1.283,1.283,0,0,1-2.477-.175c.06-.836.568-1.412,1.34-1.359A1.283,1.283,0,0,1,0,0M.495.035a1.724,1.724,0,0,0-1.6-1.992A1.723,1.723,0,0,0-2.971-.208a1.723,1.723,0,0,0,1.6,1.992A1.723,1.723,0,0,0,.495.035" fill="#926c36"/>
    </g>
    <g id="g1662" transform="translate(357.248 -167.606)">
      <path id="path1664" d="M0,0H1.748V-.425H0V-1.519H1.987v-.425H-.481V1.619H0Z" fill="#926c36"/>
    </g>
    <g id="g1666" transform="translate(363.95 -166.59)">
      <path id="path1668" d="M0,0-2.145.148l-.083-1.187,1.947-.137L-.312-1.6l-1.945.137-.076-1.091L-.224-2.7l-.029-.427-2.592.181L-2.595.608.029.425Z" fill="#926c36"/>
    </g>
    <g id="g1670" transform="translate(364.794 -166.288)">
      <path id="path1672" d="M0,0,1.411-.2A1.6,1.6,0,0,0,2.659-2.224,1.527,1.527,0,0,0,.933-3.732l-1.429.2ZM.037-3.191l.889-.124c.649-.092,1.12.3,1.245,1.188S1.963-.693,1.344-.605L.419-.476.037-3.191" fill="#926c36"/>
    </g>
    <g id="g1674" transform="translate(370.046 -170.786)">
      <path id="path1676" d="M0,0,.429,2.212A.865.865,0,0,1-.3,3.351a.857.857,0,0,1-1.076-.8l-.429-2.2-.472.092.455,2.335a1.236,1.236,0,0,0,1.589,1,1.294,1.294,0,0,0,1.151-1.6L.472-.092,0,0" fill="#926c36"/>
    </g>
    <g id="g1678" transform="translate(374.318 -170.834)">
      <path id="path1680" d="M0,0A1.351,1.351,0,0,0-1.729-.719,1.657,1.657,0,0,0-2.816,1.524c.379,1.319,1.285,1.605,2.064,1.383A1.5,1.5,0,0,0,.36,1.127l-.451.128A1.033,1.033,0,0,1-.8,2.475c-.848.243-1.313-.293-1.545-1.1-.257-.9.112-1.5.732-1.681A.931.931,0,0,1-.448.128L0,0" fill="#926c36"/>
    </g>
    <g id="g1682" transform="translate(377.202 -170.288)">
      <path id="path1684" d="M0,0,.671.865l.5-.171L-1.213-2.255l-.515.177-.108,3.808.471-.163.013-1.1ZM-1.351.013l.031-1.669.008,0L-.3-.347Z" fill="#926c36"/>
    </g>
    <g id="g1686" transform="translate(376.912 -172.374)">
      <path id="path1688" d="M0,0,1.119-.452,2.295,2.457l.445-.18L1.565-.632l1.12-.452-.161-.4L-.159-.4Z" fill="#926c36"/>
    </g>
    <g id="g1690" transform="translate(380.396 -174.244)">
      <path id="path1692" d="M0,0-.444.188.949,3.469l.443-.188Z" fill="#926c36"/>
    </g>
    <g id="g1694" transform="translate(384.367 -174.15)">
      <path id="path1696" d="M0,0A1.28,1.28,0,0,1-.48,1.847a1.281,1.281,0,0,1-1.751-.759,1.28,1.28,0,0,1,.48-1.847A1.281,1.281,0,0,1,0,0M.445-.217a1.726,1.726,0,0,0-2.384-.925,1.725,1.725,0,0,0-.739,2.448,1.725,1.725,0,0,0,2.384.925A1.724,1.724,0,0,0,.445-.217" fill="#926c36"/>
    </g>
    <g id="g1698" transform="translate(387.926 -174.888)">
      <path id="path1700" d="M0,0-.009,0-2.964-1.651l-.5.277,1.728,3.117.407-.227L-2.723-1l.008-.005L.267.635.74.372-.989-2.745l-.407.227Z" fill="#926c36"/>
    </g>
  </g>
</svg>
