<svg xmlns="http://www.w3.org/2000/svg" width="25.14" height="21.71" viewBox="0 0 25.14 21.71">
  <g id="nodatatodisplay" transform="translate(-5.43 -2)">
    <g id="Group_1702" data-name="Group 1702">
      <path id="Path_767" data-name="Path 767" d="M29.9,6.1a2.28,2.28,0,0,0-1.61-.67H19.14L17.53,3a2.27,2.27,0,0,0-1.9-1H7.71A2.29,2.29,0,0,0,5.43,4.29V21.43A2.29,2.29,0,0,0,6.09,23a2.32,2.32,0,0,0,1.62.67h9.15l2.28.04h9.15a2.29,2.29,0,0,0,2.28-2.28V7.71A2.28,2.28,0,0,0,29.9,6.1Zm-8.81,10a1.15,1.15,0,0,1-1.62,1.62L18,16.19l-1.49,1.48a1.142,1.142,0,0,1-1.61-1.62l1.48-1.48L14.9,13.1a1.17,1.17,0,0,1,0-1.63,1.15,1.15,0,0,1,1.61,0L18,13l1.47-1.49a1.149,1.149,0,1,1,1.62,1.63l-1.48,1.47Z" fill="#29487d" fill-rule="evenodd"/>
    </g>
  </g>
</svg>
