<svg viewBox="0 0 395.52 247.2" height="247.2" width="395.52"><g transform="matrix(1,0,0,1,75.54432000000001,56.74805815777658)"><svg viewBox="0 0 244.43135999999996 133.70388368444682" height="133.70388368444682" width="244.43135999999996"><g><svg viewBox="0 0 244.43135999999996 133.70388368444682" height="133.70388368444682" width="244.43135999999996"><g><svg viewBox="0 0 244.43136 133.70388368444685" height="133.70388368444682" width="244.43135999999996"><g><svg viewBox="0 0 244.43136 133.70388368444685" height="133.70388368444685" width="244.43136"><g id="textblocktransform"><svg viewBox="0 0 244.43136 133.70388368444685" height="133.70388368444685" width="244.43136" id="textblock"><g><svg viewBox="0 0 244.43136 83.65815189292543" height="83.65815189292543" width="244.43136"><g transform="matrix(1,0,0,1,0,0)"><svg width="244.43136" viewBox="2.4000000953674316 -35.400001525878906 104.5999984741211 35.80000305175781" height="83.65815189292543" data-palette-color="#ffffff"><path d="M21.05 0.4Q15.75 0.4 11.5-1.93 7.25-4.25 4.83-8.35 2.4-12.45 2.4-17.5L2.4-17.5Q2.4-22.55 4.83-26.65 7.25-30.75 11.5-33.08 15.75-35.4 21.05-35.4L21.05-35.4Q26.3-35.4 30.55-33.08 34.8-30.75 37.2-26.68 39.6-22.6 39.6-17.5L39.6-17.5Q39.6-12.4 37.2-8.33 34.8-4.25 30.55-1.93 26.3 0.4 21.05 0.4L21.05 0.4ZM21.05-4.05Q24.9-4.05 27.98-5.8 31.05-7.55 32.83-10.63 34.6-13.7 34.6-17.5L34.6-17.5Q34.6-21.3 32.83-24.38 31.05-27.45 27.98-29.2 24.9-30.95 21.05-30.95L21.05-30.95Q17.2-30.95 14.08-29.2 10.95-27.45 9.18-24.38 7.4-21.3 7.4-17.5L7.4-17.5Q7.4-13.7 9.18-10.63 10.95-7.55 14.08-5.8 17.2-4.05 21.05-4.05L21.05-4.05ZM62.9 0.4Q57.65 0.4 53.42-1.93 49.2-4.25 46.8-8.33 44.4-12.4 44.4-17.5L44.4-17.5Q44.4-22.6 46.8-26.68 49.2-30.75 53.45-33.08 57.7-35.4 62.95-35.4L62.95-35.4Q67.05-35.4 70.45-34.02 73.85-32.65 76.25-29.95L76.25-29.95 73-26.8Q69.05-30.95 63.15-30.95L63.15-30.95Q59.25-30.95 56.1-29.2 52.95-27.45 51.17-24.38 49.4-21.3 49.4-17.5L49.4-17.5Q49.4-13.7 51.17-10.63 52.95-7.55 56.1-5.8 59.25-4.05 63.15-4.05L63.15-4.05Q69-4.05 73-8.25L73-8.25 76.25-5.1Q73.85-2.4 70.42-1 67 0.4 62.9 0.4L62.9 0.4ZM93.45 0.4Q89.5 0.4 85.82-0.83 82.15-2.05 80.05-4L80.05-4 81.9-7.9Q83.9-6.1 87.02-4.98 90.15-3.85 93.45-3.85L93.45-3.85Q97.8-3.85 99.95-5.33 102.09-6.8 102.09-9.25L102.09-9.25Q102.09-11.05 100.92-12.18 99.75-13.3 98.02-13.9 96.3-14.5 93.15-15.25L93.15-15.25Q89.2-16.2 86.77-17.15 84.34-18.1 82.62-20.08 80.9-22.05 80.9-25.4L80.9-25.4Q80.9-28.2 82.37-30.45 83.84-32.7 86.84-34.05 89.84-35.4 94.3-35.4L94.3-35.4Q97.4-35.4 100.4-34.6 103.4-33.8 105.55-32.3L105.55-32.3 103.9-28.3Q101.7-29.7 99.2-30.43 96.7-31.15 94.3-31.15L94.3-31.15Q90.05-31.15 87.92-29.6 85.8-28.05 85.8-25.6L85.8-25.6Q85.8-23.8 87-22.68 88.2-21.55 89.97-20.93 91.75-20.3 94.8-19.6L94.8-19.6Q98.75-18.65 101.15-17.7 103.55-16.75 105.27-14.8 107-12.85 107-9.55L107-9.55Q107-6.8 105.5-4.53 104-2.25 100.95-0.93 97.9 0.4 93.45 0.4L93.45 0.4Z" opacity="1" transform="matrix(1,0,0,1,0,0)" fill="#ffffff" class="wordmark-text-0" data-fill-palette-color="primary" id="text-0"></path></svg></g></svg></g><g transform="matrix(1,0,0,1,0,103.40783375919969)"><svg viewBox="0 0 244.43136 30.29604992524717" height="30.29604992524717" width="244.43136"><g transform="matrix(1,0,0,1,0,0)"><svg width="244.43136" viewBox="3 -39.54999923706055 414.6700134277344 51.400001525878906" height="30.29604992524717" data-palette-color="#ffffff"><path d="M23.05 0.5L23.05 0.5Q18.75 0.5 15.1-1 11.45-2.5 8.72-5.23 6-7.95 4.5-11.6 3-15.25 3-19.55L3-19.55Q3-23.85 4.5-27.48 6-31.1 8.72-33.83 11.45-36.55 15.1-38.05 18.75-39.55 23.05-39.55L23.05-39.55Q27.35-39.55 30.98-38.05 34.6-36.55 37.33-33.83 40.05-31.1 41.55-27.48 43.05-23.85 43.05-19.55L43.05-19.55Q43.05-15.25 41.55-11.6 40.05-7.95 37.33-5.23 34.6-2.5 30.98-1 27.35 0.5 23.05 0.5ZM23.05-2.5L23.05-2.5Q26.65-2.5 29.75-3.78 32.85-5.05 35.18-7.38 37.5-9.7 38.78-12.8 40.05-15.9 40.05-19.55L40.05-19.55Q40.05-23.15 38.78-26.25 37.5-29.35 35.18-31.68 32.85-34 29.75-35.27 26.65-36.55 23.05-36.55L23.05-36.55Q19.4-36.55 16.3-35.27 13.2-34 10.88-31.68 8.55-29.35 7.28-26.25 6-23.15 6-19.55L6-19.55Q6-15.9 7.28-12.8 8.55-9.7 10.88-7.38 13.2-5.05 16.3-3.78 19.4-2.5 23.05-2.5ZM74.2 0L74.2 0Q73.55 0 73.12-0.43 72.7-0.85 72.7-1.5L72.7-1.5 72.7-14.95Q72.7-18.25 71.42-20.4 70.15-22.55 67.97-23.63 65.8-24.7 63.05-24.7L63.05-24.7Q60.35-24.7 58.2-23.68 56.05-22.65 54.8-20.85 53.55-19.05 53.55-16.8L53.55-16.8 51.05-16.8Q51.25-19.9 52.9-22.38 54.55-24.85 57.2-26.28 59.85-27.7 63.05-27.7L63.05-27.7Q66.65-27.7 69.52-26.23 72.4-24.75 74.05-21.93 75.7-19.1 75.7-14.95L75.7-14.95 75.7-1.5Q75.7-0.85 75.27-0.43 74.85 0 74.2 0ZM52.05 0L52.05 0Q51.4 0 50.97-0.43 50.55-0.85 50.55-1.5L50.55-1.5 50.55-25.85Q50.55-26.55 50.97-26.95 51.4-27.35 52.05-27.35L52.05-27.35Q52.75-27.35 53.15-26.95 53.55-26.55 53.55-25.85L53.55-25.85 53.55-1.5Q53.55-0.85 53.15-0.43 52.75 0 52.05 0ZM96.3 0.25L96.3 0.25Q92.35 0.25 89.27-1.53 86.2-3.3 84.45-6.45 82.7-9.6 82.7-13.65L82.7-13.65Q82.7-17.75 84.35-20.88 86-24 88.9-25.8 91.8-27.6 95.55-27.6L95.55-27.6Q99.25-27.6 102.1-25.88 104.95-24.15 106.55-21.13 108.15-18.1 108.15-14.15L108.15-14.15Q108.15-13.5 107.75-13.13 107.35-12.75 106.7-12.75L106.7-12.75 84.7-12.75 84.7-15.35 107.5-15.35 105.3-13.7Q105.4-16.95 104.2-19.45 103-21.95 100.77-23.38 98.55-24.8 95.55-24.8L95.55-24.8Q92.7-24.8 90.47-23.38 88.25-21.95 86.97-19.45 85.7-16.95 85.7-13.65L85.7-13.65Q85.7-10.4 87.05-7.9 88.4-5.4 90.8-3.98 93.2-2.55 96.3-2.55L96.3-2.55Q98.25-2.55 100.22-3.23 102.2-3.9 103.35-5L103.35-5Q103.75-5.4 104.32-5.43 104.9-5.45 105.3-5.1L105.3-5.1Q105.85-4.65 105.87-4.1 105.9-3.55 105.4-3.1L105.4-3.1Q103.8-1.65 101.22-0.7 98.65 0.25 96.3 0.25ZM147.34 0.5L147.34 0.5Q143.34 0.5 139.82-1.07 136.29-2.65 133.59-5.43 130.89-8.2 129.34-11.83 127.79-15.45 127.79-19.55L127.79-19.55Q127.79-23.6 129.29-27.23 130.79-30.85 133.47-33.63 136.14-36.4 139.69-37.98 143.24-39.55 147.34-39.55L147.34-39.55Q150.79-39.55 153.89-38.45 156.99-37.35 159.69-35.1L159.69-35.1Q160.14-34.75 160.14-34.13 160.14-33.5 159.74-33.02 159.34-32.55 158.64-32.55L158.64-32.55Q158.44-32.55 158.24-32.63 158.04-32.7 157.84-32.83 157.64-32.95 157.39-33.15L157.39-33.15Q155.39-34.95 152.84-35.75 150.29-36.55 147.34-36.55L147.34-36.55Q143.99-36.55 140.99-35.18 137.99-33.8 135.69-31.43 133.39-29.05 132.09-26 130.79-22.95 130.79-19.55L130.79-19.55Q130.79-16.05 132.09-12.95 133.39-9.85 135.67-7.5 137.94-5.15 140.94-3.83 143.94-2.5 147.34-2.5L147.34-2.5Q150.29-2.5 152.87-3.4 155.44-4.3 157.69-6.15L157.69-6.15Q158.09-6.5 158.64-6.4 159.19-6.3 159.59-5.9 159.99-5.5 159.99-4.85L159.99-4.85Q159.99-4.55 159.94-4.3 159.89-4.05 159.64-3.8L159.64-3.8Q157.19-1.35 153.97-0.43 150.74 0.5 147.34 0.5ZM178.14 0.3L178.14 0.3Q174.14 0.3 170.96-1.53 167.79-3.35 165.96-6.53 164.14-9.7 164.14-13.65L164.14-13.65Q164.14-17.65 165.96-20.83 167.79-24 170.96-25.83 174.14-27.65 178.14-27.65L178.14-27.65Q182.14-27.65 185.29-25.83 188.44-24 190.26-20.83 192.09-17.65 192.09-13.65L192.09-13.65 190.84-11.65Q190.84-8.25 189.16-5.55 187.49-2.85 184.64-1.28 181.79 0.3 178.14 0.3ZM178.14-2.5L178.14-2.5Q181.29-2.5 183.76-3.98 186.24-5.45 187.66-7.98 189.09-10.5 189.09-13.65L189.09-13.65Q189.09-16.85 187.66-19.38 186.24-21.9 183.76-23.38 181.29-24.85 178.14-24.85L178.14-24.85Q175.04-24.85 172.54-23.38 170.04-21.9 168.59-19.38 167.14-16.85 167.14-13.65L167.14-13.65Q167.14-10.5 168.59-7.98 170.04-5.45 172.54-3.98 175.04-2.5 178.14-2.5ZM190.64 0L190.64 0Q189.94 0 189.51-0.43 189.09-0.85 189.09-1.5L189.09-1.5 189.09-10.65 190.04-13.65 192.09-13.65 192.09-1.5Q192.09-0.85 191.69-0.43 191.29 0 190.64 0ZM206.09 0L205.09 0Q203.19 0 201.71-1.05 200.24-2.1 199.41-3.95 198.59-5.8 198.59-8.25L198.59-8.25 198.59-37.55Q198.59-38.25 199.01-38.65 199.44-39.05 200.09-39.05L200.09-39.05Q200.79-39.05 201.19-38.65 201.59-38.25 201.59-37.55L201.59-37.55 201.59-8.25Q201.59-5.95 202.56-4.48 203.54-3 205.09-3L205.09-3 206.34-3Q206.89-3 207.24-2.6 207.59-2.2 207.59-1.5L207.59-1.5Q207.59-0.85 207.19-0.43 206.79 0 206.09 0L206.09 0ZM219.58 0L218.58 0Q216.68 0 215.21-1.05 213.73-2.1 212.91-3.95 212.08-5.8 212.08-8.25L212.08-8.25 212.08-37.55Q212.08-38.25 212.51-38.65 212.93-39.05 213.58-39.05L213.58-39.05Q214.28-39.05 214.68-38.65 215.08-38.25 215.08-37.55L215.08-37.55 215.08-8.25Q215.08-5.95 216.06-4.48 217.03-3 218.58-3L218.58-3 219.83-3Q220.38-3 220.73-2.6 221.08-2.2 221.08-1.5L221.08-1.5Q221.08-0.85 220.68-0.43 220.28 0 219.58 0L219.58 0ZM253.43 0.5L253.43 0.5Q250.28 0.5 247.65-0.38 245.03-1.25 243.13-2.88 241.23-4.5 240.13-6.7L240.13-6.7Q239.83-7.3 240.1-7.85 240.38-8.4 241.03-8.6L241.03-8.6Q241.58-8.8 242.13-8.55 242.68-8.3 242.98-7.75L242.98-7.75Q243.88-6.15 245.35-4.95 246.83-3.75 248.85-3.13 250.88-2.5 253.43-2.5L253.43-2.5Q256.28-2.5 258.35-3.45 260.43-4.4 261.55-6.25 262.68-8.1 262.68-10.75L262.68-10.75Q262.68-14.05 260.3-16.32 257.93-18.6 253.08-19.25L253.08-19.25Q247.48-20.05 244.33-22.88 241.18-25.7 241.18-29.75L241.18-29.75Q241.18-32.7 242.65-34.9 244.13-37.1 246.8-38.33 249.48-39.55 252.98-39.55L252.98-39.55Q255.58-39.55 257.78-38.7 259.98-37.85 261.63-36.48 263.28-35.1 264.18-33.6L264.18-33.6Q264.53-33.05 264.35-32.43 264.18-31.8 263.53-31.55L263.53-31.55Q262.98-31.35 262.43-31.53 261.88-31.7 261.53-32.2L261.53-32.2Q260.83-33.25 259.73-34.25 258.63-35.25 256.98-35.9 255.33-36.55 252.98-36.55L252.98-36.55Q248.88-36.55 246.53-34.7 244.18-32.85 244.18-29.45L244.18-29.45Q244.18-27.65 245.15-26.18 246.13-24.7 248.23-23.65 250.33-22.6 253.58-22.05L253.58-22.05Q260.03-20.95 262.85-18.07 265.68-15.2 265.68-10.75L265.68-10.75Q265.68-8.15 264.8-6.05 263.93-3.95 262.3-2.5 260.68-1.05 258.43-0.28 256.18 0.5 253.43 0.5ZM277.98 11.85L277.98 11.85Q277.68 11.85 277.28 11.7L277.28 11.7Q275.93 11.15 276.53 9.85L276.53 9.85 293.33-26.55Q293.93-27.8 295.18-27.3L295.18-27.3Q296.53-26.75 295.93-25.45L295.93-25.45 279.13 10.95Q278.68 11.85 277.98 11.85ZM283.28-0.65L283.28-0.65Q282.63-0.35 282.13-0.5 281.63-0.65 281.33-1.3L281.33-1.3 270.38-25.3Q270.08-25.95 270.23-26.45 270.38-26.95 271.03-27.25L271.03-27.25Q271.68-27.55 272.18-27.4 272.68-27.25 272.98-26.6L272.98-26.6 283.93-2.6Q284.23-1.95 284.08-1.45 283.93-0.95 283.28-0.65ZM310.42 0.3L310.42 0.3Q307.82 0.3 304.97-0.65 302.12-1.6 300.22-3.85L300.22-3.85Q299.82-4.35 299.9-4.93 299.97-5.5 300.52-5.9L300.52-5.9Q301.02-6.25 301.6-6.15 302.17-6.05 302.52-5.6L302.52-5.6Q303.97-3.9 306.05-3.23 308.12-2.55 310.57-2.55L310.57-2.55Q314.77-2.55 316.52-4.05 318.27-5.55 318.27-7.55L318.27-7.55Q318.27-9.5 316.4-10.78 314.52-12.05 310.62-12.6L310.62-12.6Q305.62-13.3 303.22-15.3 300.82-17.3 300.82-19.95L300.82-19.95Q300.82-22.45 302.07-24.18 303.32-25.9 305.5-26.78 307.67-27.65 310.47-27.65L310.47-27.65Q313.87-27.65 316.22-26.43 318.57-25.2 320.02-23.15L320.02-23.15Q320.42-22.65 320.3-22.08 320.17-21.5 319.52-21.15L319.52-21.15Q319.02-20.9 318.47-21 317.92-21.1 317.52-21.6L317.52-21.6Q316.27-23.2 314.5-24.03 312.72-24.85 310.37-24.85L310.37-24.85Q307.22-24.85 305.47-23.5 303.72-22.15 303.72-20.25L303.72-20.25Q303.72-18.95 304.45-17.98 305.17-17 306.82-16.32 308.47-15.65 311.22-15.25L311.22-15.25Q314.97-14.75 317.15-13.55 319.32-12.35 320.25-10.78 321.17-9.2 321.17-7.4L321.17-7.4Q321.17-5.05 319.67-3.3 318.17-1.55 315.72-0.63 313.27 0.3 310.42 0.3ZM340.27 0L339.12 0Q336.37-0.05 334.22-1.28 332.07-2.5 330.87-4.67 329.67-6.85 329.67-9.6L329.67-9.6 329.67-34.5Q329.67-35.2 330.1-35.63 330.52-36.05 331.17-36.05L331.17-36.05Q331.87-36.05 332.3-35.63 332.72-35.2 332.72-34.5L332.72-34.5 332.72-9.6Q332.72-6.7 334.52-4.88 336.32-3.05 339.17-3.05L339.17-3.05 340.27-3.05Q340.97-3.05 341.4-2.63 341.82-2.2 341.82-1.5L341.82-1.5Q341.82-0.85 341.4-0.43 340.97 0 340.27 0L340.27 0ZM339.32-23.65L325.77-23.65Q325.17-23.65 324.8-24.03 324.42-24.4 324.42-25L324.42-25Q324.42-25.6 324.8-25.98 325.17-26.35 325.77-26.35L325.77-26.35 339.32-26.35Q339.92-26.35 340.3-25.98 340.67-25.6 340.67-25L340.67-25Q340.67-24.4 340.3-24.03 339.92-23.65 339.32-23.65L339.32-23.65ZM360.17 0.25L360.17 0.25Q356.22 0.25 353.14-1.53 350.07-3.3 348.32-6.45 346.57-9.6 346.57-13.65L346.57-13.65Q346.57-17.75 348.22-20.88 349.87-24 352.77-25.8 355.67-27.6 359.42-27.6L359.42-27.6Q363.12-27.6 365.97-25.88 368.82-24.15 370.42-21.13 372.02-18.1 372.02-14.15L372.02-14.15Q372.02-13.5 371.62-13.13 371.22-12.75 370.57-12.75L370.57-12.75 348.57-12.75 348.57-15.35 371.37-15.35 369.17-13.7Q369.27-16.95 368.07-19.45 366.87-21.95 364.64-23.38 362.42-24.8 359.42-24.8L359.42-24.8Q356.57-24.8 354.34-23.38 352.12-21.95 350.84-19.45 349.57-16.95 349.57-13.65L349.57-13.65Q349.57-10.4 350.92-7.9 352.27-5.4 354.67-3.98 357.07-2.55 360.17-2.55L360.17-2.55Q362.12-2.55 364.09-3.23 366.07-3.9 367.22-5L367.22-5Q367.62-5.4 368.19-5.43 368.77-5.45 369.17-5.1L369.17-5.1Q369.72-4.65 369.74-4.1 369.77-3.55 369.27-3.1L369.27-3.1Q367.67-1.65 365.09-0.7 362.52 0.25 360.17 0.25ZM416.17 0L416.17 0Q415.52 0 415.09-0.43 414.67-0.85 414.67-1.5L414.67-1.5 414.67-15.95Q414.67-19.8 412.64-22.25 410.62-24.7 407.37-24.7L407.37-24.7Q403.92-24.7 401.74-22.43 399.57-20.15 399.67-16.3L399.67-16.3 396.67-16.3Q396.77-19.75 398.17-22.3 399.57-24.85 401.97-26.28 404.37-27.7 407.37-27.7L407.37-27.7Q410.42-27.7 412.72-26.2 415.02-24.7 416.34-22.05 417.67-19.4 417.67-15.95L417.67-15.95 417.67-1.5Q417.67-0.85 417.27-0.43 416.87 0 416.17 0ZM380.02 0L380.02 0Q379.37 0 378.94-0.43 378.52-0.85 378.52-1.5L378.52-1.5 378.52-25.85Q378.52-26.55 378.94-26.95 379.37-27.35 380.02-27.35L380.02-27.35Q380.72-27.35 381.12-26.95 381.52-26.55 381.52-25.85L381.52-25.85 381.52-1.5Q381.52-0.85 381.12-0.43 380.72 0 380.02 0ZM398.17 0L398.17 0Q397.52 0 397.09-0.43 396.67-0.85 396.67-1.5L396.67-1.5 396.67-15.95Q396.67-19.8 394.64-22.25 392.62-24.7 389.37-24.7L389.37-24.7Q385.92-24.7 383.72-22.5 381.52-20.3 381.52-16.8L381.52-16.8 379.02-16.8Q379.17-20 380.54-22.45 381.92-24.9 384.22-26.3 386.52-27.7 389.37-27.7L389.37-27.7Q392.42-27.7 394.72-26.2 397.02-24.7 398.34-22.05 399.67-19.4 399.67-15.95L399.67-15.95 399.67-1.5Q399.67-0.85 399.27-0.43 398.87 0 398.17 0Z" opacity="1" transform="matrix(1,0,0,1,0,0)" fill="#ffffff" class="slogan-text-1" data-fill-palette-color="secondary" id="text-1"></path></svg></g></svg></g></svg></g></svg></g></svg></g></svg></g></svg></g><g><path d="M0 123.6c0-68.262 55.338-123.6 123.6-123.6 39.273 0 74.268 18.317 96.908 46.873h-4.862c-21.981-26.341-55.056-43.101-92.046-43.101-66.179 0-119.828 53.649-119.828 119.828 0 66.179 53.649 119.828 119.828 119.828 36.99 0 70.065-16.76 92.046-43.101h4.862c-22.64 28.557-57.635 46.873-96.908 46.873-68.262 0-123.6-55.338-123.6-123.6z" fill="#ffffff" stroke="transparent" data-fill-palette-color="tertiary"></path></g></svg>