<svg xmlns="http://www.w3.org/2000/svg" width="12.779" height="12.779" viewBox="0 0 12.779 12.779"><defs><style>.a{fill:#1d1d1d;}</style></defs><path class="a" d="M183.8,1229.132v1.231a1.412,1.412,0,0,1-1.473,1.423,12.087,12.087,0,0,1-11.3-11.3,1.412,1.412,0,0,1,1.423-1.473h1.231a1.424,1.424,0,0,1,1.416,1.259l.206,1.792a1.417,1.417,0,0,1-.405,1.167l-1.316,1.316a10.7,10.7,0,0,0,4.688,4.688l1.309-1.309a1.416,1.416,0,0,1,1.167-.405l1.807.206A1.41,1.41,0,0,1,183.8,1229.132Z" transform="translate(-171.026 -1219.01)"/></svg>