<svg xmlns="http://www.w3.org/2000/svg" version="1.1" xmlns:xlink="http://www.w3.org/1999/xlink" xmlns:svgjs="http://svgjs.com/svgjs" width="512" height="512" x="0" y="0" viewBox="0 0 32 32" style="enable-background:new 0 0 512 512" xml:space="preserve" class=""><g><path d="M26 17.7V27c0 1.7-1.3 3-3 3H5c-1.7 0-3-1.3-3-3V11c0-1.7 1.3-3 3-3h6.4c-.7.6-1.4 1.3-2 2H5c-.6 0-1 .4-1 1v16c0 .6.4 1 1 1h18c.6 0 1-.4 1-1v-7.3zm3.7-7.9-7.5-7.5c-.4-.4-1-.4-1.4 0-.2.2-.3.4-.3.7v3.3C10.1 7.9 6.7 15.5 10.2 23.7c.2.5.8.8 1.3.5.3-.1.6-.5.6-.8.3-3.1 4.5-8.7 8.5-8.9v3.3c0 .6.5 1 1 1 .3 0 .5-.1.7-.3l7.5-7.5c.3-.2.3-.9-.1-1.2z" fill="#fff" data-original="#fff" class=""></path></g></svg>